<svg viewBox="0 0 33 32" fill="none" xmlns="http://www.w3.org/2000/svg">
<g filter="url(#filter0_b_2361_47011)">
<g clip-path="url(#clip0_2361_47011)">
<rect x="0.5" width="32" height="32" rx="16" fill="#E0E0E0"/>
<g clip-path="url(#clip1_2361_47011)">
<rect width="32" height="32" transform="translate(0.5)" fill="#DEDAF9"/>
<path d="M14.0123 14.2799C14.0123 14.5009 13.8329 14.6803 13.6119 14.6803C13.5825 14.6803 13.5535 14.6765 13.5256 14.6706C13.4076 14.6445 13.3098 14.5668 13.2558 14.4618C13.2279 14.4071 13.2119 14.3454 13.2119 14.2799C13.2119 14.0589 13.3913 13.8799 13.6119 13.8799C13.8326 13.8799 14.0123 14.0589 14.0123 14.2799Z" fill="#FFAC00"/>
<path d="M19.2955 22.3584L19.2486 22.8793L19.1113 22.7573C19.1865 22.6252 19.2468 22.4905 19.2955 22.3584Z" fill="#DD920B"/>
<path d="M22.6113 8.03061C22.6113 7.77647 22.4755 7.58559 22.3654 7.4721C22.2898 7.3947 22.2262 7.3534 22.2262 7.3534C22.2262 7.3534 22.2988 7.00884 22.2988 6.51656C22.2988 5.81889 22.1529 4.82503 21.4467 4.09684C21.4121 4.06112 21.376 4.02615 21.3384 3.99154C20.4848 3.20717 19.5404 2.88531 18.8126 3.27489H18.8123C18.5135 3.43489 18.2511 3.7147 18.0465 4.13182H18.0461C18.0424 4.12624 17.9989 4.0667 17.9244 3.98931C17.9211 3.98596 17.9174 3.98224 17.9136 3.97852C17.9099 3.97443 17.9062 3.9707 17.9025 3.96698C17.6253 3.6894 16.9905 3.24326 16.3795 4.15973H16.3791C16.3791 4.15973 16.3784 4.15861 16.378 4.15787C16.3773 4.1575 16.3769 4.15675 16.3758 4.15563C16.375 4.15489 16.3743 4.15377 16.3732 4.15266C16.3721 4.15154 16.371 4.15043 16.3695 4.14894C16.3683 4.14745 16.3669 4.14596 16.3654 4.14447C16.2735 4.04922 15.7336 3.54057 14.6846 3.51526C13.242 3.48029 12.6095 4.23936 12.6095 5.05498C12.6095 5.51563 12.8111 5.99415 13.1821 6.35805C13.1944 6.36996 13.207 6.38224 13.2197 6.39377C13.232 6.40568 13.2446 6.41722 13.2576 6.42875C13.2193 6.42019 11.9881 6.14075 11.4348 6.7361C11.2673 6.91619 11.0828 7.3188 11.0828 7.72587C11.0828 7.98336 11.1564 8.2427 11.3551 8.44847C11.4746 8.57201 11.6387 8.67619 11.8586 8.7495C11.6279 8.82689 11.4519 8.98317 11.4519 9.27936C11.4519 9.32103 11.4552 9.36531 11.4627 9.41257C11.4865 9.56773 11.5449 9.68159 11.626 9.76308C12.0539 10.1928 13.1155 9.72773 13.1155 9.72773C13.1657 10.4965 13.2219 11.4033 13.2271 11.4922C13.319 11.4721 13.4143 11.4613 13.5114 11.4613C13.8247 11.4613 14.1142 11.6105 14.3479 11.8029C14.4811 11.8353 14.6121 11.8766 14.7416 11.9331C14.8007 11.9588 14.8606 11.9878 14.9049 12.0351C14.925 12.0563 14.9648 12.0883 14.9648 12.0429V12.0377L14.9224 11.2667C14.9209 11.2399 14.9202 11.2131 14.9202 11.1863C14.9202 10.9091 14.999 10.6364 15.1479 10.4012L15.2777 10.1966C15.3347 10.1069 15.3633 10.0046 15.3633 9.90224C15.3633 9.80847 15.3391 9.71433 15.2908 9.62987L15.1248 9.33889C15.0749 9.25182 15.0519 9.15805 15.0519 9.06652C15.0519 8.83024 15.2052 8.60587 15.4537 8.53629C16.8848 8.13666 20.2247 7.40103 21.7001 8.74019L22.2355 10.1813L22.2366 10.1839C22.2366 10.1839 22.4126 9.70094 22.4126 9.17182C22.4126 9.00252 22.3944 8.82801 22.3468 8.66317C22.5425 8.42391 22.6113 8.21145 22.6113 8.03061ZM22.6113 8.03061C22.6113 7.77647 22.4755 7.58559 22.3654 7.4721C22.2898 7.3947 22.2262 7.3534 22.2262 7.3534C22.2262 7.3534 22.2988 7.00884 22.2988 6.51656C22.2988 5.81889 22.1529 4.82503 21.4467 4.09684C21.4121 4.06112 21.376 4.02615 21.3384 3.99154C20.4848 3.20717 19.5404 2.88531 18.8126 3.27489H18.8123C18.5135 3.43489 18.2511 3.7147 18.0465 4.13182H18.0461C18.0424 4.12624 17.9989 4.0667 17.9244 3.98931C17.9211 3.98596 17.9174 3.98224 17.9136 3.97852C17.9099 3.97443 17.9062 3.9707 17.9025 3.96698C17.6253 3.6894 16.9905 3.24326 16.3795 4.15973H16.3791C16.3791 4.15973 16.3784 4.15861 16.378 4.15787C16.3773 4.1575 16.3769 4.15675 16.3758 4.15563C16.375 4.15489 16.3743 4.15377 16.3732 4.15266C16.3721 4.15154 16.371 4.15043 16.3695 4.14894C16.3683 4.14745 16.3669 4.14596 16.3654 4.14447C16.2735 4.04922 15.7336 3.54057 14.6846 3.51526C13.242 3.48029 12.6095 4.23936 12.6095 5.05498C12.6095 5.51563 12.8111 5.99415 13.1821 6.35805C13.1944 6.36996 13.207 6.38224 13.2197 6.39377C13.232 6.40568 13.2446 6.41722 13.2576 6.42875C13.2193 6.42019 11.9881 6.14075 11.4348 6.7361C11.2673 6.91619 11.0828 7.3188 11.0828 7.72587C11.0828 7.98336 11.1564 8.2427 11.3551 8.44847C11.4746 8.57201 11.6387 8.67619 11.8586 8.7495C11.6279 8.82689 11.4519 8.98317 11.4519 9.27936C11.4519 9.32103 11.4552 9.36531 11.4627 9.41257C11.4865 9.56773 11.5449 9.68159 11.626 9.76308C12.0539 10.1928 13.1155 9.72773 13.1155 9.72773C13.1657 10.4965 13.2219 11.4033 13.2271 11.4922C13.319 11.4721 13.4143 11.4613 13.5114 11.4613C13.8247 11.4613 14.1142 11.6105 14.3479 11.8029C14.4811 11.8353 14.6121 11.8766 14.7416 11.9331C14.8007 11.9588 14.8606 11.9878 14.9049 12.0351C14.925 12.0563 14.9648 12.0883 14.9648 12.0429V12.0377L14.9224 11.2667C14.9209 11.2399 14.9202 11.2131 14.9202 11.1863C14.9202 10.9091 14.999 10.6364 15.1479 10.4012L15.2777 10.1966C15.3347 10.1069 15.3633 10.0046 15.3633 9.90224C15.3633 9.80847 15.3391 9.71433 15.2908 9.62987L15.1248 9.33889C15.0749 9.25182 15.0519 9.15805 15.0519 9.06652C15.0519 8.83024 15.2052 8.60587 15.4537 8.53629C16.8848 8.13666 20.2247 7.40103 21.7001 8.74019L22.2355 10.1813L22.2366 10.1839C22.2366 10.1839 22.4126 9.70094 22.4126 9.17182C22.4126 9.00252 22.3944 8.82801 22.3468 8.66317C22.5425 8.42391 22.6113 8.21145 22.6113 8.03061Z" fill="#541B0A"/>
<path d="M15.6305 28.3505C15.5367 28.6497 15.4381 28.9581 15.2327 29.1952C15.1721 29.2655 15.1033 29.3265 15.03 29.3827L15.0113 28.0956L14.9961 27.0195C15.0169 27.0233 15.0378 27.0266 15.0586 27.0303C15.1163 27.0415 15.1747 27.053 15.232 27.0683C15.3444 27.098 15.4523 27.1408 15.5397 27.216C15.8452 27.4791 15.7511 27.9658 15.6305 28.3505Z" fill="#009F62"/>
<path d="M17.7742 29.1572L17.7284 32.3464C17.5967 32.1887 17.4739 32.0216 17.3221 31.8839C17.0657 31.6514 16.7315 31.5059 16.5135 31.2372C16.1284 30.7639 16.243 30.0056 16.6765 29.5762C17.0348 29.2216 17.3909 29.158 17.7742 29.1572Z" fill="#009F62"/>
<path d="M6.75609 36.7712H-0.787354L-0.784005 30.4806L3.1133 24.76L4.00744 23.4473L4.33786 23.9544L5.63981 25.9537C6.14176 26.6975 6.42455 27.5671 6.45693 28.4638L6.75609 36.7712Z" fill="#FF6060"/>
<path d="M15.0298 29.383L14.996 27.0199L14.9833 26.1362C14.9763 25.9929 14.8702 25.8742 14.7288 25.8511L14.5867 25.8277L13.7744 25.6949L13.2996 25.6171C13.1444 25.5918 12.9941 25.5497 12.8516 25.4921C12.2008 25.232 11.7089 24.6616 11.5593 23.9561L11.3941 22.7568L11.2036 21.376L5.92919 22.1224C5.19951 22.2381 4.55021 22.6497 4.13421 23.2603L4.00732 23.4467L4.33774 23.9538L5.6397 25.9531C6.14165 26.6969 6.42444 27.5665 6.45681 28.4632L6.75598 36.7706H15.1355L15.0298 29.383ZM11.4276 27.0173C11.3625 27.9635 10.5424 28.6776 9.59653 28.6124C8.6503 28.5473 7.93625 27.7276 8.00137 26.7814C8.06649 25.8351 8.88621 25.1211 9.83244 25.1862C10.7787 25.2513 11.4927 26.0714 11.4276 27.0173Z" fill="#735FFF"/>
<path d="M20.7055 20.897L20.3978 24.3176C20.365 24.6815 20.2445 25.032 20.0473 25.3394L19.949 25.4919C19.8062 25.5496 19.6562 25.5917 19.501 25.617L19.0259 25.6947L19.4162 25.0882C19.6138 24.7812 19.7343 24.4307 19.7671 24.0672L20.0819 20.5654L20.7055 20.897Z" fill="white"/>
<path d="M19.2488 22.8789L19.2227 23.1658L18.9861 22.9548C19.0319 22.8897 19.0739 22.8234 19.1115 22.7568L19.2488 22.8789Z" fill="#FFAC00"/>
<path d="M19.2226 23.1661L19.1445 24.0353C19.1207 24.3006 19.0329 24.5566 18.8885 24.7802L18.8669 24.8133C18.634 24.9368 18.3728 25.0429 18.0788 25.1255L17.7097 23.8626C18.3192 23.6695 18.7214 23.3309 18.986 22.9551L19.2226 23.1661Z" fill="#DD920B"/>
<path d="M18.867 24.8128L18.214 25.8275L18.0718 25.851C17.9304 25.874 17.8244 25.9927 17.8173 26.136L17.7741 29.1567C17.3909 29.1574 17.0348 29.221 16.6765 29.5756C16.243 30.005 16.1284 30.7634 16.5135 31.2367C16.7315 31.5053 17.0657 31.6508 17.3221 31.8834C17.4739 32.021 17.5967 32.1881 17.7284 32.3459L17.6651 36.7704H15.1356L15.03 29.3829C15.1033 29.3267 15.1721 29.2657 15.2328 29.1954C15.4381 28.9583 15.5368 28.6499 15.6305 28.3507C15.7511 27.966 15.8452 27.4793 15.5397 27.2162C15.4523 27.141 15.3444 27.0982 15.232 27.0685C15.1747 27.0532 15.1163 27.0417 15.0586 27.0305C15.0378 27.0268 15.0169 27.0234 14.9961 27.0197L14.9835 26.136C14.9764 25.9927 14.8703 25.874 14.7289 25.851L14.5868 25.8275L13.9122 24.7797C13.9048 24.7686 13.8984 24.7567 13.8914 24.7451C14.147 24.8876 14.4383 25.0097 14.771 25.1046C14.9459 25.1548 15.1323 25.1972 15.331 25.2311C15.4058 25.2441 15.4828 25.2556 15.5613 25.2657C15.8482 25.3033 16.1589 25.3234 16.4949 25.3234C17.0073 25.3234 17.4579 25.2727 17.8545 25.182C17.9315 25.1645 18.006 25.1455 18.0789 25.125C18.3728 25.0424 18.6341 24.9364 18.867 24.8128Z" fill="#FFAC00"/>
<path d="M14.0496 23.1035L13.6083 23.5046L13.4858 22.1416C13.5975 22.4564 13.7731 22.798 14.0496 23.1035Z" fill="#DD920B"/>
<path d="M14.2121 23.267L13.6342 23.7924L13.6082 23.5037L14.0495 23.1025C14.1001 23.1587 14.154 23.2138 14.2121 23.267Z" fill="#FFAC00"/>
<path d="M15.6875 23.9645L15.331 25.2315C14.7554 25.1336 14.2817 24.9628 13.8914 24.7455C13.7597 24.5301 13.6786 24.2871 13.6562 24.0352L13.6343 23.793L14.2121 23.2676C14.5578 23.5861 15.0333 23.8466 15.6875 23.9645Z" fill="#DD920B"/>
<g style="mix-blend-mode:multiply" opacity="0.6">
<path d="M15.2524 26.9727L15.2319 27.0683L15.0113 28.0957L14.996 27.0196L14.9833 26.1358C14.9763 25.9926 14.8702 25.8739 14.7288 25.8508L14.5867 25.8274L13.7744 25.6945L13.2996 25.6168C13.1445 25.5915 12.9941 25.5494 12.8516 25.4918C12.6756 25.4214 12.5112 25.3284 12.3619 25.216L11.6509 23.2919L12.2864 23.024L12.916 22.7587L13.5184 22.5046L13.9326 22.3301C13.9326 22.3301 14.1618 23.8798 14.7709 25.1044C14.8434 25.2503 14.9216 25.3913 15.0053 25.5249C15.2747 25.9554 15.3592 26.4763 15.2524 26.9727Z" fill="#AF750E"/>
</g>
<path d="M15.9178 23.9994L15.5614 25.2664C15.4829 25.2564 15.4058 25.2448 15.3311 25.2318L15.6875 23.9648C15.7619 23.9782 15.8386 23.9898 15.9178 23.9994Z" fill="#FFAC00"/>
<path d="M17.8545 25.1819C17.4578 25.2727 17.0072 25.3233 16.4949 25.3233C16.1589 25.3233 15.8482 25.3032 15.5613 25.2656L15.9177 23.9986C16.0975 24.0206 16.2895 24.0321 16.4949 24.0321C16.8707 24.0321 17.1996 23.993 17.4872 23.9238L17.8545 25.1819Z" fill="#DD920B"/>
<path d="M12.8516 25.4924C12.6756 25.4221 12.5112 25.3291 12.362 25.2167C11.9597 24.9138 11.6684 24.471 11.5593 23.9564L11.2036 21.3763L11.2029 21.3711L12.0952 20.8975L12.2864 23.0247L12.4029 24.3181C12.4356 24.682 12.5562 25.0325 12.7534 25.3399L12.8516 25.4924Z" fill="#735FFF"/>
<path d="M13.7745 25.6947L13.2997 25.617C13.1445 25.5917 12.9942 25.5496 12.8517 25.4919L12.7534 25.3394C12.5562 25.032 12.4357 24.6815 12.4029 24.3176L12.2865 23.0242L12.0952 20.897L12.7188 20.5654L12.9161 22.7589L13.0336 24.0672C13.0664 24.4307 13.1866 24.7812 13.3845 25.0882L13.7745 25.6947Z" fill="white"/>
<path d="M14.5869 25.8278L13.7746 25.695L13.3847 25.0885C13.1867 24.7815 13.0665 24.431 13.0338 24.0674L12.9162 22.7592L12.719 20.5657L13.3155 20.249L13.3196 20.2952L13.4859 22.1411L13.5186 22.505L13.6083 23.5041L13.6343 23.7928L13.6563 24.0351C13.6786 24.287 13.7597 24.53 13.8915 24.7454C13.8985 24.7569 13.9049 24.7688 13.9123 24.78L14.5869 25.8278Z" fill="#735FFF"/>
<path d="M28.8397 23.45L28.5822 23.8452L27.2092 25.9535C26.7073 26.6973 26.4245 27.5669 26.3921 28.4636L26.0929 36.771H17.665L17.7283 32.3464L17.7741 29.1572L17.8172 26.1365C17.8243 25.9933 17.9303 25.8746 18.0717 25.8515L18.2139 25.8281L19.0258 25.6952L19.5009 25.6175C19.6561 25.5922 19.8061 25.5501 19.9489 25.4924C20.5997 25.2323 21.0916 24.6619 21.2412 23.9564L21.4935 22.1235L21.5966 21.376L26.9086 22.1332C27.5999 22.2426 28.2209 22.6184 28.6388 23.1799L28.8397 23.45Z" fill="#735FFF"/>
<path d="M35.5669 32.4909V36.7711H26.093L26.3922 28.4638C26.4246 27.567 26.7073 26.6975 27.2093 25.9536L28.5823 23.8454L28.8398 23.4502L29.84 24.7942L35.5669 32.4909Z" fill="#FF6060"/>
<path d="M20.0818 20.5657L19.767 24.0674C19.7342 24.431 19.6137 24.7815 19.4161 25.0885L19.0258 25.695L18.2139 25.8278L18.8669 24.8131L18.8885 24.78C19.0328 24.5564 19.1207 24.3004 19.1445 24.0351L19.2226 23.1659L19.2487 22.879L19.2955 22.358L19.482 20.2836L19.4853 20.249L20.0818 20.5657Z" fill="#735FFF"/>
<path d="M18.0789 25.1252C18.006 25.1457 17.9316 25.1646 17.8546 25.1821L17.4873 23.9241C17.5643 23.9058 17.6387 23.885 17.7098 23.8623L18.0789 25.1252Z" fill="#FFAC00"/>
<path d="M21.5973 21.3711L21.5966 21.376L21.2413 23.9564C21.0917 24.6619 20.5998 25.2323 19.949 25.4924L20.0472 25.3399C20.2444 25.0325 20.365 24.682 20.3977 24.3181L20.7054 20.8975L21.5973 21.3711Z" fill="#735FFF"/>
<path d="M9.83251 25.1867C8.88627 25.1216 8.06655 25.8357 8.00144 26.7819C7.93632 27.7281 8.65037 28.5479 9.5966 28.613C10.5425 28.6781 11.3626 27.964 11.4277 27.0178C11.4928 26.0719 10.7787 25.2519 9.83251 25.1867ZM8.50897 26.8883C8.4699 26.8853 8.44013 26.8515 8.44311 26.8124C8.44572 26.773 8.47958 26.7436 8.51902 26.7462C8.55809 26.7488 8.58786 26.7826 8.58488 26.8221C8.58227 26.8612 8.54841 26.8909 8.50897 26.8883ZM9.84925 28.0016C9.84106 28.1173 9.74097 28.2048 9.62525 28.197C9.50953 28.1888 9.42209 28.0887 9.43027 27.973C9.43809 27.8573 9.53855 27.7698 9.6539 27.778C9.76962 27.7858 9.85706 27.8863 9.84925 28.0016ZM10.9101 27.0535C10.871 27.0509 10.8413 27.0171 10.8442 26.9776C10.8468 26.9386 10.8807 26.9088 10.9201 26.9114C10.9592 26.9144 10.989 26.9482 10.986 26.9877C10.9834 27.0267 10.9495 27.0565 10.9101 27.0535Z" fill="#DAD7FF"/>
<path d="M8.58484 26.8222C8.58224 26.8612 8.54838 26.891 8.50894 26.8884C8.46987 26.8854 8.4401 26.8516 8.44308 26.8125C8.44568 26.773 8.47954 26.7436 8.51898 26.7463C8.55805 26.7489 8.58782 26.7827 8.58484 26.8222Z" fill="white"/>
<path d="M9.95459 26.9893C9.95682 26.9945 9.95905 26.9993 9.96129 27.0045H9.96092C9.95868 26.9997 9.95645 26.9945 9.95459 26.9893Z" fill="#FFAC00"/>
<path d="M10.7022 26.3596L10.1273 26.8605C10.0849 26.715 10.0097 26.5888 9.89062 26.4873L10.4153 26.0303C10.4718 25.9812 10.5574 25.9872 10.6069 26.0437L10.7152 26.168C10.7647 26.2246 10.7587 26.3105 10.7022 26.3596Z" fill="#FFAC00"/>
<path d="M9.69864 27.1575C9.61975 27.1839 9.54645 27.2248 9.48357 27.2795L8.92171 27.7692C8.8752 27.8098 8.8045 27.8049 8.76357 27.7581C8.72301 27.7115 8.72785 27.6408 8.77473 27.6003L9.3392 27.1084C9.38496 27.0686 9.42441 27.0221 9.45678 26.9707L9.4765 26.9934C9.53194 27.0574 9.60003 27.1091 9.67631 27.146L9.68896 27.1523C9.69231 27.1538 9.69529 27.156 9.69864 27.1575Z" fill="#FFAC00"/>
<path d="M10.5387 27.8803C10.4918 27.9209 10.4212 27.9161 10.3806 27.8695L9.88869 27.3047C9.83548 27.2437 9.77073 27.1938 9.69855 27.1574C9.6952 27.1559 9.69222 27.1536 9.68887 27.1522L9.67622 27.1458C9.59994 27.109 9.53185 27.0573 9.47641 26.9933L9.45669 26.9706L8.81036 26.229C8.76125 26.1724 8.7672 26.0865 8.82376 26.0374L8.94804 25.9291C9.00459 25.8796 9.09055 25.8855 9.13966 25.9421L9.73352 26.6238L9.80831 26.7094C9.86524 26.7748 9.90841 26.8519 9.93408 26.9348C9.94152 26.9587 9.95083 26.9821 9.96087 27.0048C9.98618 27.061 10.0193 27.1138 10.0602 27.1603L10.5495 27.7226C10.5901 27.7691 10.5852 27.8398 10.5387 27.8803Z" fill="#FFAC00"/>
<path d="M9.8492 28.0015C9.84101 28.1172 9.74092 28.2047 9.6252 28.1968C9.50948 28.1887 9.42203 28.0886 9.43022 27.9729C9.43803 27.8571 9.5385 27.7697 9.65385 27.7779C9.76957 27.7857 9.85701 27.8862 9.8492 28.0015Z" fill="#A39CFF"/>
<path d="M10.986 26.9876C10.9834 27.0266 10.9495 27.0564 10.9101 27.0534C10.871 27.0508 10.8412 27.017 10.8442 26.9775C10.8468 26.9385 10.8807 26.9087 10.9201 26.9113C10.9592 26.9143 10.9889 26.9481 10.986 26.9876Z" fill="white"/>
<path d="M21.0512 17.246C20.8592 17.3636 20.6457 17.4562 20.4075 17.5187C20.2728 17.5544 20.1307 17.5805 19.9804 17.5965C19.8096 17.6143 19.6432 17.6255 19.4821 17.63V20.2834L19.2957 22.3578C19.247 22.4899 19.1867 22.6246 19.1115 22.7567C19.0739 22.8233 19.0319 22.8895 18.9861 22.9546C18.7216 23.3304 18.3193 23.669 17.7099 23.8622C17.6388 23.8849 17.5644 23.9057 17.4873 23.9239C17.1997 23.9931 16.8708 24.0322 16.495 24.0322C16.2896 24.0322 16.0976 24.0207 15.9179 23.9987C15.8386 23.989 15.7619 23.9775 15.6875 23.9641C15.0334 23.8462 14.5579 23.5857 14.2122 23.2672C14.1541 23.214 14.1002 23.1589 14.0496 23.1027C13.7731 22.7972 13.5975 22.4557 13.4859 22.1409L13.3195 20.2949L13.5257 14.6707C13.5536 14.6767 13.5826 14.6804 13.612 14.6804C13.833 14.6804 14.0124 14.501 14.0124 14.28C14.0124 14.059 13.833 13.88 13.612 13.88C13.391 13.88 13.212 14.059 13.212 14.28C13.212 14.3455 13.228 14.4073 13.2559 14.462C12.5999 14.3329 12.1028 13.7159 12.1028 12.974C12.1028 12.9189 12.1054 12.8646 12.111 12.8114C12.1255 12.6674 12.1586 12.5293 12.2077 12.4006C12.2974 12.1654 12.4406 11.9604 12.6207 11.8023C12.7759 11.6661 12.9582 11.5649 13.158 11.5094C13.1651 11.5076 13.1718 11.5057 13.1789 11.5038C13.1949 11.4994 13.2109 11.4957 13.2272 11.4919C13.3192 11.4718 13.4144 11.461 13.5115 11.461C13.5193 11.461 13.5294 11.461 13.5398 11.4618C13.6127 11.464 13.6842 11.4737 13.7538 11.4904C13.8706 11.5184 13.9826 11.5649 14.0875 11.6237C14.1802 11.675 14.2676 11.736 14.348 11.8026C14.4812 11.835 14.6122 11.8763 14.7417 11.9329C14.8008 11.9585 14.8607 11.9876 14.905 12.0348C14.9259 12.0568 14.9679 12.0903 14.9649 12.0374C14.9649 12.037 14.9225 11.2664 14.9225 11.2664C14.9058 10.9617 14.9846 10.6588 15.148 10.401L15.2779 10.1963C15.2842 10.1866 15.2898 10.1766 15.2953 10.1665C15.3872 9.99984 15.3865 9.7963 15.2909 9.62961L15.1249 9.33863C14.9471 9.02756 15.1089 8.6324 15.4539 8.53602C16.0853 8.35965 17.0873 8.11816 18.1374 8.01807H18.1381C19.2072 7.91612 20.3253 7.96077 21.1513 8.37044H21.1517C21.2005 8.395 21.2477 8.4203 21.2942 8.44709C21.4412 8.53119 21.5774 8.6283 21.7002 8.73993L22.2356 10.181C22.2512 10.2462 22.2661 10.3117 22.2795 10.3771C22.6635 12.2264 23.007 16.0467 21.0512 17.246Z" fill="#C16D53"/>
<path d="M18.0008 11.6494C18.1026 11.642 18.1733 11.4731 18.1586 11.2723C18.144 11.0714 18.0495 10.9146 17.9476 10.9221C17.8458 10.9295 17.7751 11.0984 17.7898 11.2992C17.8044 11.5001 17.8989 11.6569 18.0008 11.6494Z" fill="#231F20"/>
<path d="M21.2491 11.5088C21.3509 11.5014 21.4216 11.3325 21.4069 11.1316C21.3923 10.9308 21.2978 10.774 21.1959 10.7814C21.094 10.7889 21.0234 10.9577 21.0381 11.1586C21.0527 11.3595 21.1472 11.5162 21.2491 11.5088Z" fill="#231F20"/>
<g style="mix-blend-mode:screen">
<path d="M21.0512 17.2466C20.8592 17.3642 20.6456 17.4569 20.4075 17.5194C21.5662 17.0833 22.0339 15.1067 22.0302 13.2522C22.0264 11.327 21.4549 9.26263 21.1513 8.37109C21.2983 8.45519 21.5773 8.62895 21.7001 8.74058L22.2356 10.1817C22.2512 10.2468 22.2661 10.3123 22.2795 10.3778C22.6635 12.2271 23.0069 16.0474 21.0512 17.2466Z" fill="#E5765C"/>
</g>
<path d="M19.4821 17.63C19.4821 17.63 16.7803 17.9165 15.0557 15.4053C15.0557 15.4053 15.6101 19.4187 19.4821 19.9545V17.63Z" fill="#843928"/>
<path d="M22.2988 6.51643C22.2988 7.00871 22.2262 7.35327 22.2262 7.35327C22.1213 4.06545 18.8123 3.27513 18.8123 3.27513H18.8126C19.5404 2.88517 20.4848 3.20704 21.3384 3.99141C21.376 4.02601 21.4121 4.06099 21.4467 4.09671C22.1529 4.8249 22.2988 5.81876 22.2988 6.51643Z" fill="#872F1B"/>
<path d="M17.7402 6.29225C17.7402 6.29225 19.383 7.41783 20.4907 5.9209C20.4907 5.9209 20.3728 6.87271 19.7268 7.23439C19.2245 7.51606 18.2515 7.43867 17.7402 6.29225Z" fill="#872F1B"/>
<path d="M20.1074 6.61133C20.1074 6.61133 20.5364 7.13747 21.3368 6.7877C21.3368 6.7877 20.2801 7.63979 20.1074 6.61133Z" fill="#872F1B"/>
<path d="M22.8521 31.378V30.9549H23.0958L22.6315 29.8011H22.1083V30.9549H22.3915V31.378H21.3965V30.9549H21.6852V28.2297H21.3965V27.8066H23.4743L23.7143 28.0515V29.5614L23.4746 29.8011H23.043L23.5074 30.9549H23.8471V31.378H22.8521ZM22.1083 29.378H23.2971V28.2297H22.1083V29.378Z" fill="#DAD7FF"/>
<g style="mix-blend-mode:soft-light">
<path d="M29.8412 24.8134L28.5824 23.8452L28.0384 23.4266C27.6633 23.1382 27.2205 22.9514 26.7524 22.8837L21.4937 22.1235L21.5967 21.376L26.9087 22.1332C27.6001 22.2426 28.2211 22.6184 28.639 23.1799L28.8399 23.45L29.8401 24.794L29.8412 24.8134Z" fill="white"/>
</g>
<g style="mix-blend-mode:soft-light">
<path d="M11.3354 22.331L6.53207 22.8225C5.64463 22.9133 4.80742 23.2776 4.13617 23.8651L3.11328 24.7604L4.00742 23.4477L4.1343 23.2612C4.5503 22.6506 5.19961 22.2391 5.92928 22.1234L11.2037 21.377L11.3354 22.3314V22.331Z" fill="white"/>
</g>
<g style="mix-blend-mode:screen">
<path d="M14.1273 11.7966C14.022 11.9048 13.6484 11.9324 13.5599 11.9205C13.3597 11.8929 13.1532 11.8394 12.9593 11.897C12.7636 11.9551 12.6185 12.1158 12.4529 12.2356C12.4354 12.2483 12.4172 12.2606 12.396 12.2639C12.2646 12.2851 12.3457 12.124 12.374 12.0816C12.4428 11.9781 12.5273 11.884 12.6207 11.8021C12.665 11.7791 12.7089 11.7545 12.7513 11.7251C12.8868 11.6317 13.0028 11.5554 13.158 11.5093C13.1651 11.5074 13.1718 11.5056 13.1788 11.5037C13.1948 11.4993 13.2108 11.4955 13.2272 11.4918C13.3191 11.4717 13.4144 11.4609 13.5115 11.4609C13.5576 11.4609 13.6518 11.4695 13.7537 11.4903C13.8784 11.5153 14.0142 11.5577 14.0875 11.6235C14.1682 11.6961 14.1697 11.753 14.1273 11.7966Z" fill="#E5765C"/>
</g>
<path d="M22.2578 28.3848V29.2283H23.1415V28.3848H22.2578ZM23.0548 29.1416H22.3445V28.4715H23.0548V29.1416Z" fill="white"/>
<path d="M23.6733 30.713L23.3957 30.0429H23.575L23.9561 29.6615V27.9517L23.575 27.5703H21.1602V28.4715H21.4433V30.713H21.1602V31.6142H24.0889V30.713H23.6733ZM24.0026 31.5275H22.7025V30.7997H22.8759L22.5295 29.9562H22.2578V30.7997H22.5466V31.5275H21.2469V30.7997H21.53V28.3848H21.2469V27.657H23.5404L23.8694 27.9863V29.6269L23.5404 29.9562H23.2688L23.6096 30.7997H24.0026V31.5275ZM22.3445 30.713V30.0429H22.4714L22.743 30.713H22.3445Z" fill="white"/>
<path d="M22.2578 28.3848V29.2283H23.1415V28.3848H22.2578ZM23.0548 29.1416H22.3445V28.4715H23.0548V29.1416Z" fill="white"/>
<path d="M22.2578 28.3848V29.2283H23.1415V28.3848H22.2578ZM23.0548 29.1416H22.3445V28.4715H23.0548V29.1416Z" fill="white"/>
<g style="mix-blend-mode:soft-light">
<path d="M13.3193 20.2949L13.4611 21.8008L11.3298 22.3515L11.2036 21.3759L13.3193 20.2949Z" fill="white"/>
</g>
<g style="mix-blend-mode:soft-light">
<path d="M19.482 20.2832L19.3633 21.7109L21.4935 22.1228L21.5966 21.3753L19.482 20.2832Z" fill="white"/>
</g>
<path d="M13.256 14.5181C13.2523 14.5181 13.249 14.5181 13.2453 14.5169C12.5509 14.3804 12.0471 13.7314 12.0471 12.9742C12.0471 12.217 12.5387 11.5867 13.2155 11.4379C13.2456 11.4312 13.2754 11.4501 13.2821 11.4803C13.2888 11.5104 13.2698 11.5402 13.2397 11.5469C12.6134 11.6846 12.1591 12.2851 12.1591 12.9746C12.1591 13.6641 12.625 14.2814 13.2672 14.4079C13.2974 14.4139 13.3171 14.4433 13.3111 14.4734C13.3059 14.5002 13.2825 14.5184 13.2564 14.5184L13.256 14.5181Z" fill="#231F20"/>
<path d="M14.4139 11.915C14.4005 11.915 14.3875 11.9102 14.3767 11.9009C14.1814 11.7256 13.8729 11.5169 13.5112 11.5169C13.4197 11.5169 13.3282 11.5269 13.2388 11.5463C13.2087 11.553 13.1789 11.534 13.1722 11.5039C13.1655 11.4737 13.1845 11.444 13.2147 11.4373C13.3114 11.4161 13.4111 11.4053 13.5108 11.4053C13.9075 11.4053 14.2409 11.6296 14.4508 11.8179C14.4738 11.8384 14.4757 11.8737 14.4548 11.8968C14.4437 11.9091 14.4284 11.9154 14.4132 11.9154L14.4139 11.915Z" fill="#231F20"/>
<path d="M13.2583 13.7547C13.2409 13.7547 13.2237 13.7465 13.2126 13.7312C13.1947 13.7059 13.2007 13.6713 13.226 13.6535C13.2293 13.6512 13.5545 13.4175 13.5847 13.1876C13.5932 13.1214 13.5757 13.0633 13.5315 13.0101C13.4325 12.8914 13.2941 12.958 13.1169 13.0953C13.108 13.1024 13.0965 13.1117 13.0827 13.1229C12.9476 13.2337 12.8077 13.3383 12.7106 13.2884C12.6589 13.262 12.6358 13.2014 12.6418 13.108C12.6541 12.916 12.714 12.7277 12.8144 12.564C12.8996 12.4255 13.002 12.3251 13.1188 12.2659C13.3648 12.1413 13.6628 12.1956 13.9222 12.2655C13.9519 12.2737 13.9694 12.3042 13.9616 12.334C13.9538 12.3638 13.9233 12.3813 13.8931 12.3735C13.6542 12.3091 13.3811 12.2581 13.169 12.3656C13.0708 12.4155 12.9834 12.5018 12.9093 12.6228C12.8182 12.7712 12.7638 12.9416 12.753 13.1154C12.7493 13.1761 12.7616 13.1895 12.762 13.1895C12.7772 13.1962 12.8312 13.1854 13.012 13.0369C13.0265 13.025 13.0392 13.0146 13.0489 13.0071C13.1627 12.9193 13.4291 12.7132 13.6174 12.939C13.6822 13.0164 13.7082 13.1054 13.6956 13.2029C13.6591 13.4815 13.3056 13.7346 13.2907 13.7454C13.281 13.7524 13.2695 13.7558 13.2583 13.7558V13.7547Z" fill="#231F20"/>
<path d="M20.2391 13.2344C20.2227 13.2344 20.2052 13.2325 20.187 13.2288C20.0162 13.1931 19.8655 13.1068 19.7282 13.019C19.7021 13.0022 19.6947 12.968 19.7111 12.9419C19.7274 12.9159 19.7624 12.9084 19.7881 12.9248C19.9165 13.007 20.0564 13.0874 20.2093 13.1194C20.2867 13.1354 20.3477 13.0856 20.4132 12.9524C20.587 12.5981 20.4352 12.1267 20.264 11.7125C20.1524 11.4424 20.0203 11.1853 19.8718 10.9479C19.8554 10.9218 19.8632 10.8872 19.8893 10.8709C19.9153 10.8545 19.9499 10.8623 19.9663 10.8884C20.1181 11.131 20.2532 11.3937 20.3671 11.6697C20.5479 12.1073 20.7064 12.6074 20.5133 13.0015C20.4805 13.0681 20.3991 13.2344 20.2387 13.2344H20.2391Z" fill="#231F20"/>
<path d="M18.9903 14.8468C18.3771 14.8468 17.883 14.3847 17.7021 14.1904C17.6813 14.1677 17.6824 14.1324 17.7051 14.1116C17.7278 14.0907 17.7632 14.0918 17.784 14.1145C18.7399 15.1445 19.5429 14.6418 19.8439 14.378C19.867 14.3575 19.9023 14.3601 19.9228 14.3832C19.9432 14.4063 19.9406 14.4416 19.9176 14.4621C19.5957 14.7445 19.2798 14.8472 18.9903 14.8472V14.8468Z" fill="#231F20"/>
<path d="M17.7431 14.2085C17.7219 14.2085 17.7015 14.1962 17.6922 14.1754C17.6795 14.1471 17.6922 14.1143 17.7204 14.1017C17.8034 14.0648 17.8737 14.0094 17.9296 13.9368C17.9482 13.9123 17.9835 13.9078 18.0077 13.9268C18.0323 13.9458 18.0367 13.9807 18.0177 14.0049C17.9504 14.0924 17.8659 14.159 17.7658 14.2036C17.7584 14.207 17.7506 14.2085 17.7431 14.2085Z" fill="#231F20"/>
<path d="M17.4659 14.2657C17.425 14.2657 17.3993 14.2623 17.3967 14.262C17.3662 14.2575 17.345 14.2292 17.3495 14.1987C17.3539 14.1682 17.3822 14.147 17.4127 14.1514C17.4142 14.1514 17.5645 14.1712 17.7208 14.1016C17.7491 14.0889 17.7818 14.1016 17.7945 14.1299C17.8071 14.1581 17.7945 14.1909 17.7662 14.2035C17.6486 14.256 17.5355 14.2661 17.4663 14.2661L17.4659 14.2657Z" fill="#231F20"/>
<path d="M13.2272 11.5476C13.1978 11.5476 13.1732 11.5249 13.1714 11.4951L13.1706 11.4817C13.1524 11.1892 13.107 10.4573 13.0649 9.80841C12.8376 9.89696 12.1414 10.1336 11.7209 9.90255C11.5475 9.80729 11.4422 9.64506 11.4076 9.42069C11.3518 9.06013 11.5018 8.80971 11.8408 8.69622C11.8698 8.68655 11.9018 8.70217 11.9115 8.73157C11.9211 8.76096 11.9055 8.79259 11.8761 8.80227C11.5874 8.89901 11.4701 9.09585 11.5178 9.40394C11.5472 9.59482 11.6313 9.72617 11.7745 9.80468C12.2236 10.0514 13.0847 9.68003 13.0932 9.67631C13.11 9.66887 13.1289 9.67036 13.1446 9.67966C13.1602 9.68896 13.1699 9.70571 13.1714 9.72357C13.2145 10.3911 13.2633 11.1703 13.2822 11.4746L13.283 11.4884C13.2848 11.5193 13.2614 11.5457 13.2309 11.5476C13.2298 11.5476 13.2287 11.5476 13.2275 11.5476H13.2272Z" fill="#231F20"/>
<path d="M11.8584 8.80482C11.835 8.80482 11.8134 8.78994 11.8056 8.76687C11.7959 8.73747 11.8115 8.70585 11.8409 8.69617C12.2889 8.54585 12.9189 8.67943 12.9457 8.68538C12.9758 8.69208 12.9948 8.72147 12.9885 8.75161C12.9822 8.78175 12.9524 8.8011 12.9222 8.7944C12.9159 8.79292 12.2953 8.66157 11.8767 8.80222C11.8707 8.80408 11.8648 8.8052 11.8588 8.8052L11.8584 8.80482Z" fill="#231F20"/>
<path d="M14.9516 12.1218C14.9289 12.1218 14.8992 12.1106 14.8642 12.073C14.8262 12.0325 14.7719 12.0068 14.7194 11.9841C14.6011 11.9327 14.4753 11.8911 14.3351 11.8572C14.3049 11.8501 14.2867 11.8196 14.2938 11.7899C14.3008 11.7601 14.331 11.7415 14.3611 11.7486C14.5081 11.7839 14.6398 11.8278 14.7641 11.8818C14.8098 11.9015 14.8605 11.9253 14.9051 11.9599C14.8939 11.7597 14.8672 11.27 14.8672 11.27C14.8497 10.9515 14.9304 10.6408 15.1012 10.3718L15.2311 10.1668C15.3293 10.012 15.3338 9.81703 15.2426 9.65777L15.0763 9.36679C14.9829 9.20344 14.9702 9.00996 15.0417 8.83582C15.1131 8.66205 15.2578 8.5333 15.4387 8.4827C16.8322 8.09349 20.2353 7.33554 21.7375 8.69926C21.7442 8.70521 21.749 8.71265 21.7524 8.72121L22.2878 10.162C22.2986 10.191 22.2837 10.223 22.2551 10.2338C22.226 10.2446 22.194 10.2297 22.1832 10.201L21.6523 8.77293C20.1862 7.45907 16.8411 8.20698 15.4685 8.59023C15.3207 8.63154 15.2028 8.73647 15.1447 8.87824C15.0863 9.02037 15.0967 9.17814 15.173 9.31135L15.3393 9.60233C15.451 9.79768 15.4454 10.0366 15.3248 10.2267L15.195 10.4317C15.0368 10.6814 14.9617 10.969 14.978 11.2641C15.0066 11.7788 15.0208 12.0368 15.0208 12.038C15.0238 12.0913 14.9922 12.111 14.9784 12.1166C14.971 12.1195 14.962 12.1221 14.952 12.1221L14.9516 12.1218Z" fill="#231F20"/>
<path d="M22.2365 10.2392C22.2135 10.2392 22.1926 10.225 22.1845 10.2031C22.1785 10.1878 22.18 10.1711 22.1867 10.1573C22.2146 10.0766 22.4736 9.29963 22.2931 8.67823C22.2879 8.66075 22.292 8.6414 22.3035 8.62726C22.5 8.38689 22.5822 8.15247 22.5476 7.93033C22.4963 7.59879 22.1986 7.40158 22.1956 7.39972C22.1763 7.38707 22.1666 7.364 22.1714 7.3413C22.1759 7.32047 22.5986 5.2241 21.3007 4.03191C20.5818 3.37144 19.8436 3.07191 19.2215 3.18875C18.7463 3.27805 18.3675 3.60326 18.0966 4.15544C18.0881 4.17293 18.0706 4.18484 18.0512 4.18633C18.0312 4.18819 18.0125 4.17926 18.0014 4.16326C17.9977 4.15805 17.6308 3.65721 17.1731 3.66577C16.9059 3.67061 16.6548 3.84698 16.4259 4.18968C16.4163 4.20419 16.4006 4.21312 16.3832 4.21461C16.366 4.21572 16.3489 4.20865 16.3374 4.19563C16.3363 4.19414 16.2031 4.04419 15.9337 3.89312C15.6855 3.75358 15.2669 3.58465 14.6831 3.57051C13.7123 3.5467 13.0116 3.89982 12.7608 4.53796C12.5208 5.14856 12.7359 5.89163 13.2955 6.38651C13.3145 6.40363 13.3197 6.43117 13.3082 6.45386C13.2963 6.47656 13.2706 6.48847 13.2457 6.48251C13.2334 6.47954 12.0085 6.19972 11.4756 6.77349C11.2725 6.99228 11.0537 7.54223 11.1724 8.00586C11.2572 8.33665 11.4938 8.56884 11.876 8.69609C11.9054 8.70577 11.921 8.7374 11.9113 8.76679C11.9017 8.79582 11.87 8.81182 11.8406 8.80214C11.4261 8.66447 11.1575 8.39879 11.0641 8.03377C10.9298 7.50875 11.1813 6.92605 11.3938 6.69758C11.8455 6.21163 12.7069 6.28047 13.086 6.33926C12.5938 5.81833 12.4204 5.09907 12.657 4.4974C12.926 3.81275 13.6665 3.43433 14.686 3.45889C15.6713 3.4827 16.2127 3.91954 16.372 4.07172C16.6124 3.73349 16.8814 3.55935 17.1716 3.55451C17.1761 3.55451 17.1802 3.55451 17.1846 3.55451C17.5887 3.55451 17.9113 3.88121 18.0364 4.02856C18.3184 3.49721 18.7195 3.16977 19.201 3.07935C19.8581 2.95582 20.6306 3.26503 21.3763 3.95005C22.6254 5.09721 22.3385 7.03917 22.2875 7.32828C22.3735 7.39303 22.6083 7.59544 22.6578 7.91247C22.6965 8.16028 22.6127 8.41703 22.4081 8.67563C22.5919 9.35805 22.3017 10.1681 22.289 10.2027C22.2812 10.2247 22.2604 10.2392 22.2369 10.2395L22.2365 10.2392Z" fill="#231F20"/>
<path d="M13.8913 24.8007C13.8727 24.8007 13.8541 24.7914 13.8436 24.7739C13.7074 24.5514 13.6234 24.2977 13.6003 24.0394L13.5783 23.7972C13.5757 23.7663 13.5981 23.7395 13.6289 23.7365C13.6598 23.7339 13.6866 23.7563 13.6896 23.7871L13.7115 24.0294C13.7331 24.2705 13.8116 24.5075 13.9389 24.7155C13.9549 24.7419 13.9467 24.7762 13.9203 24.7922C13.9114 24.7977 13.9013 24.8004 13.8913 24.8004V24.8007Z" fill="#231F20"/>
<path d="M14.5867 25.8831C14.5837 25.8831 14.5807 25.8831 14.5777 25.8824L13.7658 25.7495C13.7353 25.7447 13.7149 25.7157 13.7197 25.6855C13.7245 25.655 13.7536 25.6345 13.7837 25.6394L14.5956 25.7722C14.6261 25.7771 14.6466 25.8061 14.6417 25.8362C14.6373 25.8637 14.6135 25.8831 14.5867 25.8831Z" fill="#231F20"/>
<path d="M11.2037 21.431C11.1762 21.431 11.1524 21.4106 11.1487 21.3827L11.1479 21.3774C11.1449 21.3544 11.1565 21.3317 11.1769 21.3209L12.0692 20.8472C12.0964 20.8331 12.1303 20.8431 12.1448 20.8703C12.1593 20.8974 12.1489 20.9313 12.1217 20.9458L11.248 21.4094C11.2395 21.4206 11.2264 21.4284 11.2116 21.4307C11.2089 21.4307 11.2067 21.431 11.2041 21.431H11.2037Z" fill="#231F20"/>
<path d="M12.7189 20.6217C12.6988 20.6217 12.6794 20.6109 12.6694 20.592C12.6549 20.5648 12.6653 20.5309 12.6925 20.5164L13.2889 20.1998C13.3053 20.1912 13.3254 20.1912 13.3418 20.1998C13.3581 20.2087 13.3689 20.2251 13.3708 20.2437L13.3749 20.2898C13.3775 20.3207 13.3552 20.3475 13.3243 20.3505C13.3057 20.352 13.2889 20.3445 13.2774 20.3319L12.7446 20.6147C12.7364 20.6191 12.7274 20.621 12.7185 20.621L12.7189 20.6217Z" fill="#231F20"/>
<path d="M14.5867 25.8835C14.5685 25.8835 14.5502 25.8746 14.5398 25.8578L13.8652 24.81C13.8604 24.8022 13.8555 24.7944 13.8507 24.7866L13.8436 24.7743C13.8276 24.7479 13.8358 24.7136 13.8622 24.6976C13.8886 24.6816 13.9229 24.6898 13.9389 24.7162L13.9471 24.73C13.9508 24.7367 13.9549 24.7434 13.959 24.7497L14.6336 25.7979C14.6503 25.8239 14.6429 25.8582 14.6168 25.8749C14.6075 25.8809 14.5971 25.8839 14.5867 25.8839V25.8835Z" fill="#231F20"/>
<path d="M13.6081 23.5598C13.5795 23.5598 13.5553 23.5378 13.5527 23.5088L13.4299 22.1458C13.4273 22.1149 13.4496 22.0881 13.4805 22.0852C13.511 22.0826 13.5382 22.1049 13.5411 22.1358L13.6639 23.4987C13.6665 23.5296 13.6442 23.5564 13.6133 23.5594C13.6115 23.5594 13.61 23.5594 13.6081 23.5594V23.5598Z" fill="#231F20"/>
<path d="M13.4856 22.1964C13.457 22.1964 13.4328 22.1745 13.4302 22.1455L13.2639 20.2991C13.2613 20.2683 13.2836 20.2415 13.3145 20.2385C13.345 20.2359 13.3722 20.2582 13.3751 20.2891L13.5415 22.1354C13.5441 22.1663 13.5217 22.1931 13.4909 22.1961C13.489 22.1961 13.4875 22.1961 13.4856 22.1961V22.1964Z" fill="#231F20"/>
<path d="M12.8517 25.5475C12.8446 25.5475 12.8379 25.5464 12.8308 25.5434C12.1521 25.2721 11.6565 24.6827 11.5047 23.9672C11.5047 23.9657 11.5043 23.9646 11.5039 23.9631L11.1482 21.3826C11.1441 21.3521 11.1653 21.3239 11.1958 21.3198C11.226 21.316 11.2546 21.3369 11.2587 21.3674L11.6141 23.9456C11.7584 24.6236 12.2288 25.1821 12.8721 25.4392C12.9008 25.4507 12.9145 25.4831 12.9034 25.5118C12.8948 25.5337 12.8736 25.5467 12.8517 25.5467V25.5475Z" fill="#231F20"/>
<path d="M13.6342 23.8489C13.6055 23.8489 13.5813 23.8269 13.5787 23.7979L13.5527 23.5092C13.5501 23.4783 13.5724 23.4515 13.6033 23.4485C13.6342 23.4455 13.661 23.4682 13.664 23.4991L13.69 23.7879C13.6926 23.8187 13.6703 23.8455 13.6394 23.8485C13.6375 23.8485 13.636 23.8485 13.6342 23.8485V23.8489Z" fill="#231F20"/>
<path d="M13.7744 25.751C13.7561 25.751 13.7379 25.742 13.7275 25.7253L13.3375 25.1188C13.1355 24.8055 13.0112 24.4438 12.9781 24.0724L12.6633 20.5707C12.6607 20.5398 12.6834 20.513 12.7139 20.51C12.744 20.5071 12.7716 20.5297 12.7745 20.5606L13.0893 24.0624C13.121 24.4155 13.2393 24.7601 13.4317 25.0581L13.822 25.6646C13.8387 25.6907 13.8313 25.7249 13.8052 25.7417C13.7959 25.7476 13.7855 25.7506 13.7751 25.7506L13.7744 25.751Z" fill="#231F20"/>
<path d="M12.8517 25.5482C12.8334 25.5482 12.8152 25.5393 12.8048 25.5226L12.7065 25.37C12.5049 25.056 12.3806 24.6939 12.3475 24.3233L12.0398 20.9027C12.0372 20.8718 12.0595 20.845 12.0904 20.842C12.1212 20.8394 12.148 20.8617 12.151 20.8926L12.4587 24.3136C12.4904 24.6664 12.6087 25.0109 12.8007 25.3101L12.8989 25.4627C12.9157 25.4887 12.9082 25.5229 12.8822 25.5397C12.8729 25.5456 12.8625 25.5486 12.852 25.5486L12.8517 25.5482Z" fill="#231F20"/>
<path d="M13.7747 25.7509C13.7718 25.7509 13.7688 25.7509 13.7658 25.7502L13.291 25.6724C13.1321 25.6464 12.9773 25.6028 12.8311 25.544C12.8025 25.5325 12.7887 25.5001 12.8002 25.4715C12.8118 25.4428 12.8441 25.4291 12.8728 25.4406C13.0116 25.4964 13.1582 25.5377 13.3089 25.5623L13.7837 25.64C13.8142 25.6449 13.8346 25.6739 13.8298 25.704C13.8253 25.7316 13.8015 25.7509 13.7747 25.7509Z" fill="#231F20"/>
<path d="M12.0951 20.9532C12.075 20.9532 12.0557 20.9424 12.0456 20.9234C12.0311 20.8962 12.0415 20.8624 12.0687 20.8479L12.6923 20.5163C12.7195 20.5018 12.7533 20.5122 12.7678 20.5394C12.7824 20.5666 12.7719 20.6004 12.7448 20.6149L12.1212 20.9465C12.113 20.9509 12.1037 20.9532 12.0951 20.9532Z" fill="#231F20"/>
<path d="M18.2138 25.8832C18.2034 25.8832 18.1929 25.8802 18.1836 25.8742C18.1576 25.8575 18.1502 25.8229 18.1669 25.7972L18.8199 24.7825C18.8367 24.7565 18.8713 24.749 18.8969 24.7658C18.923 24.7825 18.9304 24.8171 18.9137 24.8428L18.2607 25.8575C18.2499 25.8742 18.232 25.8832 18.2138 25.8832Z" fill="#231F20"/>
<path d="M18.2137 25.8831C18.1869 25.8831 18.1631 25.8637 18.1587 25.8362C18.1538 25.8057 18.1743 25.7771 18.2048 25.7722L19.0171 25.6394C19.0476 25.6345 19.0762 25.655 19.0811 25.6855C19.0859 25.716 19.0655 25.7447 19.0349 25.7495L18.2227 25.8824C18.2197 25.8827 18.2167 25.8831 18.2137 25.8831Z" fill="#231F20"/>
<path d="M19.2486 22.9345C19.2486 22.9345 19.2453 22.9345 19.2434 22.9345C19.2126 22.9319 19.1902 22.9048 19.1928 22.8739L19.2397 22.3526C19.2423 22.3217 19.2691 22.2994 19.3004 22.302C19.3313 22.3046 19.3536 22.3317 19.351 22.3626L19.3041 22.8839C19.3015 22.9129 19.2773 22.9349 19.2486 22.9349V22.9345Z" fill="#231F20"/>
<path d="M19.2225 23.2216C19.2225 23.2216 19.2192 23.2216 19.2173 23.2216C19.1864 23.219 19.1641 23.1919 19.1667 23.161L19.1924 22.8741C19.195 22.8432 19.2218 22.8205 19.253 22.8235C19.2839 22.8261 19.3062 22.8533 19.3036 22.8842L19.278 23.171C19.2754 23.2001 19.2512 23.222 19.2225 23.222V23.2216Z" fill="#231F20"/>
<path d="M21.5969 21.4318C21.5943 21.4318 21.592 21.4318 21.5894 21.4314C21.5745 21.4296 21.5615 21.4217 21.553 21.4106L20.6793 20.947C20.6521 20.9324 20.6417 20.8986 20.6562 20.8714C20.6707 20.8443 20.7046 20.8338 20.7317 20.8484L21.624 21.322C21.6449 21.3328 21.6564 21.3555 21.653 21.379L21.6523 21.3842C21.6486 21.4121 21.6244 21.4325 21.5972 21.4325L21.5969 21.4318Z" fill="#231F20"/>
<path d="M19.2955 22.4135C19.2955 22.4135 19.2922 22.4135 19.2903 22.4135C19.2594 22.4109 19.2371 22.3837 19.2397 22.3528L19.4265 20.2784C19.4291 20.2475 19.4563 20.2248 19.4871 20.2278C19.518 20.2304 19.5404 20.2576 19.5378 20.2885L19.351 22.3629C19.3484 22.3919 19.3242 22.4138 19.2955 22.4138V22.4135Z" fill="#231F20"/>
<path d="M19.9488 25.5478C19.9269 25.5478 19.9056 25.5344 19.8971 25.5128C19.8856 25.4842 19.8997 25.4518 19.9283 25.4403C20.5717 25.1828 21.042 24.6246 21.1864 23.9467L21.5417 21.3684C21.5458 21.3379 21.5745 21.3167 21.6046 21.3208C21.6351 21.3249 21.6563 21.3532 21.6523 21.3837L21.2965 23.9642C21.2965 23.9642 21.2962 23.9668 21.2958 23.9683C21.144 24.6838 20.6483 25.2728 19.9696 25.5444C19.963 25.5471 19.9559 25.5485 19.9488 25.5485V25.5478Z" fill="#231F20"/>
<path d="M20.0818 20.6213C20.0729 20.6213 20.064 20.619 20.0558 20.6149L19.5159 20.3281C19.5051 20.3359 19.4913 20.34 19.4776 20.3388C19.4467 20.3362 19.4244 20.3091 19.427 20.2782L19.4299 20.244C19.4314 20.2254 19.4426 20.2086 19.459 20.2001C19.4753 20.1911 19.4954 20.1911 19.5118 20.2001L20.1083 20.5167C20.1354 20.5312 20.1458 20.5651 20.1313 20.5922C20.1213 20.6112 20.1019 20.622 20.0818 20.622V20.6213Z" fill="#231F20"/>
<path d="M18.8669 24.8691C18.8564 24.8691 18.846 24.8661 18.8367 24.8601C18.8107 24.8434 18.8032 24.8088 18.82 24.7831L18.8416 24.75C18.9807 24.5349 19.0659 24.286 19.089 24.0304L19.1671 23.1612C19.1697 23.1303 19.1969 23.108 19.2278 23.1106C19.2587 23.1132 19.281 23.1403 19.2784 23.1712L19.2003 24.0404C19.1757 24.3139 19.0842 24.5803 18.9353 24.8107L18.9141 24.8438C18.9033 24.8605 18.8855 24.8694 18.8672 24.8694L18.8669 24.8691Z" fill="#231F20"/>
<path d="M19.9486 25.5476C19.9382 25.5476 19.9278 25.5447 19.9185 25.5387C19.8925 25.522 19.885 25.4874 19.9018 25.4617L20 25.3091C20.192 25.0103 20.3103 24.6658 20.3419 24.3127L20.6497 20.8916C20.6523 20.8607 20.6794 20.8384 20.7103 20.841C20.7412 20.8436 20.7635 20.8708 20.7609 20.9017L20.4532 24.3227C20.4201 24.6933 20.2958 25.0554 20.0941 25.3694L19.9959 25.522C19.9851 25.5387 19.9673 25.5476 19.949 25.5476H19.9486Z" fill="#231F20"/>
<path d="M19.0258 25.7506C19.0154 25.7506 19.005 25.7476 18.9957 25.7417C18.9696 25.7249 18.9622 25.6903 18.9789 25.6646L19.3689 25.0581C19.5609 24.7601 19.6792 24.4155 19.7112 24.0624L20.026 20.5606C20.0286 20.5298 20.0565 20.5071 20.0866 20.51C20.1175 20.5126 20.1398 20.5398 20.1372 20.5707L19.8224 24.0724C19.789 24.4438 19.6647 24.8055 19.463 25.1188L19.073 25.7253C19.0623 25.742 19.0444 25.751 19.0262 25.751L19.0258 25.7506Z" fill="#231F20"/>
<path d="M20.7054 20.9532C20.6965 20.9532 20.6876 20.9509 20.6794 20.9465L20.0557 20.6149C20.0286 20.6004 20.0182 20.5666 20.0327 20.5394C20.0472 20.5122 20.081 20.5018 20.1082 20.5163L20.7318 20.8479C20.759 20.8624 20.7694 20.8962 20.7549 20.9234C20.7449 20.9424 20.7255 20.9532 20.7054 20.9532Z" fill="#231F20"/>
<path d="M19.0257 25.7509C18.999 25.7509 18.9751 25.7316 18.9707 25.704C18.9658 25.6735 18.9863 25.6449 19.0168 25.64L19.4916 25.5623C19.6423 25.5373 19.7889 25.4964 19.9277 25.4406C19.9564 25.4291 19.9887 25.4428 20.0003 25.4715C20.0118 25.5001 19.998 25.5325 19.9694 25.544C19.8231 25.6032 19.6684 25.6464 19.5095 25.6724L19.0347 25.7502C19.0317 25.7506 19.0287 25.7509 19.0257 25.7509Z" fill="#231F20"/>
<path d="M19.3168 17.6879C17.86 17.6879 16.8226 17.1611 16.1819 16.6833C15.3849 16.0894 15.0225 15.4591 15.0076 15.4323C14.9923 15.4055 15.0016 15.3717 15.0284 15.3564C15.0552 15.3412 15.0891 15.3505 15.1043 15.3772C15.108 15.3836 15.4727 16.0169 16.2526 16.5966C16.9711 17.1309 18.1998 17.7281 19.9747 17.5406C20.704 17.4632 21.2863 17.1328 21.7053 16.5583C22.2106 15.8658 22.4837 14.831 22.5172 13.4822C22.551 12.1225 22.324 10.8652 22.2251 10.3875C22.2128 10.3287 22.1987 10.2651 22.1815 10.1929C22.1745 10.1627 22.1931 10.133 22.2228 10.1255C22.2533 10.1185 22.2827 10.1371 22.2902 10.1668C22.3077 10.2401 22.3222 10.3045 22.3345 10.3644C22.4342 10.8459 22.663 12.1136 22.6288 13.4844C22.5949 14.8559 22.3144 15.9123 21.7953 16.6234C21.3566 17.2247 20.7479 17.5704 19.9862 17.6507C19.754 17.6753 19.5307 17.6868 19.3168 17.6868V17.6879Z" fill="#231F20"/>
<path d="M13.3193 20.3507C13.3193 20.3507 13.3178 20.3507 13.317 20.3507C13.2862 20.3496 13.2623 20.3235 13.2635 20.293L13.4696 14.6688C13.4707 14.6379 13.4968 14.6145 13.5273 14.6153C13.5582 14.6164 13.582 14.6424 13.5809 14.6729L13.3747 20.2971C13.3736 20.3273 13.3487 20.3511 13.3189 20.3511L13.3193 20.3507Z" fill="#231F20"/>
<path d="M14.996 27.0753C14.9655 27.0753 14.9405 27.0508 14.9402 27.0203L14.9275 26.1366C14.9219 26.0223 14.8345 25.9245 14.7195 25.9055L14.5774 25.8824C14.5469 25.8776 14.5264 25.8486 14.5312 25.8184C14.5361 25.7883 14.5651 25.7671 14.5952 25.7723L14.7374 25.7953C14.9037 25.8225 15.0306 25.9646 15.0388 26.1328L15.0514 27.0184C15.0518 27.0493 15.0272 27.0746 14.9963 27.075H14.9956L14.996 27.0753Z" fill="#231F20"/>
<path d="M4.00744 23.502C3.99665 23.502 3.98586 23.4991 3.97618 23.4924C3.95088 23.4749 3.94418 23.4403 3.96167 23.415L4.08855 23.2289C4.51125 22.6083 5.17916 22.1848 5.92111 22.0676L11.1966 21.3208C11.2268 21.3167 11.2554 21.3379 11.2599 21.3684C11.2644 21.399 11.2428 21.4272 11.2123 21.4317L5.93786 22.1785C5.22716 22.2909 4.58679 22.6972 4.1812 23.2925L4.05432 23.4786C4.04353 23.4946 4.02604 23.5031 4.00818 23.5031L4.00744 23.502Z" fill="#231F20"/>
<path d="M15.0299 29.4387C14.9994 29.4387 14.9744 29.4141 14.9741 29.3836L14.9402 27.0204C14.9398 26.9895 14.9644 26.9642 14.9953 26.9639H14.996C15.0265 26.9639 15.0514 26.9884 15.0518 27.0189L15.0857 29.3821C15.086 29.413 15.0615 29.4383 15.0306 29.4387H15.0299Z" fill="#231F20"/>
<path d="M15.1355 36.8263H6.75601C6.72513 36.8263 6.7002 36.8014 6.7002 36.7705C6.7002 36.7396 6.72513 36.7147 6.75601 36.7147H15.0786L14.9737 29.3837C14.9733 29.3528 14.9979 29.3275 15.0288 29.3272C15.0589 29.3264 15.0849 29.3513 15.0853 29.3822L15.191 36.7698C15.191 36.7847 15.1854 36.7992 15.175 36.8096C15.1646 36.82 15.1501 36.8263 15.1352 36.8263H15.1355Z" fill="#231F20"/>
<path d="M6.75599 36.8262H-0.787448C-0.802331 36.8262 -0.816471 36.8203 -0.82689 36.8099C-0.837308 36.7995 -0.843262 36.7853 -0.843262 36.7704L-0.839913 30.4798C-0.839913 30.4687 -0.836564 30.4579 -0.830238 30.4486L3.9612 23.4149C3.97869 23.3896 4.0133 23.3829 4.0386 23.4004C4.0639 23.4179 4.0706 23.4525 4.05311 23.4778L-0.728285 30.4969L-0.731634 36.7143H6.75599C6.78688 36.7143 6.81181 36.7392 6.81181 36.7701C6.81181 36.8009 6.78688 36.8259 6.75599 36.8259V36.8262Z" fill="#231F20"/>
<path d="M19.4823 20.3395C19.4786 20.3395 19.4749 20.3391 19.4712 20.3384C19.4678 20.3376 19.4641 20.3365 19.4607 20.335C19.4574 20.3335 19.454 20.332 19.4511 20.3298C19.4481 20.3279 19.4451 20.3257 19.4425 20.3231C19.4321 20.3127 19.4265 20.2982 19.4265 20.2833C19.4265 20.2799 19.4265 20.2762 19.4273 20.2725C19.428 20.2692 19.4291 20.2654 19.4306 20.2621C19.4321 20.2587 19.4336 20.2554 19.4358 20.2524C19.4377 20.2494 19.4399 20.2465 19.4425 20.2442C19.4451 20.2416 19.4481 20.239 19.4511 20.2372C19.454 20.2349 19.4574 20.2334 19.4607 20.2319C19.4641 20.2305 19.4678 20.2293 19.4712 20.2286C19.4894 20.2249 19.5087 20.2312 19.5218 20.2442C19.5318 20.2543 19.5381 20.2688 19.5381 20.2833C19.5381 20.2978 19.5318 20.3127 19.5218 20.3231C19.5192 20.3257 19.5162 20.3279 19.5132 20.3298C19.5102 20.332 19.5069 20.3335 19.5035 20.335C19.5002 20.3365 19.4965 20.3376 19.4931 20.3384C19.4894 20.3391 19.4857 20.3395 19.4823 20.3395Z" fill="#231F20"/>
<path d="M19.4818 20.3391C19.451 20.3391 19.426 20.3142 19.426 20.2833V17.6388C19.426 17.6079 19.451 17.583 19.4818 17.583C19.5127 17.583 19.5377 17.6079 19.5377 17.6388V20.2833C19.5377 20.3142 19.5127 20.3391 19.4818 20.3391Z" fill="#231F20"/>
<path d="M17.7741 29.2129H17.7733C17.7425 29.2125 17.7179 29.1872 17.7183 29.1563L17.7614 26.1357C17.7696 25.9653 17.8965 25.8235 18.0628 25.7963L18.205 25.7733C18.2351 25.7681 18.2641 25.7889 18.269 25.8194C18.2738 25.8499 18.2533 25.8786 18.2228 25.8834L18.0807 25.9065C17.9661 25.9251 17.8783 26.0233 17.8727 26.1394L17.8295 29.1582C17.8291 29.1887 17.8042 29.2133 17.7737 29.2133L17.7741 29.2129Z" fill="#231F20"/>
<path d="M17.7282 32.4014H17.7274C17.6966 32.4011 17.672 32.3757 17.6724 32.3449L17.7181 29.1557C17.7185 29.1251 17.7434 29.1006 17.7739 29.1006H17.7747C17.8056 29.101 17.8301 29.1263 17.8298 29.1571L17.784 32.3464C17.7836 32.3769 17.7587 32.4014 17.7282 32.4014Z" fill="#231F20"/>
<path d="M35.5667 36.8263H26.0924C26.0616 36.8263 26.0366 36.8014 26.0366 36.7705C26.0366 36.7396 26.0616 36.7147 26.0924 36.7147H35.5109V32.5089L28.7946 23.4827C28.776 23.4578 28.7812 23.4232 28.8061 23.4046C28.8307 23.3863 28.8656 23.3912 28.8842 23.4161L35.6113 32.4572C35.6184 32.4669 35.6225 32.4784 35.6225 32.4907V36.7709C35.6225 36.8018 35.5976 36.8267 35.5667 36.8267V36.8263Z" fill="#231F20"/>
<path d="M28.8397 23.5055C28.8226 23.5055 28.8059 23.4976 28.7951 23.4831L28.5941 23.2134C28.1826 22.6601 27.5809 22.2962 26.9 22.1883L21.5891 21.4314C21.5586 21.427 21.5374 21.3987 21.5419 21.3682C21.5463 21.3377 21.5742 21.3164 21.6051 21.3209L26.9171 22.0781C27.6278 22.1909 28.2552 22.57 28.6842 23.1468L28.8851 23.4165C28.9037 23.4415 28.8985 23.4761 28.8736 23.4947C28.8635 23.5021 28.852 23.5058 28.8405 23.5058L28.8397 23.5055Z" fill="#231F20"/>
<path d="M6.756 36.8263C6.72624 36.8263 6.70131 36.8025 6.70019 36.7723L6.40103 28.465C6.36903 27.5779 6.08996 26.7199 5.59358 25.9842L3.96047 23.4771C3.94372 23.4514 3.95079 23.4168 3.97684 23.3997C4.00251 23.3829 4.03712 23.39 4.05424 23.416L5.68661 25.9225C6.19414 26.6748 6.47991 27.553 6.51265 28.4609L6.81182 36.7682C6.81293 36.7991 6.78875 36.8248 6.75786 36.8259C6.75712 36.8259 6.75638 36.8259 6.756 36.8259V36.8263Z" fill="#231F20"/>
<path d="M26.093 36.8267C26.093 36.8267 26.0915 36.8267 26.0911 36.8267C26.0602 36.8256 26.036 36.7996 26.0371 36.7691L26.3363 28.4617C26.3691 27.5538 26.6548 26.6757 27.1627 25.9226L28.7929 23.4199C28.8096 23.3942 28.8442 23.3867 28.8703 23.4035C28.8959 23.4202 28.9034 23.4548 28.8866 23.4809L27.2561 25.9843C26.7594 26.7211 26.4799 27.5787 26.4483 28.4658L26.1491 36.7732C26.148 36.8033 26.1235 36.8271 26.0933 36.8271L26.093 36.8267Z" fill="#231F20"/>
<path d="M16.4948 24.0881C16.2916 24.0881 16.0952 24.0766 15.911 24.0542C15.8805 24.0505 15.8585 24.0226 15.8622 23.9921C15.8659 23.9616 15.8942 23.94 15.9244 23.9434C16.1041 23.9653 16.2961 23.9765 16.4948 23.9765C16.8501 23.9765 17.1798 23.9408 17.4741 23.8697C17.5039 23.8626 17.5344 23.8808 17.5415 23.911C17.5486 23.9408 17.5303 23.9713 17.5002 23.9783C17.1973 24.0513 16.8591 24.0881 16.4948 24.0881Z" fill="#231F20"/>
<path d="M15.6874 24.0203C15.684 24.0203 15.6807 24.0203 15.6773 24.0195C15.0734 23.9105 14.5677 23.6716 14.1741 23.3088C14.1514 23.288 14.1499 23.2527 14.1707 23.23C14.1915 23.2073 14.2269 23.2058 14.2496 23.2266C14.6273 23.5749 15.1143 23.8045 15.697 23.9098C15.7272 23.9154 15.7476 23.9444 15.7421 23.9745C15.7372 24.0013 15.7138 24.0203 15.6874 24.0203Z" fill="#231F20"/>
<path d="M14.0494 23.1584C14.0341 23.1584 14.0189 23.1521 14.0081 23.1401C13.7607 22.8667 13.5672 22.5366 13.4332 22.1597C13.4228 22.1307 13.438 22.0987 13.4671 22.0882C13.4961 22.0778 13.5281 22.0931 13.5385 22.1221C13.6676 22.4853 13.8533 22.8027 14.0911 23.065C14.1119 23.0877 14.11 23.123 14.087 23.1439C14.0762 23.1535 14.0628 23.1584 14.0494 23.1584Z" fill="#231F20"/>
<path d="M19.1114 22.8124C19.1021 22.8124 19.0924 22.8102 19.0838 22.805C19.057 22.7897 19.0477 22.7555 19.063 22.7291C19.1318 22.6082 19.1925 22.4768 19.2431 22.3384C19.2539 22.3094 19.2859 22.2945 19.3145 22.3053C19.3436 22.3161 19.3584 22.3481 19.3476 22.3767C19.2948 22.5207 19.2316 22.6576 19.1597 22.7842C19.1493 22.8024 19.1307 22.8124 19.1114 22.8124Z" fill="#231F20"/>
<path d="M17.7096 23.9185C17.6858 23.9185 17.6639 23.9032 17.6564 23.8794C17.6471 23.85 17.6635 23.8187 17.6929 23.8094C18.2253 23.6409 18.6451 23.3425 18.9405 22.9231C18.9584 22.8978 18.993 22.8918 19.0183 22.9097C19.0436 22.9276 19.0495 22.9622 19.0317 22.9875C18.7221 23.4273 18.283 23.7398 17.7267 23.9162C17.7212 23.9181 17.7156 23.9188 17.71 23.9188L17.7096 23.9185Z" fill="#231F20"/>
<path d="M18.0788 25.1805C18.0543 25.1805 18.0319 25.1645 18.0252 25.1399C18.0171 25.1102 18.0342 25.0793 18.0639 25.0711C18.3426 24.993 18.6038 24.8892 18.8412 24.7634C18.8684 24.7489 18.9023 24.7593 18.9168 24.7865C18.9313 24.8136 18.9209 24.8475 18.8937 24.862C18.6496 24.9915 18.3806 25.0979 18.0944 25.1786C18.0892 25.1801 18.0844 25.1809 18.0792 25.1809L18.0788 25.1805Z" fill="#231F20"/>
<path d="M15.3308 25.2871C15.3278 25.2871 15.3245 25.2871 15.3215 25.2864C14.7734 25.1934 14.283 25.0278 13.864 24.7941C13.8372 24.7792 13.8276 24.745 13.8424 24.7182C13.8573 24.6914 13.8912 24.6814 13.9183 24.6966C14.3262 24.924 14.8047 25.0854 15.3401 25.1762C15.3706 25.1814 15.3911 25.2101 15.3859 25.2406C15.3814 25.2678 15.3576 25.2871 15.3308 25.2871Z" fill="#231F20"/>
<path d="M16.4949 25.3796C16.1652 25.3796 15.8486 25.3599 15.5539 25.3215C15.5234 25.3175 15.5018 25.2895 15.5059 25.259C15.51 25.2285 15.5382 25.2069 15.5684 25.211C15.8579 25.249 16.1697 25.2683 16.4945 25.2683C16.9827 25.2683 17.4359 25.2211 17.8419 25.1284C17.8724 25.1214 17.9018 25.1403 17.9088 25.1705C17.9159 25.2006 17.8969 25.2304 17.8668 25.2375C17.4527 25.3323 16.9913 25.3803 16.4945 25.3803L16.4949 25.3796Z" fill="#231F20"/>
<path d="M14.212 23.3228C14.1986 23.3228 14.1849 23.318 14.1744 23.3083C14.1179 23.2566 14.0621 23.2 14.0081 23.1401C13.9876 23.117 13.9895 23.0821 14.0122 23.0612C14.0353 23.0408 14.0703 23.0422 14.0911 23.0653C14.1428 23.1226 14.196 23.1766 14.25 23.2261C14.2727 23.2469 14.2742 23.2822 14.2533 23.3049C14.2422 23.3168 14.2273 23.3232 14.212 23.3232V23.3228Z" fill="#231F20"/>
<path d="M15.9178 24.0542C15.9156 24.0542 15.9133 24.0542 15.9111 24.0538C15.8315 24.0441 15.753 24.0322 15.6778 24.0188C15.6473 24.0132 15.6272 23.9842 15.6328 23.9541C15.6383 23.9235 15.6674 23.9038 15.6975 23.909C15.7708 23.9221 15.8471 23.9336 15.9249 23.9433C15.9554 23.947 15.9773 23.9749 15.9736 24.0054C15.9703 24.0337 15.9461 24.0545 15.9182 24.0545L15.9178 24.0542Z" fill="#231F20"/>
<path d="M15.5611 25.3218C15.5589 25.3218 15.5563 25.3218 15.554 25.3214C15.4748 25.3114 15.3963 25.2995 15.3211 25.2865C15.2906 25.2813 15.2705 25.2522 15.2757 25.2221C15.2809 25.1916 15.31 25.1711 15.3401 25.1767C15.4138 25.1894 15.4904 25.2009 15.5678 25.2109C15.5983 25.215 15.6199 25.2429 15.6162 25.2734C15.6125 25.3017 15.5887 25.3222 15.5607 25.3222L15.5611 25.3218Z" fill="#231F20"/>
<path d="M17.4872 23.9801C17.4619 23.9801 17.4392 23.963 17.4329 23.9373C17.4258 23.9071 17.4444 23.8774 17.4742 23.8699C17.5475 23.8524 17.6212 23.832 17.6926 23.8093C17.7224 23.8 17.7533 23.816 17.7629 23.8454C17.7722 23.8748 17.7562 23.906 17.7269 23.9157C17.6528 23.9395 17.5765 23.9607 17.5002 23.9786C17.4958 23.9797 17.4917 23.9801 17.4872 23.9801Z" fill="#231F20"/>
<path d="M17.8545 25.2377C17.8288 25.2377 17.8061 25.2202 17.8002 25.1942C17.7935 25.164 17.8121 25.1343 17.8422 25.1276C17.917 25.1104 17.9896 25.0922 18.064 25.0714C18.0938 25.0632 18.1247 25.0803 18.1328 25.1101C18.141 25.1398 18.1239 25.1707 18.0941 25.1789C18.0179 25.2001 17.9438 25.2191 17.8672 25.2366C17.8631 25.2377 17.859 25.2381 17.8549 25.2381L17.8545 25.2377Z" fill="#231F20"/>
<path d="M18.986 23.0108C18.9748 23.0108 18.9636 23.0074 18.954 23.0007C18.9287 22.9829 18.9227 22.9483 18.9402 22.9229C18.9852 22.8586 19.0265 22.7935 19.0626 22.7295C19.0779 22.7027 19.1117 22.6934 19.1385 22.7082C19.1653 22.7235 19.175 22.7574 19.1597 22.7842C19.1218 22.8511 19.0786 22.9196 19.0313 22.9869C19.0206 23.0026 19.0031 23.0108 18.9856 23.0108H18.986Z" fill="#231F20"/>
<path d="M17.7283 32.4014C17.7123 32.4014 17.6963 32.3947 17.6855 32.3813C17.6542 32.3441 17.6237 32.3062 17.5932 32.2682C17.4972 32.1495 17.3978 32.0267 17.2847 31.924C17.1824 31.8314 17.0644 31.7506 16.9498 31.6725C16.7798 31.5564 16.6042 31.4366 16.4702 31.2718C16.087 30.8003 16.1632 30.0051 16.6376 29.5356C17.0228 29.1542 17.4116 29.101 17.7744 29.1006C17.8053 29.1006 17.8302 29.1255 17.8302 29.1564C17.8302 29.1873 17.8053 29.2122 17.7744 29.2122C17.383 29.2126 17.0529 29.2814 16.7162 29.6148C16.2812 30.0457 16.2083 30.772 16.5569 31.2011C16.6808 31.3532 16.8419 31.4634 17.0127 31.5802C17.1303 31.6606 17.2516 31.7436 17.3595 31.8414C17.479 31.9497 17.5809 32.0758 17.6799 32.1979C17.71 32.2355 17.7405 32.2727 17.7714 32.3095C17.7911 32.3333 17.7878 32.3683 17.7643 32.388C17.7539 32.3966 17.7413 32.4011 17.7286 32.4011L17.7283 32.4014Z" fill="#231F20"/>
<path d="M15.0298 29.4381C15.0131 29.4381 14.9963 29.4307 14.9855 29.4162C14.9669 29.3916 14.9714 29.3567 14.996 29.338C15.0737 29.2785 15.1374 29.2201 15.1906 29.1583C15.3915 28.9261 15.4901 28.6114 15.5772 28.3334C15.6843 27.9911 15.7934 27.5074 15.5035 27.2581C15.3837 27.155 15.22 27.1174 15.0484 27.085C15.0373 27.0828 15.0261 27.0809 15.0153 27.0791L14.9863 27.0739C14.9558 27.0683 14.9361 27.0393 14.9413 27.0087C14.9468 26.9782 14.9762 26.9585 15.0064 26.9637L15.0339 26.9686C15.0454 26.9704 15.0574 26.9727 15.0689 26.9749C15.2486 27.0087 15.4358 27.0519 15.5761 27.1732C15.9158 27.4657 15.8001 27.9944 15.6836 28.3665C15.5932 28.6549 15.4908 28.9812 15.275 29.2309C15.2166 29.2982 15.1478 29.3622 15.0637 29.4262C15.0536 29.434 15.0417 29.4378 15.0298 29.4378V29.4381Z" fill="#231F20"/>
<path d="M13.6121 14.7355C13.5797 14.7355 13.5466 14.7318 13.5135 14.7247C13.4833 14.718 13.4643 14.6882 13.471 14.6581C13.4777 14.6279 13.5071 14.609 13.5376 14.6157C13.5626 14.6212 13.5875 14.6238 13.6121 14.6238C13.8018 14.6238 13.9562 14.4694 13.9562 14.2797C13.9562 14.0899 13.8018 13.9355 13.6121 13.9355C13.4223 13.9355 13.2679 14.0899 13.2679 14.2797C13.2679 14.3344 13.2805 14.3868 13.3058 14.4363C13.32 14.4638 13.3092 14.4973 13.2816 14.5115C13.2541 14.5256 13.2206 14.5148 13.2065 14.4873C13.173 14.4222 13.1562 14.3526 13.1562 14.28C13.1562 14.0285 13.3609 13.8242 13.6121 13.8242C13.8632 13.8242 14.0679 14.0289 14.0679 14.28C14.0679 14.5312 13.8632 14.7358 13.6121 14.7358V14.7355Z" fill="#231F20"/>
<path d="M13.5254 14.7269C13.5213 14.7269 13.5176 14.7265 13.5135 14.7254C13.3803 14.696 13.2683 14.6093 13.2062 14.4876C13.192 14.4601 13.2028 14.4266 13.2304 14.4125C13.2579 14.3983 13.2914 14.4091 13.3055 14.4367C13.3528 14.5286 13.4372 14.594 13.5377 14.6164C13.5678 14.6231 13.5868 14.6528 13.5801 14.683C13.5745 14.709 13.5515 14.7269 13.5258 14.7269H13.5254Z" fill="#231F20"/>
<path d="M9.7157 28.6718C9.67477 28.6718 9.63384 28.6703 9.59254 28.6677C9.11998 28.6353 8.68873 28.4206 8.37766 28.0634C8.06659 27.7062 7.91329 27.2493 7.94566 26.7771C7.97803 26.3046 8.19273 25.8733 8.54994 25.5622C8.90715 25.2512 9.3637 25.0979 9.83626 25.1302C10.8115 25.1976 11.5505 26.0456 11.4831 27.0208C11.4188 27.9548 10.6381 28.6722 9.7157 28.6722V28.6718ZM9.60036 28.5561C10.5135 28.619 11.309 27.9269 11.3719 27.0126C11.4348 26.0988 10.7427 25.304 9.82845 25.2411C9.38566 25.2106 8.95775 25.3542 8.62287 25.6459C8.28836 25.9373 8.08705 26.3418 8.05654 26.7846C8.02603 27.2273 8.16966 27.6553 8.46138 27.9901C8.75273 28.3246 9.15719 28.5259 9.59998 28.5565L9.60036 28.5561Z" fill="#231F20"/>
</g>
</g>
</g>
<defs>
<filter id="filter0_b_2361_47011" x="-5.7" y="-6.2" width="44.4" height="44.4" filterUnits="userSpaceOnUse" color-interpolation-filters="sRGB">
<feFlood flood-opacity="0" result="BackgroundImageFix"/>
<feGaussianBlur in="BackgroundImageFix" stdDeviation="3.1"/>
<feComposite in2="SourceAlpha" operator="in" result="effect1_backgroundBlur_2361_47011"/>
<feBlend mode="normal" in="SourceGraphic" in2="effect1_backgroundBlur_2361_47011" result="shape"/>
</filter>
<clipPath id="clip0_2361_47011">
<rect x="0.5" width="32" height="32" rx="16" fill="white"/>
</clipPath>
<clipPath id="clip1_2361_47011">
<rect width="32" height="32" fill="white" transform="translate(0.5)"/>
</clipPath>
</defs>
</svg>
