<svg  viewBox="0 0 33 32" fill="none" xmlns="http://www.w3.org/2000/svg">
<g filter="url(#filter0_b_2361_46981)">
<g clip-path="url(#clip0_2361_46981)">
<rect x="0.5" width="32" height="32" rx="16" fill="#E0E0E0"/>
<g clip-path="url(#clip1_2361_46981)">
<rect width="32" height="32" transform="translate(0.5)" fill="#FEDEE2"/>
<path d="M19.6267 14.3369C19.7428 14.3369 19.8481 14.383 19.9255 14.4574C20.6638 14.4098 21.2483 13.7519 21.2483 12.9475C21.2483 12.8396 21.2379 12.7346 21.2178 12.6331C21.0831 11.9484 20.5171 11.4345 19.8396 11.4345C19.6513 11.4345 19.4716 11.4744 19.3075 11.5465C19.2182 11.5856 19.1341 11.6344 19.0552 11.6909C19.3599 13.6009 17.7116 14.5021 17.7116 14.5021C17.8035 14.3793 17.8656 14.1918 17.9073 13.9808C18.0342 13.3348 17.8716 12.6725 17.4995 12.1292C17.0254 11.4375 17.1929 10.4329 17.1929 10.4329C14.42 9.95398 13.9713 7.32812 13.9713 7.32812C13.9713 7.32812 13.3592 8.96013 11.9888 9.61761C11.7473 9.73371 11.482 9.81966 11.1921 9.86059C11.146 10.0228 11.1058 10.1862 11.0716 10.3506C10.6753 12.2606 10.3218 16.2729 12.5 17.3289C12.7545 17.4528 13.0437 17.5358 13.3711 17.5704C13.5419 17.5882 13.7078 17.599 13.869 17.6039V20.2833L16.9495 24.3201L20.0297 20.2833L20.0327 20.2885L19.9821 18.917L19.9769 18.7759L19.9512 18.0719C19.7722 17.954 19.62 17.8059 19.5196 17.6146C19.3934 17.375 19.3681 17.0982 19.4128 16.8292C19.4385 16.6732 19.4876 16.5196 19.5542 16.3774C19.6394 16.1958 19.7477 16.0262 19.8705 15.8658L19.8437 15.1428C19.78 15.18 19.706 15.2016 19.6267 15.2016C19.3878 15.2016 19.1944 15.0081 19.1944 14.7692C19.1944 14.5304 19.3878 14.3369 19.6267 14.3369ZM19.6353 13.6876C19.7596 13.6876 19.8604 13.7884 19.8604 13.9131C19.8604 14.0377 19.7596 14.1382 19.6353 14.1382C19.511 14.1382 19.4102 14.0373 19.4102 13.9131C19.4102 13.7888 19.511 13.6876 19.6353 13.6876Z" fill="#DB9476"/>
<path d="M15.3864 11.0793C15.4011 10.8784 15.3304 10.7096 15.2286 10.7021C15.1267 10.6947 15.0322 10.8515 15.0175 11.0523C15.0029 11.2532 15.0735 11.4221 15.1754 11.4295C15.2773 11.4369 15.3717 11.2801 15.3864 11.0793Z" fill="#231F20"/>
<path d="M12.3308 11.1799C12.3454 10.979 12.2748 10.8102 12.1729 10.8027C12.071 10.7953 11.9766 10.9521 11.9619 11.1529C11.9472 11.3538 12.0179 11.5226 12.1197 11.5301C12.2216 11.5375 12.3161 11.3807 12.3308 11.1799Z" fill="#231F20"/>
<path d="M19.6353 14.1377C19.7596 14.1377 19.8604 14.0369 19.8604 13.9126C19.8604 13.7883 19.7596 13.6875 19.6353 13.6875C19.5109 13.6875 19.4102 13.7883 19.4102 13.9126C19.4102 14.0369 19.5109 14.1377 19.6353 14.1377Z" fill="#231F20"/>
<path d="M19.6267 15.2017C19.8655 15.2017 20.0591 15.0081 20.0591 14.7693C20.0591 14.5305 19.8655 14.3369 19.6267 14.3369C19.3879 14.3369 19.1943 14.5305 19.1943 14.7693C19.1943 15.0081 19.3879 15.2017 19.6267 15.2017Z" fill="#231F20"/>
<path d="M19.9821 18.9173C20.4628 18.7067 20.7798 18.4176 20.7798 18.4176C20.4929 18.3417 20.1971 18.2341 19.9512 18.0723L19.9821 18.9173Z" fill="#601D0E"/>
<path d="M20.0591 14.7693C20.0591 14.9021 19.9992 15.0204 19.9047 15.0997C19.8857 15.1157 19.8652 15.1302 19.8436 15.1429C19.78 15.1801 19.706 15.2017 19.6267 15.2017C19.3878 15.2017 19.1943 15.0082 19.1943 14.7693C19.1943 14.7228 19.2018 14.6781 19.2152 14.6361C19.2714 14.4623 19.4343 14.3369 19.6267 14.3369C19.7428 14.3369 19.8481 14.3831 19.9255 14.4575C20.0077 14.5364 20.0591 14.6465 20.0591 14.7693Z" fill="#FFCE8D"/>
<path d="M19.9255 14.9675C19.9255 15.0137 19.9181 15.0583 19.9047 15.1C19.8857 15.116 19.8652 15.1305 19.8436 15.1432C19.78 15.1804 19.706 15.2019 19.6267 15.2019C19.3878 15.2019 19.1943 15.0085 19.1943 14.7696C19.1943 14.7231 19.2018 14.6784 19.2152 14.6364C19.2903 14.5731 19.3875 14.5352 19.4931 14.5352C19.6096 14.5352 19.7145 14.5809 19.7923 14.6557C19.8745 14.7342 19.9255 14.8447 19.9255 14.9675Z" fill="#FFBE58"/>
<path d="M24.1675 16.8987C24.1675 16.8987 24.1645 16.9158 24.1567 16.9463C24.0763 17.2652 23.4981 19.0568 20.7799 18.4176C20.493 18.3417 20.1972 18.2341 19.9513 18.0723C19.7723 17.9543 19.6201 17.8062 19.5196 17.615C19.3206 17.2365 19.3727 16.7651 19.5543 16.3777C19.6395 16.1962 19.7477 16.0265 19.8705 15.8661L19.8486 15.2708L19.8437 15.1431C19.9725 15.068 20.0592 14.9292 20.0592 14.7696C20.0592 14.6468 20.0078 14.5366 19.9256 14.4577C20.6638 14.4101 21.2484 13.7523 21.2484 12.9478C21.2484 12.1433 20.6177 11.4349 19.8396 11.4349C19.5494 11.4349 19.2796 11.5297 19.0553 11.6912C19.2651 13.0073 18.5477 13.8445 18.0815 14.2378C17.8776 14.4097 17.7217 14.4968 17.712 14.502C17.8036 14.3792 17.8657 14.1917 17.9074 13.9811C18.0343 13.3351 17.8716 12.6728 17.4995 12.1296C17.1155 11.5692 17.1524 10.8034 17.1803 10.5329V10.531C17.187 10.4685 17.1929 10.4332 17.1929 10.4332C14.4201 9.9543 13.9714 7.32844 13.9714 7.32844C13.9714 7.32844 13.4906 8.6103 12.4272 9.3597C12.4272 9.3597 12.4269 9.3597 12.4264 9.3597C12.0785 9.60491 11.6685 9.79319 11.1922 9.86054C11.1461 10.0228 11.1059 10.1861 11.0716 10.3506C10.662 12.3268 10.2973 16.5526 12.7353 17.4278C12.9291 17.4974 13.1405 17.5457 13.3712 17.5703C13.4791 17.5815 13.5848 17.59 13.6886 17.5956C13.7496 17.5993 13.8095 17.6019 13.869 17.6038V19.0192C13.4449 18.9757 12.1448 18.7766 11.7559 17.9498C11.7559 17.9498 11.7515 17.9521 11.7433 17.9558C11.5494 18.0477 9.19183 19.1033 8.82532 16.415C8.82383 16.4049 8.81266 16.3926 8.79331 16.3785C8.63815 16.268 7.97323 16.0581 7.87685 15.9949C7.50848 15.7519 7.22941 15.3683 7.13006 14.9366C6.95629 14.1835 7.34848 13.6403 7.77751 13.0803C8.227 12.4935 8.59351 11.9271 8.63295 11.1658C8.66123 10.6244 8.63518 10.0711 8.79369 9.55281C9.04559 8.72937 9.93118 7.90445 10.8056 7.78166C10.8056 7.78166 10.0689 5.60379 12.9801 5.35151C13.0396 5.3463 13.1007 5.34184 13.1632 5.33849C13.1632 5.33849 13.2037 5.29459 13.2823 5.22277C13.2934 5.21235 13.3053 5.20156 13.318 5.19002L13.3202 5.18779C13.4207 5.097 13.568 4.97347 13.7563 4.83877C13.9636 4.6903 14.2207 4.52882 14.5206 4.3837C14.5347 4.377 14.5485 4.3703 14.5626 4.3636C14.6378 4.32826 14.7126 4.29514 14.7874 4.26463C14.8063 4.25682 14.8249 4.24937 14.8436 4.24193C16.1701 3.71467 18.1526 3.62165 20.3133 5.92045C20.3889 6.00045 20.4644 6.08379 20.5399 6.16975H20.5403C20.547 6.17756 20.5537 6.185 20.5604 6.19281C20.5656 6.19839 20.5704 6.20434 20.5756 6.20993C20.5756 6.20993 20.6102 6.20845 20.6724 6.20956C21.2275 6.21849 23.9777 6.42835 23.8463 9.68491C23.8463 9.68491 25.8322 10.7949 25.1606 12.985C25.1606 12.985 25.1959 13.0155 25.2532 13.0721C25.7102 13.5204 27.5662 15.6012 24.1675 16.8983V16.8987Z" fill="#601D0E"/>
<path d="M25.2814 22.8625C25.2803 22.8688 25.2788 22.8755 25.2777 22.8818C25.2762 22.8878 25.2747 22.8952 25.2728 22.9038C25.2721 22.9086 25.271 22.9135 25.2699 22.9183C25.268 22.9265 25.2661 22.9358 25.2639 22.9455C25.2021 23.2279 24.9681 24.2061 24.4349 25.5084C24.4256 25.5311 24.4163 25.5538 24.407 25.5765C24.3887 25.6201 24.3705 25.6636 24.3523 25.7071C24.3411 25.7339 24.3296 25.7604 24.318 25.7871C24.3005 25.8284 24.2827 25.8701 24.2645 25.9122C24.1748 26.1176 24.0818 26.3215 23.985 26.5239C23.9597 26.5763 23.9344 26.6288 23.9087 26.6809C23.8898 26.72 23.8704 26.7591 23.8511 26.7978C23.8388 26.8227 23.8261 26.848 23.8135 26.8729C23.7953 26.9098 23.7763 26.9462 23.7577 26.9831C23.6717 27.152 23.5828 27.3198 23.4912 27.4857C23.4671 27.53 23.4425 27.5743 23.4176 27.6186C23.4135 27.626 23.409 27.6338 23.4046 27.6417C23.3807 27.6844 23.3562 27.7276 23.3316 27.7704C23.2513 27.9107 23.169 28.0502 23.0849 28.1883C23.0686 28.2158 23.0518 28.2433 23.0347 28.2705C23.0179 28.298 23.0008 28.3256 22.9837 28.3531C22.8486 28.5704 22.7058 28.7896 22.5554 29.0095C22.5532 29.0128 22.551 29.0162 22.5487 29.0195C22.2633 29.4352 21.9512 29.8526 21.6088 30.2657C21.4127 30.5023 21.2073 30.7371 20.9908 30.9693C20.9357 31.0285 20.8803 31.0872 20.8237 31.146C20.6741 31.3027 20.5193 31.4578 20.3597 31.6111C20.2704 31.6967 20.1796 31.7819 20.0873 31.8664C19.1839 32.6936 18.132 33.4593 16.9097 34.0997V34.0978C16.9097 34.0978 16.9097 34.0978 16.91 34.0971C16.9837 33.9937 19.1619 30.8878 20.1019 26.0871C20.3966 24.5819 20.5692 22.9109 20.5175 21.1133L23.348 21.5163L23.9608 21.6045L24.0059 21.6108L24.3623 21.6621L24.4427 21.6737L24.5502 21.6893L24.5257 21.7265L23.3677 23.4604L25.2818 22.8625H25.2814Z" fill="#BA5952"/>
<path d="M19.6908 25.8011L16.9496 24.3582L16.9358 24.3656C16.2865 26.9561 16.9633 30.6149 16.9101 34.0981C16.9957 33.9775 20.7356 28.6577 20.5179 21.1135L20.4677 21.1064L20.4699 21.1109L19.6912 25.8015L19.6908 25.8011Z" fill="#FCD2E6"/>
<path d="M16.9078 34.101C16.8472 34.0694 16.7873 34.0374 16.7274 34.0046C16.6905 33.9849 16.6541 33.9652 16.6176 33.9447C16.5528 33.909 16.4885 33.8729 16.4248 33.8364C16.375 33.8082 16.3255 33.7795 16.2764 33.7505C16.2328 33.7248 16.1893 33.6991 16.1462 33.6731C16.1231 33.6593 16.1 33.6452 16.0773 33.631C16.0427 33.6106 16.0085 33.5894 15.9742 33.5682C15.9422 33.5484 15.9102 33.5283 15.879 33.5086C15.8515 33.4911 15.8235 33.4736 15.7964 33.4562C15.6249 33.3468 15.4574 33.2344 15.2941 33.1198C15.2647 33.0997 15.2356 33.0792 15.207 33.0588C15.127 33.0022 15.0481 32.9449 14.9703 32.8872C14.9257 32.8541 14.881 32.821 14.8368 32.7871C14.8345 32.7856 14.8323 32.7842 14.8301 32.7823C14.7928 32.754 14.756 32.7258 14.7192 32.6975C14.6626 32.6539 14.6068 32.61 14.5517 32.5661C14.5138 32.536 14.4762 32.5058 14.439 32.4753C14.3482 32.402 14.2593 32.328 14.1714 32.2532C14.1365 32.223 14.1015 32.1933 14.0669 32.1631C14.023 32.1252 13.9798 32.0872 13.9367 32.0489C13.8961 32.0128 13.8555 31.9767 13.8157 31.9403C13.7796 31.9079 13.7443 31.8755 13.7089 31.8428C13.665 31.8022 13.6215 31.7617 13.5787 31.7211C13.5009 31.6474 13.4243 31.5734 13.3488 31.4989C13.3112 31.4617 13.2736 31.4245 13.2364 31.387C13.1992 31.3497 13.1623 31.3122 13.1259 31.2746C13.0585 31.2057 12.9923 31.1369 12.9275 31.0673C12.8501 30.9851 12.7742 30.9025 12.6998 30.8195C12.6671 30.7834 12.6351 30.7473 12.6031 30.7112C12.567 30.6707 12.5316 30.6301 12.4967 30.5896C12.4635 30.5512 12.4304 30.5125 12.3977 30.4738C12.3649 30.4355 12.3322 30.3968 12.3002 30.3581C12.2652 30.3164 12.2306 30.2748 12.1964 30.2327C12.1674 30.197 12.1387 30.1613 12.1101 30.1256C12.0788 30.0869 12.0479 30.0482 12.017 30.0091C11.9865 29.9704 11.956 29.9313 11.9259 29.8923C11.8957 29.8536 11.866 29.8145 11.8362 29.7754C11.8332 29.7713 11.8299 29.7672 11.8265 29.7628C11.7789 29.6999 11.732 29.637 11.6855 29.5741C11.6487 29.5242 11.6126 29.4744 11.5768 29.4245C11.5486 29.3855 11.5207 29.3464 11.4931 29.3073C11.4656 29.2683 11.4381 29.2296 11.4113 29.1905C11.3841 29.1514 11.3573 29.1123 11.3305 29.0733C11.3041 29.0346 11.2777 28.9955 11.2513 28.9564C11.2252 28.9178 11.1995 28.8787 11.1739 28.84C11.1694 28.8333 11.1653 28.8266 11.1608 28.8203C11.1396 28.7879 11.1184 28.7555 11.0976 28.7231C11.0723 28.6844 11.0474 28.6457 11.0228 28.6067C10.9982 28.568 10.9737 28.5293 10.9495 28.4906C10.919 28.4426 10.8892 28.3942 10.8598 28.3458C10.8181 28.2785 10.7776 28.2111 10.7378 28.1438C10.7151 28.1055 10.6924 28.0671 10.6701 28.0292C10.6477 27.9909 10.6254 27.9525 10.6035 27.9146C10.5986 27.906 10.5938 27.8975 10.5886 27.8889C10.5499 27.8212 10.5119 27.7538 10.4747 27.6869C10.4535 27.6489 10.433 27.6113 10.4122 27.5737C10.3917 27.5362 10.3713 27.4986 10.3512 27.461C10.311 27.3862 10.2715 27.3118 10.2329 27.2378C10.2135 27.2009 10.1942 27.1637 10.1755 27.1269C10.1566 27.09 10.138 27.0532 10.1194 27.0167C10.0993 26.9769 10.0795 26.9375 10.0598 26.8977C10.0256 26.8281 9.99173 26.7592 9.95899 26.6908C9.94187 26.655 9.92476 26.6193 9.90801 26.5836C9.89127 26.5479 9.87452 26.5125 9.85815 26.4772C9.80866 26.3715 9.7614 26.267 9.71564 26.1635C9.70038 26.1293 9.6855 26.095 9.67061 26.0608C9.65238 26.0195 9.63452 25.9786 9.61741 25.9376C9.60587 25.9112 9.5947 25.8848 9.58354 25.8584C9.51321 25.6917 9.44736 25.5295 9.38597 25.3721C9.37369 25.3404 9.36141 25.3092 9.3495 25.2779C9.2989 25.1466 9.25164 25.019 9.20736 24.8954C9.19024 24.8485 9.17387 24.802 9.15787 24.7562C9.11582 24.6357 9.07638 24.5192 9.03992 24.408C9.0321 24.3842 9.02429 24.3603 9.01684 24.3369C8.99824 24.2792 8.98038 24.2231 8.96326 24.168C8.9521 24.1319 8.94094 24.0965 8.93052 24.0619C8.87285 23.8725 8.82484 23.7017 8.78466 23.5525C8.77833 23.5283 8.77201 23.5049 8.76605 23.4818C8.7467 23.4082 8.72959 23.3401 8.71471 23.2787C8.70913 23.2564 8.70392 23.2344 8.69871 23.2136C8.69015 23.1771 8.68196 23.1432 8.67489 23.112C8.67154 23.0975 8.66857 23.0837 8.66559 23.0703C8.63582 22.9375 8.6228 22.8657 8.6228 22.8657L10.5368 23.464L9.95155 22.5877L9.35396 21.6928L9.76289 21.6336L12.4219 21.2549L13.3867 21.1172C13.0715 27.7337 16.7813 33.893 16.9045 34.0958C16.906 34.0976 16.9067 34.0991 16.9071 34.0999C16.9071 34.1006 16.9078 34.101 16.9078 34.101Z" fill="#BA5952"/>
<path d="M16.9098 34.0994C16.896 34.9999 16.8331 35.8885 16.6861 36.7439H-2.21582V32.4637L4.71255 23.1528C5.12669 22.5962 5.74064 22.2222 6.42455 22.1091C6.4305 22.108 6.43683 22.1072 6.44278 22.1061L9.76297 21.6328L9.35404 21.692L9.95162 22.5869L10.5369 23.4631L8.62288 22.8648C8.62288 22.8648 8.6359 22.9366 8.66566 23.0695C8.66864 23.0829 8.67162 23.0966 8.67497 23.1111C8.68204 23.1424 8.69023 23.1763 8.69879 23.2127C8.70362 23.2336 8.70883 23.2551 8.71478 23.2778C8.72967 23.3392 8.74678 23.4073 8.76613 23.481C8.77208 23.5041 8.77841 23.5275 8.78473 23.5517C8.82492 23.7009 8.87292 23.8717 8.9306 24.0611C8.94102 24.0957 8.95218 24.1311 8.96334 24.1672C8.98046 24.2222 8.99831 24.2784 9.01692 24.3361C9.02436 24.3595 9.03218 24.3833 9.03999 24.4071C9.07646 24.5184 9.1159 24.6349 9.15794 24.7554C9.17394 24.8012 9.19032 24.8477 9.20743 24.8946C9.25171 25.0181 9.29897 25.1457 9.34958 25.2771C9.36148 25.3083 9.37376 25.3396 9.38604 25.3712C9.44744 25.5286 9.51329 25.6909 9.58362 25.8576C9.59478 25.884 9.60595 25.9104 9.61748 25.9368C9.6346 25.9777 9.65246 26.0187 9.67069 26.06C9.68557 26.0942 9.70045 26.1284 9.71571 26.1627C9.76148 26.2661 9.80874 26.3707 9.85822 26.4763C9.8746 26.5117 9.89134 26.5471 9.90809 26.5828C9.92483 26.6185 9.94194 26.6542 9.95906 26.6899C9.9918 26.7584 10.0257 26.8272 10.0599 26.8968C10.0796 26.9366 10.0993 26.9761 10.1194 27.0159C10.138 27.0523 10.1566 27.0892 10.1756 27.126C10.1942 27.1629 10.2136 27.2001 10.2329 27.2369C10.2716 27.311 10.3111 27.3854 10.3512 27.4602C10.3713 27.4978 10.3918 27.5353 10.4123 27.5729C10.4331 27.6105 10.4536 27.6481 10.4748 27.686C10.512 27.753 10.5499 27.8204 10.5886 27.8881C10.5938 27.8966 10.5987 27.9052 10.6035 27.9138C10.6255 27.9517 10.6478 27.99 10.6701 28.0283C10.6925 28.0663 10.7152 28.1046 10.7378 28.143C10.7777 28.2103 10.8182 28.2777 10.8599 28.345C10.8893 28.3934 10.9191 28.4418 10.9496 28.4898C10.9738 28.5285 10.9983 28.5671 11.0229 28.6058C11.0474 28.6449 11.0724 28.6836 11.0977 28.7223C11.1185 28.7547 11.1397 28.7871 11.1609 28.8194C11.1654 28.8257 11.1695 28.8324 11.1739 28.8391C11.1996 28.8778 11.2253 28.9169 11.2513 28.9556C11.2778 28.9947 11.3042 29.0337 11.3306 29.0724C11.3574 29.1115 11.3842 29.1506 11.4113 29.1897C11.4381 29.2287 11.4657 29.2674 11.4932 29.3065C11.5207 29.3456 11.5486 29.3846 11.5769 29.4237C11.6126 29.4736 11.6487 29.5234 11.6856 29.5733C11.7321 29.6362 11.779 29.6991 11.8266 29.7619C11.8299 29.7664 11.8333 29.7705 11.8363 29.7746C11.866 29.8137 11.8958 29.8527 11.9259 29.8914C11.9561 29.9305 11.9866 29.9696 12.0171 30.0083C12.048 30.0473 12.0789 30.086 12.1101 30.1247C12.1388 30.1604 12.1674 30.1962 12.1965 30.2319C12.2307 30.2739 12.2653 30.3156 12.3003 30.3573C12.3323 30.396 12.365 30.4347 12.3978 30.473C12.4305 30.5117 12.4636 30.5504 12.4967 30.5887C12.5317 30.6293 12.5671 30.6698 12.6032 30.7104C12.6352 30.7465 12.6671 30.7826 12.6999 30.8187C12.7743 30.9017 12.8502 30.9843 12.9276 31.0665C12.9927 31.1361 13.0586 31.2049 13.1259 31.2737C13.1624 31.3113 13.1992 31.3489 13.2365 31.3861C13.2737 31.4237 13.3112 31.4609 13.3488 31.4981C13.4244 31.5725 13.501 31.6466 13.5788 31.7203C13.6216 31.7608 13.6651 31.8014 13.709 31.8419C13.7444 31.8747 13.7797 31.9071 13.8158 31.9394C13.8556 31.9759 13.8962 32.012 13.9367 32.0481C13.9799 32.0864 14.0231 32.1243 14.067 32.1623C14.1016 32.1924 14.1365 32.2222 14.1715 32.2523C14.2593 32.3271 14.3483 32.4012 14.4391 32.4745C14.4763 32.505 14.5138 32.5351 14.5518 32.5653C14.6069 32.6092 14.6627 32.6531 14.7192 32.6966C14.7561 32.7249 14.7929 32.7532 14.8301 32.7815C14.8324 32.7833 14.8346 32.7848 14.8368 32.7863C14.8811 32.8202 14.9258 32.8533 14.9704 32.8864C15.0482 32.9441 15.1271 33.0014 15.2071 33.0579C15.2357 33.0784 15.2651 33.0989 15.2941 33.119C15.4575 33.2336 15.6249 33.3459 15.7965 33.4553C15.824 33.4728 15.8512 33.4903 15.8791 33.5078C15.9103 33.5275 15.9423 33.5476 15.9743 33.5673C16.0085 33.5885 16.0428 33.6098 16.0774 33.6302C16.1001 33.6444 16.1232 33.6585 16.1462 33.6723C16.1894 33.6983 16.2329 33.724 16.2765 33.7497C16.3256 33.7787 16.3751 33.8073 16.4249 33.8356C16.4885 33.8721 16.5529 33.9082 16.6177 33.9439C16.6541 33.9644 16.6906 33.9841 16.7274 34.0038C16.7873 34.0365 16.8472 34.0685 16.9079 34.1002C16.9079 34.1002 16.909 34.1002 16.9098 34.0994Z" fill="#CA6754"/>
<path d="M29.217 23.2336C28.801 22.623 28.1517 22.2114 27.422 22.0957L23.348 21.5156L24.5502 21.6886L23.3673 23.4598L25.2814 22.8615C25.2814 22.8615 23.8138 30.4816 16.9097 34.0987C16.8959 34.9992 16.833 35.8877 16.686 36.7435H34.1387L34.1353 30.4529L29.217 23.2332V23.2336Z" fill="#CA6754"/>
<g style="mix-blend-mode:multiply">
<path d="M17.0511 24.501L19.204 26.223C19.2925 26.2941 19.4239 26.2688 19.4801 26.1702L19.5776 25.999L19.6743 25.8297C19.6851 25.8108 19.6925 25.7899 19.6963 25.7683L20.3828 21.6347C20.4114 21.4617 20.206 21.3497 20.0762 21.4677L17.0429 24.2197C16.9584 24.296 16.9629 24.4299 17.0514 24.501H17.0511Z" fill="#D38CB4"/>
</g>
<path d="M16.9079 34.1005C16.9079 34.1005 16.909 34.099 16.9098 34.0975C16.963 30.6143 16.2861 26.9559 16.9354 24.365L14.208 25.8006L13.4292 21.1104L13.3864 21.1163C13.066 27.8441 16.9075 34.1001 16.9075 34.1001L16.9079 34.1005Z" fill="#FCD2E6"/>
<path d="M19.6353 14.1377C19.7596 14.1377 19.8604 14.0369 19.8604 13.9126C19.8604 13.7883 19.7596 13.6875 19.6353 13.6875C19.5109 13.6875 19.4102 13.7883 19.4102 13.9126C19.4102 14.0369 19.5109 14.1377 19.6353 14.1377Z" fill="#FFBE58"/>
<path d="M14.1529 13.9297C13.2844 13.7812 13.0935 14.3032 13.0935 14.3032C13.0935 14.3032 14.0881 14.394 15.383 13.6952C14.4453 13.4165 14.1525 13.9297 14.1525 13.9297H14.1529Z" fill="#D3201C"/>
<path d="M13.2261 14.3081C13.2261 14.3081 14.3777 15.213 15.2291 13.7764C15.2291 13.7764 14.3695 14.2638 13.2261 14.3081Z" fill="#D3201C"/>
<g style="mix-blend-mode:screen">
<path d="M12.5 17.3294C10.3218 16.2734 10.6753 12.2611 11.0716 10.3512C11.1058 10.1867 11.146 10.0234 11.1921 9.86114C11.482 9.82021 11.7473 9.73426 11.9888 9.61816L12.039 9.65575C12.039 9.65575 10.5451 13.2557 12.5 17.3294Z" fill="#C4816A"/>
</g>
<g style="mix-blend-mode:multiply">
<path d="M17.9576 15.8246C17.9576 15.8246 17.0534 19.5522 13.8501 20.0769L13.8694 17.6039C13.8694 17.6039 16.012 17.9615 17.958 15.8242L17.9576 15.8246Z" fill="#CC8E75"/>
</g>
<path d="M16.9495 24.32L16.9699 24.3472L16.9495 24.358L19.6907 25.801L20.4695 21.1104L20.4669 21.1059L20.0326 20.2888L20.0296 20.2832L16.9495 24.32Z" fill="#FFBE58"/>
<g style="mix-blend-mode:screen">
<path d="M20.0327 20.2891L20.161 20.5309L18.1473 24.9752L16.97 24.3475L20.0327 20.2891Z" fill="#EAB26E"/>
</g>
<g style="mix-blend-mode:multiply">
<path d="M16.9701 24.3471L14.342 26.4696C14.2493 26.5444 14.1109 26.4874 14.0971 26.3695L13.6272 22.3018L16.9701 24.3471Z" fill="#D38CB4"/>
</g>
<path d="M16.9354 24.3654L16.9496 24.358L16.97 24.3472L16.9496 24.32L13.869 20.2832V20.2836L13.4292 21.1104L13.4296 21.1107L14.2084 25.801L16.9354 24.3654Z" fill="#FFBE58"/>
<g style="mix-blend-mode:screen">
<path d="M13.869 20.2832L16.9701 24.3468L15.7775 24.9745L13.8289 20.3584L13.869 20.2832Z" fill="#EAB26E"/>
</g>
<g style="mix-blend-mode:multiply">
<path d="M13.9246 26.4619C15.2269 31.5901 16.8299 33.999 16.9099 34.098C16.9002 34.0742 17.1566 33.82 17.1566 33.6195C17.1566 32.936 16.3852 31.6608 15.8747 30.6915C15.1982 29.4074 13.9249 26.4619 13.9249 26.4619H13.9246Z" fill="#D38CB4"/>
</g>
<g style="mix-blend-mode:screen" opacity="0.8">
<path d="M16.9097 34.0996H16.9071L16.9052 34.0989C11.3413 31.1839 9.36623 25.6717 8.80884 23.6412L8.86279 23.6211C8.86279 23.6211 11.6263 30.1517 16.9045 34.0951C16.9063 34.0966 16.9078 34.0981 16.9097 34.0996Z" fill="#CA6754"/>
</g>
<g style="mix-blend-mode:screen" opacity="0.8">
<path d="M20.3598 31.6113C20.2705 31.6969 20.1797 31.7821 20.0874 31.8666C20.1116 31.826 20.1983 31.743 20.3598 31.6113Z" fill="#CA6754"/>
</g>
<g style="mix-blend-mode:screen" opacity="0.8">
<path d="M25.2814 22.863C25.2803 22.8694 25.2788 22.8761 25.2777 22.8824C25.2762 22.8883 25.2747 22.8958 25.2728 22.9044C25.2721 22.9092 25.271 22.914 25.2699 22.9189C25.268 22.927 25.2662 22.9363 25.2639 22.946C25.2022 23.2284 24.9681 24.2067 24.4349 25.509C24.4256 25.5317 24.4163 25.5544 24.407 25.5771C24.3888 25.6206 24.3705 25.6642 24.3523 25.7077C24.3411 25.7345 24.3296 25.7609 24.3181 25.7877C24.3006 25.829 24.2827 25.8707 24.2645 25.9127C24.1748 26.1181 24.0818 26.322 23.985 26.5244C23.9597 26.5769 23.9344 26.6294 23.9087 26.6815C23.8898 26.7205 23.8704 26.7596 23.8511 26.7983C23.8388 26.8232 23.8262 26.8485 23.8135 26.8735C23.7953 26.9103 23.7763 26.9468 23.7577 26.9836C23.6717 27.1525 23.5828 27.3203 23.4913 27.4863C23.4671 27.5306 23.4425 27.5749 23.4176 27.6191C23.4135 27.6266 23.409 27.6344 23.4046 27.6422C23.3808 27.685 23.3562 27.7282 23.3316 27.7709C23.2513 27.9112 23.169 28.0508 23.0849 28.1888C23.0686 28.2163 23.0518 28.2439 23.0347 28.271C23.018 28.2986 23.0008 28.3261 22.9837 28.3537C22.8487 28.571 22.7058 28.7901 22.5555 29.01C22.5532 29.0134 22.551 29.0167 22.5488 29.0201C22.2634 29.4357 21.9512 29.8532 21.6089 30.2662C21.4128 30.5029 21.2074 30.7377 20.9908 30.9698C20.9357 31.029 20.8803 31.0878 20.8237 31.1466C22.5465 29.1172 24.3035 23.9146 24.3035 23.9146C24.3035 23.9146 22.1171 24.5617 22.0401 24.3209C21.9638 24.0824 23.9352 21.6206 23.9352 21.6206L24.0059 21.6113L24.3623 21.6627L24.4427 21.6742L24.5502 21.6898L24.5257 21.727L23.3677 23.461L25.2818 22.863H25.2814Z" fill="#CA6754"/>
</g>
<g style="mix-blend-mode:multiply" opacity="0.7">
<path d="M12.422 21.2549C12.3021 21.3416 12.1704 21.4171 12.0636 21.5094C11.4184 22.0657 10.7929 22.4642 9.95163 22.5877C9.88986 22.597 9.82698 22.6048 9.76298 22.6108C8.64223 22.7168 7.52744 22.4147 6.44242 22.1152C6.43647 22.1137 6.43051 22.1118 6.42456 22.11C6.43051 22.1088 6.43684 22.1081 6.44279 22.107L9.76298 21.6337L12.422 21.2549Z" fill="#BA5952"/>
</g>
<g style="mix-blend-mode:screen" opacity="0.7">
<path d="M20.7799 18.4178C20.493 18.3418 20.1972 18.2343 19.9512 18.0725C19.7723 17.9545 19.6201 17.8064 19.5196 17.6151C19.3205 17.2367 19.3726 16.7653 19.5542 16.3779C19.6394 16.1964 19.7477 16.0267 19.8705 15.8663L20.3858 15.3037C20.3858 15.3037 20.3858 15.3041 20.3851 15.3048C20.3609 15.3592 19.4255 17.4793 20.7799 18.4178Z" fill="#992F29"/>
</g>
<path d="M8.79331 16.3791C8.63815 16.2686 7.97323 16.0587 7.87685 15.9954C7.50848 15.7525 7.22941 15.3688 7.13006 14.9372C6.95629 14.1841 7.34848 13.6408 7.77751 13.0808C8.227 12.494 8.59351 11.9277 8.63295 11.1664C8.66123 10.625 8.63518 10.0717 8.79369 9.55339C9.04559 8.72995 9.93118 7.90502 10.8056 7.78223C10.4908 7.82651 10.0402 8.53237 9.8828 8.75972C9.48466 9.3346 9.5215 9.89051 9.50959 10.564C9.49434 11.4302 9.1989 12.289 8.67834 12.9819C8.36541 13.3979 7.96132 13.7811 7.8549 14.2909C7.7109 14.9804 8.22736 15.9761 8.79331 16.3791Z" fill="#992F29"/>
<g style="mix-blend-mode:multiply" opacity="0.32">
<path d="M24.1674 16.8983C24.1674 16.8983 24.1644 16.9154 24.1566 16.9459C24.1011 16.8808 24.058 16.8064 24.0308 16.7241C23.9579 16.5031 24.0077 16.2601 24.0877 16.0414C24.1707 15.8129 24.2864 15.5967 24.4293 15.4002C24.6191 15.1401 24.8591 14.9124 24.9975 14.6218C25.2401 14.1113 25.0868 13.6019 25.0667 13.0743C25.1303 13.0672 25.1925 13.0665 25.2531 13.0721C25.7101 13.5204 27.5661 15.6012 24.1674 16.8983Z" fill="#601D0E"/>
</g>
<path d="M18.2451 14.0465C18.193 14.112 18.1391 14.1767 18.0814 14.2381C17.8708 14.4156 17.7115 14.5027 17.7115 14.5027C17.8034 14.3799 17.8656 14.1924 17.9072 13.9814C18.0341 13.3354 17.8715 12.6731 17.4994 12.1299C17.1154 11.5695 17.1523 10.8037 17.1802 10.5332C17.2111 10.5403 17.2323 10.5682 17.2494 10.5953C17.2609 10.6143 17.2717 10.6337 17.2818 10.6534C17.367 10.819 17.4001 11.0084 17.4604 11.1862C17.7186 11.9475 18.4743 12.4112 18.5837 13.245C18.6239 13.5512 18.4293 13.8154 18.2451 14.0465Z" fill="#992F29"/>
<g style="mix-blend-mode:screen" opacity="0.8">
<path d="M20.979 12.2204C20.9444 12.2409 20.8919 12.2468 20.8313 12.2342C20.6411 12.1944 20.509 12.0214 20.3334 11.9384C20.1184 11.8364 19.8676 11.8792 19.6298 11.8867C19.5528 11.8893 19.4739 11.8874 19.4021 11.8599C19.3303 11.8323 19.2659 11.775 19.2488 11.6999C19.1896 11.4368 19.6863 11.4346 19.8397 11.4346C20.1392 11.4346 20.4328 11.5488 20.6705 11.7278C20.7918 11.8189 20.8979 11.928 20.9876 12.0508C21.0441 12.1282 21.0311 12.1903 20.979 12.2208V12.2204Z" fill="#CC8E75"/>
</g>
<path d="M19.802 13.8666C19.8183 13.8335 19.7779 13.7801 19.7118 13.7475C19.6456 13.7149 19.5787 13.7153 19.5623 13.7485C19.546 13.7817 19.5864 13.835 19.6525 13.8677C19.7187 13.9003 19.7856 13.8998 19.802 13.8666Z" fill="#FFCE8D"/>
<g style="mix-blend-mode:multiply">
<path d="M17.1928 10.4332C17.1928 10.4332 17.1869 10.4686 17.1805 10.5311V10.533L17.169 10.6052C17.169 10.6052 14.5439 10.4455 13.908 8.23045C13.908 8.23045 13.5705 9.11454 12.1692 9.5231C13.2326 8.77371 13.9709 7.32812 13.9709 7.32812C13.9709 7.32812 14.4196 9.95399 17.1924 10.4329L17.1928 10.4332Z" fill="#CC8E75"/>
</g>
<g style="mix-blend-mode:multiply" opacity="0.32">
<path d="M13.8738 17.9964C13.8712 18.0276 13.8689 18.0596 13.8689 18.0916V18.9545C13.8689 18.9579 13.8678 19.0193 13.8689 19.0193C13.4448 18.9757 12.1447 18.7767 11.7558 17.9499C11.7558 17.9499 11.7514 17.9521 11.7432 17.9558C11.6784 17.7255 11.8005 17.5618 12.0167 17.4896C12.1357 17.4498 12.263 17.4345 12.388 17.4275C12.522 17.4196 12.6801 17.4048 12.8081 17.4431C13.0529 17.5171 13.3075 17.5849 13.5661 17.5629C13.6535 17.5555 13.7543 17.5424 13.8168 17.6038C13.844 17.6306 13.8582 17.6675 13.8682 17.7039C13.8957 17.8036 13.882 17.8985 13.8738 17.9956V17.9964Z" fill="#601D0E"/>
</g>
<path d="M20.4885 6.25429C20.4941 6.2755 20.4971 6.29708 20.4963 6.31904C20.4952 6.37039 20.4747 6.41987 20.4494 6.4649C20.3218 6.69336 20.0576 6.83811 19.7964 6.82285C19.4593 6.80313 19.0794 6.55829 18.7765 6.42025C18.4267 6.26099 18.1015 5.97596 17.7853 5.75457C17.1847 5.33447 16.5525 4.91438 15.8176 4.78229C15.3413 4.69671 14.8506 4.73764 14.375 4.82657C14.1722 4.86415 13.9415 4.90322 13.7559 4.83922C13.9631 4.69076 14.2202 4.52927 14.5201 4.38415C14.5343 4.37746 14.548 4.37076 14.5622 4.36406C14.6373 4.32871 14.7121 4.2956 14.7869 4.26509C14.8059 4.25727 14.8245 4.24983 14.8431 4.24238C14.97 4.19178 15.0991 4.14712 15.2301 4.10806C16.1834 3.81782 17.2197 3.93132 18.1317 4.30787C18.9778 4.65727 19.9903 5.29578 20.4308 6.1222C20.4532 6.16425 20.4762 6.20815 20.4878 6.25392L20.4885 6.25429Z" fill="#992F29"/>
<g style="mix-blend-mode:multiply">
<path d="M19.9977 18.7052C19.7461 18.6825 19.5355 18.5895 19.342 18.4247C18.8323 17.989 18.8546 17.2165 19.2587 16.7153C19.3245 16.6334 19.399 16.5586 19.4559 16.4704C19.4641 16.4578 19.4749 16.4433 19.4901 16.4444C19.5087 16.4459 19.5158 16.4697 19.5162 16.4883C19.5195 16.6595 19.4198 16.8321 19.3941 17.001C19.364 17.2001 19.428 17.4397 19.5199 17.6146C19.6204 17.8059 19.7725 17.954 19.9515 18.0719C19.9791 18.0902 19.9761 18.3622 19.9802 18.4042C19.9895 18.5043 19.9947 18.6074 20.001 18.7056C19.9999 18.7056 19.9988 18.7056 19.9977 18.7056V18.7052Z" fill="#CC8E75"/>
</g>
<path d="M19.7334 13.3108C19.7111 13.3108 19.6898 13.2971 19.6813 13.2751C19.6296 13.1404 19.6478 13.0146 19.7338 12.9116C19.922 12.6857 20.1885 12.8919 20.3023 12.9797C20.312 12.9871 20.3246 12.9975 20.3391 13.0094C20.5196 13.1579 20.5736 13.1687 20.5896 13.1616C20.5896 13.1616 20.6018 13.1482 20.5981 13.088C20.587 12.9142 20.533 12.7438 20.4415 12.5953C20.3674 12.4747 20.28 12.388 20.1818 12.3382C19.9697 12.2307 19.6965 12.2816 19.4577 12.346C19.4279 12.3542 19.3974 12.3363 19.3892 12.3066C19.381 12.2768 19.3989 12.2463 19.4286 12.2381C19.688 12.1685 19.9864 12.1138 20.232 12.2385C20.3488 12.2976 20.4512 12.3981 20.5364 12.5365C20.6372 12.7002 20.6967 12.8885 20.709 13.0805C20.715 13.1735 20.6919 13.2342 20.6402 13.2606C20.5427 13.3105 20.4032 13.2063 20.2681 13.095C20.2547 13.0839 20.2428 13.0742 20.2339 13.0675C20.0567 12.9306 19.9183 12.8636 19.8193 12.9823C19.7591 13.0545 19.7483 13.1371 19.7855 13.2346C19.7966 13.2632 19.7821 13.2956 19.7535 13.3067C19.7468 13.3094 19.7401 13.3105 19.7334 13.3105V13.3108Z" fill="#231F20"/>
<path d="M13.2097 13.1924C13.1825 13.1924 13.1557 13.1894 13.1297 13.1831C13.0411 13.1619 12.9689 13.1042 12.9154 13.0119C12.7725 12.7656 12.7814 12.3905 12.9418 11.8971C13.0724 11.4949 13.2841 11.1325 13.4534 10.862C13.4698 10.8359 13.5044 10.8281 13.5304 10.8445C13.5565 10.8609 13.5643 10.8955 13.5479 10.9215C13.3816 11.1868 13.1747 11.5414 13.0478 11.9321C12.8997 12.3876 12.8874 12.7418 13.0117 12.9565C13.0501 13.0224 13.0969 13.0611 13.1553 13.0752C13.3068 13.1113 13.5178 12.9732 13.6313 12.8992C13.6569 12.8824 13.6915 12.8895 13.7087 12.9156C13.7254 12.9412 13.7183 12.9758 13.6923 12.993C13.5412 13.0916 13.3704 13.1932 13.2097 13.1932V13.1924Z" fill="#231F20"/>
<path d="M14.0433 17.6619C13.9853 17.6619 13.9269 17.6611 13.8673 17.6593C13.8364 17.6585 13.8123 17.6328 13.813 17.602C13.8137 17.5711 13.8394 17.5462 13.8703 17.5476C16.0538 17.609 17.3419 16.4831 17.9146 15.8059C17.9347 15.7824 17.9697 15.7795 17.9931 15.7992C18.0165 15.8193 18.0195 15.8542 17.9998 15.8777C17.4298 16.5519 16.168 17.6615 14.043 17.6615L14.0433 17.6619Z" fill="#231F20"/>
<path d="M19.8704 15.922C19.8406 15.922 19.8157 15.8981 19.8145 15.868L19.7881 15.1447C19.787 15.1138 19.8112 15.0881 19.8417 15.087C19.8719 15.0855 19.8983 15.11 19.8994 15.1406L19.9258 15.8639C19.9269 15.8948 19.9027 15.9205 19.8722 15.9216C19.8715 15.9216 19.8707 15.9216 19.87 15.9216L19.8704 15.922Z" fill="#231F20"/>
<path d="M19.982 18.9723C19.9522 18.9723 19.9273 18.9485 19.9262 18.9184L19.8953 18.0734C19.8942 18.0425 19.9184 18.0168 19.9489 18.0157C19.9794 18.0142 20.0054 18.0388 20.0066 18.0693L20.0374 18.9143C20.0386 18.9452 20.0144 18.9709 19.9839 18.972C19.9831 18.972 19.9824 18.972 19.9816 18.972L19.982 18.9723Z" fill="#231F20"/>
<path d="M20.0326 20.344C20.0028 20.344 19.9779 20.3202 19.9768 20.2901L19.9266 18.9182C19.9254 18.8873 19.9496 18.8616 19.9801 18.8605C20.0103 18.8583 20.0367 18.8836 20.0378 18.9141L20.088 20.286C20.0891 20.3169 20.065 20.3425 20.0345 20.3437C20.0337 20.3437 20.033 20.3437 20.0322 20.3437L20.0326 20.344Z" fill="#231F20"/>
<path d="M13.3867 21.1724C13.3596 21.1724 13.3354 21.1523 13.3316 21.1244C13.3272 21.0939 13.3484 21.0656 13.3789 21.0612L13.4213 21.0552C13.4518 21.0511 13.4801 21.0719 13.4846 21.1025C13.489 21.133 13.4678 21.1612 13.4373 21.1657L13.3949 21.1717C13.3923 21.1717 13.3897 21.172 13.3871 21.172L13.3867 21.1724Z" fill="#231F20"/>
<path d="M23.3481 21.5721C23.3455 21.5721 23.3429 21.5721 23.3403 21.5717L20.5098 21.1687C20.4793 21.1643 20.458 21.136 20.4625 21.1055C20.467 21.075 20.4949 21.0537 20.5258 21.0582L23.3563 21.4612C23.3868 21.4657 23.408 21.4939 23.4035 21.5244C23.3994 21.5524 23.3756 21.5724 23.3485 21.5724L23.3481 21.5721Z" fill="#231F20"/>
<path d="M20.5175 21.1683C20.5149 21.1683 20.5123 21.1683 20.5097 21.168L20.4595 21.1609C20.429 21.1564 20.4077 21.1282 20.4122 21.0977C20.4167 21.0671 20.445 21.0459 20.4755 21.0504L20.5257 21.0575C20.5562 21.0619 20.5774 21.0902 20.573 21.1207C20.5689 21.1486 20.5451 21.1687 20.5179 21.1687L20.5175 21.1683Z" fill="#231F20"/>
<path d="M34.1386 36.8002H16.6859C16.6551 36.8002 16.6301 36.7753 16.6301 36.7444C16.6301 36.7136 16.6551 36.6886 16.6859 36.6886H34.0828L34.0794 30.4713L29.1708 23.2657C28.7652 22.6704 28.1245 22.2644 27.413 22.1517L23.3397 21.572C23.3092 21.5675 23.288 21.5392 23.2925 21.5087C23.2969 21.4782 23.3252 21.4574 23.3557 21.4615L27.4298 22.0415C28.1725 22.1591 28.8404 22.5826 29.2631 23.2032L34.1814 30.4229C34.1877 30.4322 34.1911 30.443 34.1911 30.4542L34.1944 36.7448C34.1944 36.7597 34.1885 36.7738 34.178 36.7842C34.1676 36.7947 34.1535 36.8006 34.1386 36.8006V36.8002Z" fill="#231F20"/>
<path d="M9.76294 21.6889C9.73578 21.6889 9.71159 21.6688 9.70787 21.6409C9.7034 21.6104 9.72461 21.5821 9.75513 21.5776L13.3789 21.0611C13.4094 21.0567 13.4377 21.0779 13.4422 21.1084C13.4467 21.1389 13.4255 21.1672 13.3949 21.1717L9.77112 21.6881C9.76852 21.6881 9.76592 21.6885 9.76331 21.6885L9.76294 21.6889Z" fill="#231F20"/>
<path d="M16.686 36.8001H-2.21591C-2.2468 36.8001 -2.27173 36.7752 -2.27173 36.7443V32.4641C-2.27173 32.4522 -2.26801 32.4403 -2.26056 32.4306L4.66743 23.1197C5.09646 22.543 5.7238 22.1634 6.43376 22.0511L9.75469 21.5777C9.78557 21.5733 9.81348 21.5945 9.81794 21.625C9.82241 21.6555 9.8012 21.6838 9.77069 21.6883L6.4505 22.1616C5.77031 22.2691 5.16864 22.6334 4.7571 23.1863L-2.15973 32.4823V36.6881H16.6864C16.7173 36.6881 16.7422 36.713 16.7422 36.7439C16.7422 36.7748 16.7173 36.7997 16.6864 36.7997L16.686 36.8001Z" fill="#231F20"/>
<path d="M13.8688 17.6599C13.8379 17.6599 13.813 17.6349 13.813 17.604C13.813 17.5732 13.8379 17.5479 13.8688 17.5479C13.8997 17.5479 13.9246 17.5724 13.9246 17.6033V17.6044C13.9246 17.6353 13.8997 17.6602 13.8688 17.6602V17.6599Z" fill="#231F20"/>
<path d="M13.8688 20.3395C13.8379 20.3395 13.813 20.3146 13.813 20.2837V19.0197C13.813 18.9888 13.8379 18.9639 13.8688 18.9639C13.8997 18.9639 13.9246 18.9888 13.9246 19.0197V20.2837C13.9246 20.3146 13.8997 20.3395 13.8688 20.3395Z" fill="#231F20"/>
<path d="M13.8688 19.0749C13.8379 19.0749 13.813 19.05 13.813 19.0191V17.6037C13.813 17.5728 13.8379 17.5479 13.8688 17.5479C13.8997 17.5479 13.9246 17.5728 13.9246 17.6037V19.0191C13.9246 19.05 13.8997 19.0749 13.8688 19.0749Z" fill="#231F20"/>
<path d="M13.8688 17.659C13.8688 17.659 13.8677 17.659 13.8673 17.659C13.701 17.6542 13.5321 17.643 13.365 17.6251C12.6033 17.5444 11.9946 17.1987 11.5559 16.5978C11.0368 15.8867 10.7566 14.8303 10.7224 13.4588C10.6885 12.0876 10.917 10.8199 11.0167 10.3388C11.0506 10.1747 11.0915 10.0084 11.138 9.84505C11.144 9.82384 11.1618 9.8082 11.1838 9.80486C13.0614 9.53844 13.9105 7.33006 13.9187 7.30774C13.9276 7.28429 13.9507 7.26978 13.9763 7.27164C14.0013 7.27388 14.0217 7.29285 14.0262 7.31778C14.0273 7.32411 14.1427 7.97491 14.5914 8.6737C15.0041 9.3163 15.7918 10.1334 17.202 10.3771C17.2321 10.3823 17.2526 10.411 17.2474 10.4411C17.2459 10.4508 17.0896 11.4324 17.5451 12.097C17.9402 12.6737 18.0883 13.3461 17.9615 13.9905C17.9354 14.1226 17.903 14.2372 17.8647 14.3332C18.277 14.0337 19.2336 13.1656 18.9996 11.6988C18.9962 11.678 19.0048 11.6571 19.0219 11.6449C19.2638 11.4703 19.5466 11.3781 19.839 11.3781C20.6465 11.3781 21.3036 12.0817 21.3036 12.9468C21.3036 13.8119 20.6997 14.4623 19.9287 14.5126C19.8986 14.5148 19.8714 14.4914 19.8696 14.4605C19.8677 14.4296 19.8908 14.4032 19.9216 14.4013C20.6342 14.3552 21.1923 13.7163 21.1923 12.9472C21.1923 12.1781 20.5855 11.4901 19.8394 11.4901C19.5815 11.4901 19.3319 11.5682 19.1153 11.7163C19.2619 12.7053 18.885 13.4201 18.5408 13.8473C18.1643 14.3146 17.7553 14.5412 17.7378 14.5505C17.7148 14.5632 17.6861 14.558 17.669 14.5382C17.6519 14.5185 17.6508 14.4891 17.6664 14.4683C17.7453 14.3634 17.8074 14.1956 17.8521 13.9693C17.973 13.3546 17.8312 12.712 17.4528 12.1602C17.0297 11.5429 17.1012 10.7005 17.1295 10.4776C15.7107 10.2156 14.914 9.38513 14.4947 8.73025C14.1706 8.22457 14.018 7.75277 13.9548 7.50904C13.8591 7.72077 13.6619 8.11258 13.3501 8.52449C12.9352 9.07258 12.2331 9.75463 11.2355 9.90979C11.1938 10.0594 11.157 10.2112 11.1257 10.3611C11.0268 10.8385 10.7998 12.0962 10.8336 13.4558C10.8671 14.8043 11.1402 15.8391 11.6456 16.5319C12.0649 17.1064 12.6472 17.4369 13.3762 17.5142C13.5402 17.5317 13.7062 17.5429 13.8699 17.5474C13.9008 17.5481 13.925 17.5738 13.9242 17.6047C13.9235 17.6348 13.8986 17.659 13.8684 17.659H13.8688Z" fill="#231F20"/>
<path d="M13.8694 19.0749C13.8675 19.0749 13.8656 19.0749 13.8638 19.0749C13.6439 19.0522 13.2104 18.9908 12.7803 18.8308C12.2649 18.6391 11.9122 18.3679 11.7306 18.0237C11.6312 18.0683 11.3938 18.1655 11.0909 18.2306C10.5641 18.3433 10.0915 18.3005 9.72425 18.1063C9.20816 17.8332 8.88779 17.2702 8.7717 16.4326C8.71961 16.3805 8.39514 16.2596 8.19942 16.1863C8.00928 16.1152 7.89021 16.0702 7.84704 16.0416C7.45821 15.7856 7.17728 15.3874 7.07644 14.9495C6.89151 14.1465 7.33914 13.5623 7.73393 13.0466C8.13876 12.5178 8.53765 11.937 8.57784 11.1631C8.58417 11.041 8.58788 10.9156 8.59123 10.7947C8.60351 10.3768 8.61616 9.94482 8.74081 9.53663C9.00239 8.68194 9.88723 7.88826 10.7349 7.73644C10.6783 7.52547 10.5395 6.83263 10.9488 6.22687C11.3284 5.66538 12.0651 5.34835 13.139 5.28435C13.2956 5.12584 14.5905 3.87598 16.4201 3.87598C16.4428 3.87598 16.4655 3.87598 16.4885 3.87672C17.9151 3.90091 19.299 4.66742 20.6013 6.15393C20.8082 6.15318 22.1429 6.17551 23.0463 7.07635C23.6539 7.68249 23.9423 8.54984 23.9044 9.65421C24.0193 9.72379 24.4391 9.99728 24.8011 10.4806C25.1814 10.9889 25.5613 11.831 25.2253 12.9673C25.4076 13.1337 26.3899 14.0851 26.2039 15.1407C26.0744 15.8756 25.4057 16.4806 24.2173 16.9398C24.1816 17.095 23.9903 17.7755 23.3064 18.222C22.6802 18.6313 21.8359 18.7173 20.7966 18.478C20.7155 18.5476 20.423 18.7854 20.0059 18.9681C19.9777 18.9807 19.9449 18.9677 19.9323 18.9394C19.92 18.9111 19.9326 18.8784 19.9609 18.8657C20.4268 18.6618 20.7401 18.3787 20.7434 18.3761C20.7572 18.3638 20.7758 18.3586 20.7936 18.3631C21.8136 18.6031 22.6381 18.5245 23.2435 18.1301C23.9628 17.6613 24.1123 16.8963 24.1138 16.8888C24.1176 16.8698 24.1306 16.8538 24.1488 16.8468C25.3161 16.4014 25.9702 15.8209 26.0937 15.1221C26.1924 14.5629 25.9259 14.0252 25.6848 13.6724C25.4206 13.2858 25.1282 13.0306 25.1252 13.028C25.1084 13.0135 25.1017 12.9904 25.1084 12.9696C25.3816 12.0791 25.248 11.2643 24.7118 10.548C24.311 10.0125 23.8251 9.73719 23.8203 9.73459C23.802 9.72417 23.7909 9.70445 23.7916 9.68361C23.8355 8.59598 23.5583 7.74575 22.9682 7.15673C22.0271 6.21719 20.5931 6.26593 20.5789 6.26667C20.5618 6.26742 20.5458 6.26035 20.5347 6.2477C19.2495 4.77346 17.888 4.01365 16.4885 3.98909C16.4658 3.98872 16.4431 3.98835 16.4204 3.98835C14.5265 3.98835 13.2186 5.36361 13.2052 5.37775C13.1955 5.38817 13.1817 5.39449 13.1676 5.39524C12.119 5.45403 11.4043 5.75468 11.0426 6.289C10.5942 6.9517 10.8573 7.75616 10.8599 7.76435C10.8651 7.77998 10.8632 7.79747 10.8547 7.81161C10.8461 7.82575 10.8312 7.83542 10.8149 7.83765C9.98695 7.95412 9.10509 8.73105 8.84834 9.56975C8.72816 9.96342 8.71551 10.3876 8.7036 10.7984C8.69988 10.9201 8.69654 11.0458 8.68984 11.1694C8.64779 11.9757 8.23849 12.5725 7.82286 13.115C7.34807 13.7346 7.02435 14.2269 7.18546 14.9249C7.27997 15.3353 7.54379 15.7085 7.90881 15.9489C7.94379 15.972 8.09374 16.0282 8.23886 16.0821C8.75718 16.2756 8.87142 16.3333 8.88146 16.4084C8.99123 17.2133 9.29226 17.7517 9.77635 18.0077C10.6095 18.4486 11.7209 17.9061 11.7317 17.9005C11.7451 17.8938 11.7607 17.8927 11.7749 17.8979C11.789 17.9028 11.8005 17.9132 11.8072 17.927C12.186 18.7318 13.4861 18.9245 13.8757 18.9643C13.9062 18.9673 13.9285 18.9949 13.9256 19.0258C13.9226 19.0544 13.8984 19.076 13.8701 19.076L13.8694 19.0749Z" fill="#231F20"/>
<path d="M19.8704 15.9217C19.8585 15.9217 19.8466 15.9179 19.8366 15.9101C19.812 15.8915 19.8075 15.8562 19.8262 15.832C20.087 15.4919 20.4141 15.1931 20.7549 14.891C20.778 14.8705 20.8133 14.8727 20.8338 14.8958C20.8542 14.9189 20.852 14.9542 20.829 14.9747C20.4799 15.2843 20.17 15.5674 19.9147 15.9001C19.9036 15.9142 19.8872 15.922 19.8704 15.922V15.9217Z" fill="#231F20"/>
<path d="M20.7797 18.4733C20.7749 18.4733 20.7701 18.4726 20.7656 18.4714C20.4181 18.3795 20.1416 18.2642 19.9206 18.1191C19.8949 18.1019 19.8878 18.0674 19.9046 18.0417C19.9217 18.016 19.9563 18.0089 19.982 18.0257C20.1926 18.1645 20.4583 18.275 20.7943 18.3635C20.824 18.3713 20.8419 18.4019 20.8341 18.4316C20.8274 18.4566 20.8047 18.4733 20.7801 18.4733H20.7797Z" fill="#231F20"/>
<path d="M19.9511 18.1276C19.9407 18.1276 19.9299 18.1247 19.9206 18.1183C19.7185 17.9851 19.5671 17.8244 19.47 17.6402C19.2813 17.2815 19.294 16.8007 19.5035 16.3535C19.5857 16.1782 19.6914 16.0074 19.8261 15.8314C19.8447 15.8069 19.8796 15.8024 19.9042 15.821C19.9288 15.8396 19.9332 15.875 19.9146 15.8992C19.7848 16.0685 19.6832 16.2326 19.6047 16.4004C19.4097 16.816 19.3967 17.2595 19.5689 17.5877C19.6583 17.7574 19.7933 17.9003 19.982 18.0246C20.0076 18.0417 20.0147 18.0763 19.998 18.102C19.9872 18.1183 19.9693 18.1269 19.9515 18.1269L19.9511 18.1276Z" fill="#231F20"/>
<path d="M16.9492 24.3758C16.9373 24.3758 16.9254 24.3721 16.9153 24.3643C16.8908 24.3457 16.8859 24.3107 16.9049 24.2861L19.9851 20.2493C19.9966 20.234 20.0156 20.2262 20.0339 20.2277C20.0528 20.2292 20.0696 20.2404 20.0785 20.2571L20.0815 20.2627C20.096 20.2899 20.0856 20.3237 20.0584 20.3382C20.058 20.3382 20.0577 20.3386 20.0573 20.339L16.9935 24.3542C16.9827 24.3687 16.966 24.3762 16.9492 24.3762V24.3758Z" fill="#231F20"/>
<path d="M19.6908 25.8567C19.6819 25.8567 19.6729 25.8545 19.6648 25.8504L16.9235 24.4074C16.8964 24.3929 16.886 24.3594 16.9001 24.3319C16.9146 24.3047 16.9481 24.2939 16.9756 24.3084L19.6484 25.7153L20.4123 21.1152C20.4082 21.0921 20.4194 21.0679 20.4409 21.0564C20.4681 21.0418 20.502 21.0523 20.5165 21.0794L20.5187 21.0839C20.5247 21.0947 20.5265 21.107 20.5247 21.1192L19.7459 25.8098C19.7429 25.8273 19.7317 25.8426 19.7157 25.8508C19.7079 25.8545 19.6994 25.8567 19.6908 25.8567Z" fill="#231F20"/>
<path d="M20.467 21.1614C20.4469 21.1614 20.4275 21.1506 20.4175 21.1316L19.9829 20.3145C19.9684 20.2873 19.9788 20.2535 20.0059 20.239C20.0331 20.2245 20.067 20.2349 20.0815 20.262L20.5161 21.0792C20.5306 21.1063 20.5202 21.1402 20.493 21.1547C20.4848 21.1592 20.4759 21.1614 20.467 21.1614Z" fill="#231F20"/>
<path d="M16.9494 24.414C16.9293 24.414 16.9099 24.4033 16.8999 24.3843C16.8925 24.3698 16.8917 24.3538 16.8969 24.3393C16.8887 24.3169 16.8958 24.2912 16.9155 24.276C16.9401 24.2574 16.9751 24.2622 16.9937 24.2864L17.0141 24.3132C17.0242 24.3262 17.0279 24.343 17.0242 24.359C17.0205 24.375 17.01 24.3887 16.9955 24.3962L16.9751 24.407C16.9669 24.4114 16.9579 24.4133 16.949 24.4133L16.9494 24.414Z" fill="#231F20"/>
<path d="M13.4291 21.1662C13.4049 21.1662 13.3826 21.1502 13.3755 21.126C13.3715 21.1122 13.3729 21.097 13.38 21.0843L13.8198 20.2572C13.8343 20.23 13.8682 20.2196 13.8954 20.2341C13.9225 20.2486 13.9329 20.2825 13.9184 20.3096L13.4797 21.1349C13.473 21.1487 13.4607 21.1599 13.4447 21.1643C13.4395 21.1658 13.4343 21.1666 13.4291 21.1666V21.1662Z" fill="#231F20"/>
<path d="M16.9494 24.3759C16.9327 24.3759 16.9159 24.3685 16.9051 24.354L13.8249 20.3171C13.8063 20.2926 13.8108 20.2576 13.8354 20.239C13.8599 20.2204 13.8949 20.2249 13.9135 20.2494L16.9937 24.2863C17.0123 24.3108 17.0078 24.3458 16.9833 24.3644C16.9732 24.3722 16.9613 24.3759 16.9494 24.3759Z" fill="#231F20"/>
<path d="M16.9354 24.4209C16.9153 24.4209 16.896 24.4101 16.8859 24.3911C16.8714 24.3639 16.8818 24.3301 16.9094 24.3156L16.9231 24.3081C16.9503 24.294 16.9842 24.3041 16.9987 24.3316C17.0132 24.3588 17.0028 24.3926 16.9752 24.4071L16.9615 24.4146C16.9533 24.419 16.9444 24.4209 16.9354 24.4209Z" fill="#231F20"/>
<path d="M14.2079 25.857C14.1994 25.857 14.1908 25.8551 14.183 25.851C14.167 25.8432 14.1559 25.8279 14.1529 25.8101L13.3741 21.1199C13.3689 21.0893 13.3897 21.0607 13.4199 21.0555C13.4504 21.0503 13.479 21.0711 13.4842 21.1013L14.2504 25.7152L16.9093 24.3154C16.9365 24.3009 16.9704 24.3113 16.9849 24.3388C16.9994 24.366 16.9886 24.3999 16.9614 24.4144L14.234 25.8499C14.2258 25.8544 14.2169 25.8562 14.2079 25.8562V25.857Z" fill="#231F20"/>
<path d="M16.9096 34.155C16.8895 34.155 16.8701 34.1442 16.8601 34.1252C16.8459 34.098 16.8563 34.0642 16.8835 34.0497C18.4519 33.2281 19.8662 32.1285 21.0874 30.7816C22.0649 29.7036 22.9215 28.4653 23.6333 27.1016C24.2669 25.8878 24.6662 24.7968 24.8898 24.0954C25.0707 23.5284 25.1685 23.1176 25.2069 22.9438L23.3836 23.5135C23.3613 23.5205 23.3363 23.5127 23.3222 23.4938C23.3081 23.4748 23.3073 23.4491 23.3203 23.4294L24.4541 21.7319L23.3393 21.5711C23.3088 21.5667 23.2876 21.5384 23.2921 21.5079C23.2965 21.4774 23.3248 21.4558 23.3553 21.4606L24.5576 21.6337C24.5765 21.6363 24.5929 21.6485 24.6007 21.666C24.6085 21.6835 24.6067 21.704 24.5963 21.7196L23.5012 23.3594L25.2645 22.8084C25.2831 22.8024 25.3036 22.8069 25.3185 22.8199C25.3334 22.8329 25.3397 22.8526 25.336 22.872C25.3323 22.891 24.9535 24.8121 23.7341 27.1496C23.0178 28.5222 22.1557 29.7687 21.1719 30.8545C19.9414 32.2119 18.5163 33.32 16.9356 34.1483C16.9274 34.1527 16.9185 34.1546 16.9096 34.1546V34.155Z" fill="#231F20"/>
<path d="M16.9097 34.153C16.8985 34.153 16.8873 34.1497 16.8773 34.1426C16.852 34.1247 16.8464 34.0898 16.8639 34.0648C16.9041 34.0083 17.8589 32.6505 18.7753 30.3677C19.6066 28.2966 20.574 25.0103 20.4617 21.1141C20.4609 21.0832 20.4851 21.0576 20.516 21.0568C20.5465 21.0542 20.5725 21.0803 20.5733 21.1112C20.6864 25.0267 19.7145 28.329 18.8791 30.4097C17.9578 32.7044 16.996 34.0726 16.9554 34.1299C16.9446 34.1452 16.9275 34.1534 16.91 34.1534L16.9097 34.153Z" fill="#231F20"/>
<path d="M16.9079 34.1566C16.8893 34.1566 16.8707 34.1473 16.8603 34.1302C16.8506 34.1146 15.8865 32.5343 14.9749 30.1522C14.1332 27.9531 13.165 24.5998 13.331 21.1148C13.3325 21.0839 13.3574 21.0604 13.3894 21.0616C13.4203 21.0631 13.4441 21.0891 13.4426 21.12C13.2774 24.5849 14.2411 27.9211 15.0783 30.1098C15.9862 32.483 16.9459 34.0562 16.9552 34.0718C16.9712 34.0982 16.963 34.1325 16.9369 34.1485C16.9276 34.154 16.9176 34.1566 16.9079 34.1566Z" fill="#231F20"/>
<path d="M16.9078 34.1566C16.8993 34.1566 16.8903 34.1547 16.8818 34.1503C15.3008 33.3223 13.8797 32.2142 12.6582 30.8569C11.6814 29.7715 10.8293 28.525 10.1257 27.1523C8.92792 24.8152 8.57109 22.8944 8.56774 22.8755C8.56439 22.8561 8.57109 22.8368 8.5856 22.8237C8.60011 22.8107 8.62058 22.8063 8.63918 22.8122L10.4025 23.3633L9.30746 21.7235C9.29667 21.7075 9.29518 21.6874 9.303 21.6699C9.31081 21.6524 9.32718 21.6401 9.34616 21.6375L9.75509 21.5787C9.78523 21.5743 9.81388 21.5955 9.81834 21.626C9.82281 21.6565 9.8016 21.6848 9.77109 21.6892L9.44997 21.7354L10.5837 23.4329C10.5968 23.4526 10.596 23.4783 10.5819 23.4972C10.5677 23.5162 10.5432 23.524 10.5205 23.517L8.69611 22.9469C8.78207 23.354 9.18318 25.0697 10.2269 27.1047C10.9261 28.468 11.7726 29.706 12.7426 30.7839C13.9549 32.1305 15.3648 33.2301 16.9335 34.0513C16.9607 34.0654 16.9715 34.0993 16.957 34.1268C16.9469 34.1458 16.9276 34.1566 16.9075 34.1566H16.9078Z" fill="#231F20"/>
<path d="M16.9098 34.1535H16.909C16.8781 34.1531 16.8536 34.1278 16.8539 34.0969C16.8733 32.8344 16.7963 31.5444 16.7218 30.2971C16.5901 28.0924 16.4659 26.0102 16.8815 24.3518C16.8889 24.322 16.9191 24.3038 16.9492 24.3112C16.979 24.3187 16.9972 24.3492 16.9898 24.3789C16.5782 26.0206 16.7021 28.0947 16.8331 30.2904C16.9079 31.5399 16.9849 32.8318 16.9656 34.0988C16.9652 34.1293 16.9403 34.1538 16.9098 34.1538V34.1535Z" fill="#231F20"/>
<path d="M19.6352 14.1937C19.4804 14.1937 19.3542 14.0675 19.3542 13.9128C19.3542 13.758 19.4804 13.6318 19.6352 13.6318C19.79 13.6318 19.9161 13.758 19.9161 13.9128C19.9161 14.0675 19.79 14.1937 19.6352 14.1937ZM19.6352 13.7435C19.5418 13.7435 19.4659 13.8194 19.4659 13.9128C19.4659 14.0062 19.5418 14.0821 19.6352 14.0821C19.7286 14.0821 19.8045 14.0062 19.8045 13.9128C19.8045 13.8194 19.7286 13.7435 19.6352 13.7435Z" fill="#231F20"/>
<path d="M19.6266 15.2576C19.3572 15.2576 19.1384 15.0385 19.1384 14.7694C19.1384 14.5004 19.3576 14.2812 19.6266 14.2812C19.7528 14.2812 19.8729 14.3296 19.9645 14.4174C19.9868 14.4386 19.9875 14.474 19.966 14.4963C19.9448 14.5186 19.9094 14.5194 19.8871 14.4978C19.8164 14.4301 19.7241 14.3929 19.6266 14.3929C19.419 14.3929 19.2501 14.5618 19.2501 14.7694C19.2501 14.9771 19.419 15.146 19.6266 15.146C19.6929 15.146 19.7583 15.1281 19.8156 15.0946C19.8421 15.079 19.8763 15.0879 19.8919 15.1147C19.9075 15.1412 19.8986 15.1754 19.8718 15.191C19.7974 15.2346 19.7122 15.2576 19.6266 15.2576Z" fill="#231F20"/>
<path d="M19.8441 15.1981C19.8247 15.1981 19.8061 15.1881 19.7957 15.1706C19.7801 15.1438 19.7894 15.1099 19.8158 15.0943C19.9315 15.027 20.0033 14.9023 20.0033 14.7691C20.0033 14.6657 19.962 14.5693 19.8872 14.4975C19.8649 14.4763 19.8642 14.4409 19.8857 14.4186C19.9073 14.3963 19.9423 14.3955 19.9646 14.4171C20.0617 14.5101 20.1149 14.6351 20.1149 14.7691C20.1149 14.9417 20.0219 15.1036 19.872 15.1907C19.863 15.1959 19.8534 15.1981 19.8441 15.1981Z" fill="#231F20"/>
<path d="M13.2226 14.3634C13.1433 14.3634 13.0968 14.3596 13.0883 14.3589C13.0712 14.3574 13.0555 14.3477 13.0462 14.3332C13.0369 14.3187 13.0351 14.3005 13.041 14.2841C13.0492 14.2614 13.2527 13.7341 14.1264 13.8688C14.2131 13.7528 14.5603 13.3922 15.399 13.6419C15.4206 13.6482 15.4362 13.6672 15.4384 13.6895C15.4406 13.7118 15.4291 13.7338 15.4094 13.7442C14.3746 14.3023 13.5381 14.3634 13.2226 14.3634ZM13.1854 14.2506C13.4433 14.2532 14.2403 14.2145 15.23 13.7122C14.4594 13.5343 14.212 13.9392 14.2012 13.9574C14.1897 13.9775 14.167 13.9887 14.1435 13.9846C13.524 13.8789 13.2725 14.1226 13.1854 14.2506Z" fill="#231F20"/>
<path d="M15.5936 13.8912C15.5877 13.8912 15.5813 13.8901 15.575 13.8883C15.5616 13.8838 15.2502 13.771 15.1884 13.4298C15.1828 13.3993 15.2033 13.3703 15.2334 13.3651C15.264 13.3599 15.293 13.3796 15.2982 13.4101C15.348 13.6877 15.6089 13.7818 15.6115 13.783C15.6405 13.793 15.6558 13.825 15.6457 13.854C15.6375 13.8771 15.6159 13.8912 15.5929 13.8912H15.5936Z" fill="#231F20"/>
<path d="M14.075 14.6471C13.7974 14.6471 13.5031 14.5492 13.1961 14.3546C13.1701 14.3382 13.1623 14.3036 13.179 14.2776C13.1957 14.2515 13.23 14.2437 13.256 14.2605C13.6575 14.5153 14.0318 14.5935 14.3686 14.493C14.91 14.3315 15.1756 13.7585 15.1783 13.7525C15.1909 13.7246 15.224 13.712 15.2523 13.7246C15.2802 13.7373 15.2929 13.7704 15.2802 13.7987C15.2687 13.824 14.9903 14.4242 14.4006 14.5998C14.2949 14.6314 14.1866 14.6471 14.0754 14.6471H14.075Z" fill="#231F20"/>
<path d="M10.1178 7.73103C10.0899 7.73103 10.0657 7.71019 10.0623 7.68154C10.0028 7.17289 10.2357 6.66983 10.7358 6.22629C11.109 5.89513 11.4934 5.71577 11.5094 5.70833C11.5373 5.69531 11.5704 5.70759 11.5835 5.73549C11.5965 5.7634 11.5842 5.79652 11.5563 5.80954C11.541 5.81661 10.0393 6.52583 10.1732 7.66852C10.1769 7.69903 10.155 7.72694 10.1241 7.73066C10.1219 7.73066 10.1196 7.73066 10.1174 7.73066L10.1178 7.73103Z" fill="#231F20"/>
<path d="M24.9261 17.0251C24.9045 17.0251 24.884 17.0124 24.8747 16.9916C24.8625 16.9633 24.8755 16.9306 24.9038 16.9183C25.8013 16.5295 26.1116 14.9392 26.1145 14.9232C26.1201 14.893 26.1495 14.8733 26.1797 14.8789C26.2098 14.8845 26.2299 14.9139 26.224 14.944C26.2206 14.9607 26.1436 15.363 25.9493 15.8214C25.6859 16.4435 25.3492 16.8469 24.9477 17.0206C24.9406 17.0236 24.9328 17.0251 24.9257 17.0251H24.9261Z" fill="#231F20"/>
<path d="M12.8705 19.2452C12.8631 19.2452 12.8556 19.2437 12.8482 19.2404C12.1007 18.9133 11.72 18.0091 11.704 17.9708C11.6921 17.9425 11.7059 17.9098 11.7341 17.8978C11.7628 17.8859 11.7952 17.8997 11.8071 17.928C11.8108 17.9369 12.187 18.8296 12.8928 19.138C12.9211 19.1503 12.9341 19.1834 12.9215 19.2113C12.9122 19.2322 12.8917 19.2448 12.8701 19.2448L12.8705 19.2452Z" fill="#231F20"/>
</g>
</g>
</g>
<defs>
<filter id="filter0_b_2361_46981" x="-5.7" y="-6.2" width="44.4" height="44.4" filterUnits="userSpaceOnUse" color-interpolation-filters="sRGB">
<feFlood flood-opacity="0" result="BackgroundImageFix"/>
<feGaussianBlur in="BackgroundImageFix" stdDeviation="3.1"/>
<feComposite in2="SourceAlpha" operator="in" result="effect1_backgroundBlur_2361_46981"/>
<feBlend mode="normal" in="SourceGraphic" in2="effect1_backgroundBlur_2361_46981" result="shape"/>
</filter>
<clipPath id="clip0_2361_46981">
<rect x="0.5" width="32" height="32" rx="16" fill="white"/>
</clipPath>
<clipPath id="clip1_2361_46981">
<rect width="32" height="32" fill="white" transform="translate(0.5)"/>
</clipPath>
</defs>
</svg>
