<svg viewBox="0 0 33 32" fill="none" xmlns="http://www.w3.org/2000/svg">
<g filter="url(#filter0_b_2361_47001)">
<g clip-path="url(#clip0_2361_47001)">
<rect x="0.5" width="32" height="32" rx="16" fill="#E0E0E0"/>
<g clip-path="url(#clip1_2361_47001)">
<rect width="32" height="32" transform="translate(0.5)" fill="#FCDEA1"/>
<path d="M28.3014 15.1891C28.064 15.7286 27.4702 15.9459 26.8968 16.0304C26.8852 16.0322 26.8741 16.0341 26.8625 16.0356C26.6839 16.0605 26.5076 16.0732 26.3457 16.0788C26.3457 16.0788 26.1593 18.369 23.824 16.7679C23.824 16.7679 23.686 17.086 23.3898 17.3584C22.9697 17.7439 22.2318 18.0375 21.1182 17.2036C22.198 16.4881 22.5459 14.9465 22.5745 13.4172C22.5827 12.9591 22.5626 12.5018 22.525 12.0683C22.7487 11.9448 22.9775 11.7431 23.2056 11.438C23.2175 11.422 23.2298 11.4056 23.2417 11.3889C23.2811 11.3346 23.3202 11.2773 23.3597 11.2166C23.3686 11.2025 23.3775 11.1883 23.3868 11.1738C23.6488 11.4633 23.9334 11.7305 24.2385 11.9709C24.24 11.9723 24.2415 11.9731 24.243 11.9742C24.3453 12.0546 24.4495 12.1316 24.5563 12.2056C25.0836 12.5718 25.6651 12.8598 26.2917 13.0477C26.7219 13.1764 27.1706 13.2609 27.5688 13.4696C28.1712 13.7855 28.595 14.5215 28.3014 15.1891Z" fill="#FF79CC"/>
<path d="M22.6582 11.5221H22.4127C22.3814 11.5221 22.3643 11.486 22.3836 11.4618L22.6385 11.1455H21.9989L21.5353 11.7204C21.5156 11.7449 21.5327 11.781 21.5639 11.781H21.8095C21.8404 11.781 21.8579 11.8168 21.8389 11.8413L21.5732 12.1825C21.773 12.2383 21.9877 12.251 22.2103 12.1948L22.6876 11.5823C22.7066 11.5578 22.6891 11.5221 22.6582 11.5221Z" fill="#ECEBFF"/>
<path d="M21.8095 11.781H21.564C21.5327 11.781 21.5156 11.7449 21.5353 11.7204L21.9989 11.1455H20.2668C20.2668 11.1455 20.8161 11.9712 21.5733 12.1825L21.8389 11.8413C21.8579 11.8168 21.8404 11.781 21.8095 11.781Z" fill="#735FFF"/>
<path d="M22.3836 11.4622C22.3642 11.4863 22.3814 11.5224 22.4126 11.5224H22.6582C22.6891 11.5224 22.7066 11.5582 22.6876 11.5827L22.2102 12.1952C22.3136 12.1691 22.4186 12.1271 22.525 12.0683C22.8082 11.9116 23.0995 11.63 23.3868 11.1734C23.3786 11.1641 23.3704 11.1548 23.3622 11.1455H22.6385L22.3836 11.4618V11.4622Z" fill="#735FFF"/>
<path d="M23.3622 11.146H22.4156C22.3739 10.8658 22.327 10.6064 22.2794 10.378C22.1637 9.81909 21.9802 9.26653 21.712 8.76421C21.6945 8.78281 20.1451 10.4144 18.8539 8.31174C18.8539 8.31174 18.8491 9.72049 17.6148 9.62784C16.4948 9.54374 16.2835 7.94672 16.2835 7.94672C16.2835 7.94672 16.455 10.0993 14.9633 11.4161C14.8007 11.5597 14.6187 11.6933 14.4141 11.8131C14.1696 11.594 13.8548 11.4619 13.5114 11.4619C12.7334 11.4619 12.1027 12.1395 12.1027 12.9748C12.1027 13.8102 12.7334 14.4877 13.5114 14.4877C13.6945 14.4877 13.8694 14.4502 14.0301 14.3821C14.0554 14.3709 14.0807 14.3594 14.1053 14.3471C14.1053 14.3471 16.9908 15.6249 15.1907 17.4444C14.7244 17.9158 14.2615 18.0997 13.8333 18.1157C13.6844 18.1216 13.5401 18.1071 13.4009 18.0773C13.3227 18.0606 13.2465 18.039 13.1721 18.0137C12.3326 17.7268 11.7447 16.9436 11.7447 16.9436C11.7447 16.9436 11.5345 18.1004 10.2738 17.7841C9.01317 17.4678 9.30749 16.103 9.30749 16.103C9.30749 16.103 6.88182 17.1426 5.6993 15.9318C5.44628 15.6732 5.25019 15.3119 5.14675 14.8163C5.12107 14.6931 5.10098 14.5726 5.0861 14.4546C4.85651 12.6276 5.89317 11.4288 7.0381 10.9186C7.20777 10.8431 7.3767 10.7847 7.54452 10.7411C7.54526 10.7411 7.546 10.7408 7.54675 10.7408C8.12349 10.5916 8.68014 10.6195 9.16759 10.7233C9.1728 10.7244 9.17837 10.7251 9.18358 10.7266C9.18954 10.7277 9.19698 10.7296 9.20554 10.7315C9.34024 10.7612 9.46972 10.797 9.59251 10.8364C10.3549 11.0805 10.8647 11.4619 10.8647 11.4619C10.8647 11.4619 10.8628 11.2144 10.8792 10.8077C10.938 9.34058 11.2323 5.8016 12.6965 4.33258C12.9581 4.07025 13.3469 3.92291 13.8184 3.86523C16.4424 3.54598 21.6312 6.01221 21.7737 6.93835C21.8604 7.50244 21.8411 7.97016 21.8024 8.29091C21.8031 8.29798 21.8042 8.30505 21.8054 8.31249C21.8355 8.52235 21.9531 8.80923 21.9892 8.91677C22.103 9.25723 22.282 9.58802 22.461 9.89798C22.509 9.98132 22.5581 10.0636 22.6091 10.1447C22.832 10.4997 23.0839 10.8353 23.3618 11.146H23.3622Z" fill="#FF79CC"/>
<g style="mix-blend-mode:screen">
<path d="M21.8028 8.29091C21.8036 8.29798 21.8047 8.30505 21.8058 8.31249C21.7928 8.37649 21.7909 8.44235 21.7768 8.50635C21.7388 8.67565 21.6116 8.82188 21.449 8.88291C21.2868 8.94356 21.0944 8.91639 20.9548 8.8137C20.5318 8.50114 20.6855 7.85146 20.4615 7.42839C20.3096 7.14188 20.019 6.96067 19.7414 6.7936C19.148 6.43528 18.5489 6.07472 17.8948 5.84477C17.0501 5.54821 16.1098 5.46635 15.3731 4.9577C14.9277 4.64998 14.22 4.24291 13.8188 3.86523C16.4428 3.54598 21.6317 6.01221 21.7742 6.93835C21.8609 7.50244 21.8415 7.97016 21.8028 8.29091Z" fill="#FF79CC"/>
</g>
<path d="M17.7082 11.781H17.9538C17.985 11.781 18.0022 11.8168 17.9832 11.8413L17.7372 12.1572C17.9162 12.222 18.1026 12.2663 18.2905 12.2774L18.8319 11.5823C18.8509 11.5578 18.8334 11.5221 18.8025 11.5221H18.557C18.5257 11.5221 18.5086 11.486 18.5283 11.4618L18.7832 11.1455H18.1432L17.6796 11.7204C17.6598 11.7449 17.677 11.781 17.7082 11.781Z" fill="#ECEBFF"/>
<path d="M23.4047 11.1455H23.3623C23.3705 11.1548 23.3787 11.1641 23.3869 11.1734C23.3928 11.1641 23.3988 11.1552 23.4047 11.1455Z" fill="#EFA197"/>
<path d="M17.9832 11.8413C18.0022 11.8168 17.9851 11.781 17.9538 11.781H17.7083C17.677 11.781 17.6599 11.7449 17.6796 11.7204L18.1432 11.1455H16.2563C16.2563 11.1455 16.3628 11.2597 16.5421 11.4156C16.8123 11.6508 17.2483 11.9805 17.7373 12.1572L17.9832 11.8413Z" fill="#735FFF"/>
<path d="M18.5569 11.5221H18.8025C18.8334 11.5221 18.8509 11.5578 18.8319 11.5823L18.2905 12.2774C18.858 12.312 19.4396 12.0471 19.8809 11.1455H18.7832L18.5283 11.4618C18.5086 11.486 18.5257 11.5221 18.5569 11.5221Z" fill="#735FFF"/>
<path d="M18.4152 19.2662L18.0171 19.2432C18.1548 19.2513 18.2876 19.2592 18.4152 19.2662Z" fill="#EFA197"/>
<path d="M23.4591 24.3678C22.402 24.6729 20.7748 24.2565 19.7523 23.9224L19.2042 23.2087L18.8098 23.17L18.9088 23.6199C18.8448 23.5942 18.8098 23.5797 18.8098 23.5797C18.8098 23.5797 16.681 27.1414 12.4027 23.5581C12.4027 23.5581 11.0531 22.2394 11.4948 21.3308C11.6183 21.0759 11.8833 20.8534 12.3581 20.7012C12.1899 21.064 12.041 21.3527 12.041 21.3527C14.3525 23.3907 20.9694 22.1721 21.0531 21.8989C21.0795 21.8141 21.0476 21.6448 20.9914 21.4517C20.9422 21.2835 20.8749 21.0975 20.8109 20.9337C21.2555 21.0569 21.7039 21.2299 22.1259 21.4517C22.4983 21.6474 22.8503 21.8815 23.1603 22.1542L23.1625 22.1564C23.2384 22.223 23.3117 22.2919 23.3821 22.3633C23.3888 22.37 23.3955 22.3771 23.4022 22.3841C23.9365 22.9382 24.5281 24.0593 23.4595 24.3678H23.4591Z" fill="#055E33"/>
<path d="M12.9659 18.758C13.066 18.7863 13.2048 18.8142 13.373 18.8414L13.3942 18.2646C12.8405 18.3893 12.3207 18.5753 12.9663 18.758H12.9659Z" fill="#C67F00"/>
<path d="M35.5669 32.4912V36.7714H-0.787354L-0.784006 30.4808L2.95144 24.9973L4.13432 23.2611C4.16223 23.2205 4.19088 23.1807 4.22102 23.1417C4.23032 23.1294 4.23962 23.1175 4.2493 23.1056C4.66455 22.5809 5.26362 22.2289 5.9293 22.1232L10.7334 21.4397L10.7844 21.4323L11.1237 21.3839L11.4947 21.3311C11.053 22.2397 12.4026 23.5584 12.4026 23.5584C16.6809 27.1417 18.8097 23.58 18.8097 23.58C18.8097 23.58 18.8446 23.5945 18.9086 23.6202L19.3931 25.8181L21.0623 25.6298L19.7522 23.9227C20.7747 24.2568 22.4019 24.6732 23.459 24.3681C24.5276 24.0596 23.936 22.9385 23.4017 22.3845C23.395 22.3774 23.3883 22.3703 23.3816 22.3636C23.3113 22.2922 23.2379 22.2233 23.162 22.1567L23.1598 22.1545C22.8499 21.8818 22.4979 21.6477 22.1254 21.452L26.9086 22.1337C27.6 22.2431 28.221 22.6189 28.6389 23.1804L29.8199 24.7673L35.5669 32.4912Z" fill="#009F62"/>
<path d="M19.4824 18.6582V19.3172C19.7299 19.3172 19.9297 19.3094 20.0651 19.2911C20.8264 19.1899 20.0767 18.8658 19.4824 18.6582Z" fill="#C67F00"/>
<path d="M18.8096 23.1699L18.9085 23.6198L19.393 25.8177L21.0622 25.6295L19.7521 23.9227L19.204 23.2086L18.8096 23.1699ZM20.0587 24.86L20.4654 25.3898L19.7498 25.4706L19.6263 24.9087L20.0587 24.86Z" fill="#055E33"/>
<path d="M20.4655 25.3902L20.0588 24.8604L19.6265 24.9091L19.75 25.471L20.4655 25.3902Z" fill="#009F62"/>
<path d="M22.5251 12.068C22.4187 12.1268 22.3138 12.1688 22.2103 12.1948C22.047 12.2361 21.8877 12.2402 21.7355 12.2175C21.6805 12.209 21.6265 12.1975 21.5733 12.1826C21.0985 12.0501 20.7059 11.6761 20.4786 11.4157C20.3435 11.2605 20.2669 11.1455 20.2669 11.1455H22.4157C22.374 10.8654 22.3272 10.606 22.2795 10.3775C22.1638 9.81866 21.9804 9.2661 21.7121 8.76378C21.7058 8.7701 21.5093 8.97736 21.2005 9.15075C21.0672 9.22592 20.9128 9.29438 20.7439 9.33717C20.4046 9.42461 20.0064 9.40936 19.6008 9.13885C19.3508 8.97215 19.0978 8.70834 18.854 8.31131C18.854 8.31131 18.8492 9.72006 17.615 9.62741C16.495 9.54331 16.2836 7.94629 16.2836 7.94629C16.2836 7.94629 16.374 9.08192 15.852 10.2082C15.6552 10.6324 15.3716 11.0555 14.9634 11.4157C14.8008 11.5593 14.6189 11.6929 14.4142 11.8127C14.1698 11.5935 13.855 11.4615 13.5115 11.4615C12.8206 11.4615 12.2457 11.9962 12.1259 12.7009C12.1106 12.7895 12.1028 12.881 12.1028 12.9744C12.1028 13.8101 12.7335 14.4873 13.5115 14.4873C13.6864 14.4873 13.8535 14.4531 14.0083 14.3906C14.0414 14.3772 14.0738 14.3627 14.1054 14.3467C14.1054 14.3467 16.991 15.6244 15.1908 17.444C14.5627 18.0791 13.9402 18.1922 13.401 18.0769L13.3939 18.2641L13.3731 18.8408C13.417 18.8482 13.4628 18.8553 13.5108 18.8624C14.0816 18.9472 14.9255 19.0261 15.8133 19.0946C15.9454 19.105 16.0786 19.1147 16.2118 19.1243C16.4537 19.1422 16.6959 19.1593 16.9344 19.1749C17.0684 19.1839 17.2012 19.1924 17.3318 19.201C17.5685 19.2162 17.798 19.23 18.0172 19.243L18.4153 19.2665C18.7748 19.2869 19.0903 19.3041 19.3352 19.3167H19.3727C19.4103 19.3171 19.4468 19.3171 19.4825 19.3171V17.6304C19.6436 17.6259 19.8096 17.6148 19.9804 17.5969C20.1835 17.5753 20.3718 17.5351 20.5463 17.4782C20.7565 17.4097 20.9467 17.3167 21.1182 17.2032C22.5218 16.2737 22.6885 13.9481 22.5251 12.068ZM19.7333 11.4157C19.3143 12.1007 18.7967 12.3083 18.2907 12.2775C18.1028 12.2663 17.9164 12.222 17.7374 12.1573C17.2485 11.9805 16.8124 11.6508 16.5422 11.4157C16.3629 11.2598 16.2565 11.1455 16.2565 11.1455H19.881C19.8334 11.243 19.7839 11.3327 19.7333 11.4157Z" fill="#FFA687"/>
<path d="M19.4823 17.6307C19.4823 17.6307 18.0174 17.8622 16.4148 16.7812C16.4148 16.7812 16.4948 18.6585 19.482 19.1098V17.6307H19.4823Z" fill="#D15D42"/>
<path d="M13.3902 18.2646C13.3902 18.2646 15.648 18.863 19.4824 19.11V19.5353C19.4824 19.5353 15.8136 19.7482 13.373 18.8418L13.3902 18.265V18.2646Z" fill="#D15D42"/>
<path d="M18.8785 14.2107C18.8785 14.2107 18.5518 13.7821 17.738 14.1475C18.9931 14.6226 19.8809 14.4206 19.8809 14.4206C19.8809 14.4206 19.6454 13.9719 18.8785 14.2107Z" fill="#D30074"/>
<path d="M17.8872 14.2012C17.8872 14.2012 18.6169 15.3695 19.7335 14.4631C19.7335 14.4631 18.6783 14.5167 17.8872 14.2012Z" fill="#D30074"/>
<path d="M20.6215 20.481C20.6263 20.4918 20.7141 20.6875 20.8105 20.9339C20.9478 21.2859 21.1022 21.7402 21.0531 21.8991C20.9694 22.1722 14.3525 23.3908 12.041 21.3528C12.041 21.3528 12.1899 21.0641 12.358 20.7013C12.4198 20.5681 12.4842 20.4252 12.5445 20.2827C11.9755 19.4462 12.089 18.6492 12.124 18.4725V18.4706C12.1288 18.2883 12.7082 18.1182 13.1722 18.0137C13.2466 18.039 13.3229 18.0606 13.401 18.0773L13.3939 18.2645C12.8403 18.3891 12.3205 18.5752 12.966 18.7579C13.0661 18.7861 13.2049 18.814 13.3731 18.8412C13.417 18.8486 13.4628 18.8557 13.5108 18.8628C14.0816 18.9476 14.9255 19.0265 15.8133 19.095C15.8286 20.1145 15.4795 20.5551 15.4795 20.5551H15.8713C16.1884 20.1822 16.2125 19.3822 16.2118 19.1247C16.4537 19.1426 16.6959 19.1597 16.9344 19.1753C16.9419 20.1744 16.5999 20.6068 16.5999 20.6068H16.9917C17.2987 20.2451 17.3307 19.482 17.3318 19.2014C17.5685 19.2167 17.798 19.2304 18.0172 19.2434C17.9993 20.3162 17.7303 20.6068 17.7303 20.6068H18.1221C18.4477 20.2392 18.4153 19.2676 18.4153 19.2669C18.7748 19.2873 19.0903 19.3045 19.3352 19.3171H19.3727C19.4103 19.3175 19.4468 19.3175 19.4825 19.3175C19.7296 19.3175 19.9294 19.3097 20.0652 19.2914C20.8265 19.1902 20.0767 18.8661 19.4825 18.6585V18.3627C19.5491 18.3824 19.6633 18.417 19.8018 18.462C20.3223 18.6306 21.1889 18.942 21.2005 19.1523H21.2001C21.1967 19.1943 21.1231 20.0081 20.6215 20.481Z" fill="#FFAC00"/>
<path d="M21.2005 19.1521H21.2001C21.1967 19.1942 21.1231 20.008 20.6215 20.4809L20.297 20.7012L20.6553 19.4573C20.7056 19.2831 20.6431 19.0963 20.4987 18.9873L19.8018 18.4619C20.3223 18.6305 21.1889 18.9419 21.2005 19.1521Z" fill="#FFCA76"/>
<path d="M18.122 20.6071C18.4476 20.2395 18.4152 19.268 18.4152 19.2672C18.2876 19.2598 18.1544 19.2523 18.0171 19.2441C17.9996 20.3165 17.7302 20.6071 17.7302 20.6071H18.122Z" fill="#FFC661"/>
<path d="M15.4795 20.5548H15.8713C16.1883 20.182 16.2125 19.382 16.2118 19.1245C16.0786 19.1148 15.9454 19.1051 15.8133 19.0947C15.8285 20.1143 15.4795 20.5548 15.4795 20.5548Z" fill="#FFC661"/>
<path d="M16.9917 20.6072C17.2986 20.2455 17.3306 19.4824 17.3318 19.2018C17.2012 19.1933 17.0683 19.1847 16.9344 19.1758C16.9418 20.1749 16.5999 20.6072 16.5999 20.6072H16.9917Z" fill="#FFC661"/>
<g style="mix-blend-mode:screen">
<path d="M21.6079 11.1464C21.4341 9.98325 21.2004 9.15163 21.2004 9.15163C21.5093 8.97823 21.7057 8.77097 21.7121 8.76465C21.9803 9.26697 22.1638 9.81953 22.2795 10.3784C22.3271 10.6069 22.374 10.8662 22.4157 11.1464H21.6079Z" fill="#FFA687"/>
</g>
<g style="mix-blend-mode:screen">
<path d="M21.118 17.2036C20.9465 17.3171 20.7564 17.4101 20.5461 17.4786C21.774 16.2838 21.8976 14.065 21.7354 12.2179C21.8875 12.2406 22.0468 12.2365 22.2101 12.1952C22.3136 12.1692 22.4185 12.1272 22.5249 12.0684C22.6883 13.9485 22.5216 16.2741 21.118 17.2036Z" fill="#FFA687"/>
</g>
<g style="mix-blend-mode:screen">
<path d="M23.3621 11.1458H23.0239C22.9822 11.0725 22.9424 10.9985 22.9026 10.9244C22.7705 10.6792 22.635 10.4165 22.6094 10.1445C22.8323 10.4995 23.0842 10.8351 23.3621 11.1458Z" fill="#FF79CC"/>
</g>
<g style="mix-blend-mode:screen">
<path d="M28.3015 15.1895C28.0641 15.729 27.4702 15.9463 26.8968 16.0308C26.9095 15.9854 26.9255 15.9415 26.9448 15.9005C27.1495 15.4641 27.4531 15.1433 27.1748 14.6696C26.9024 14.2064 26.4574 14.0419 26.0079 13.8228C25.5287 13.5891 25.017 13.3175 24.5869 13.0012C24.4157 12.8754 23.0606 11.6334 23.2057 11.438C23.2176 11.422 23.2299 11.4056 23.2418 11.3889C23.2812 11.3346 23.3203 11.2773 23.3597 11.2166C23.3686 11.2025 23.3776 11.1883 23.3869 11.1738C23.3456 11.2397 24.1303 11.892 24.2386 11.9709C24.2401 11.9723 24.2416 11.9731 24.2431 11.9742C24.3454 12.0546 24.4496 12.1316 24.5564 12.2056C25.0836 12.5718 25.6652 12.8598 26.2918 13.0477C26.722 13.1764 27.1707 13.2609 27.5688 13.4696C28.1713 13.7855 28.5951 14.5215 28.3015 15.1891V15.1895Z" fill="#FF79CC"/>
</g>
<g style="mix-blend-mode:multiply">
<path d="M23.3898 17.3581C22.9697 17.7436 22.2318 18.0372 21.1182 17.2033C22.198 16.4878 22.5459 14.9462 22.5745 13.4169C23.0199 13.1698 23.1743 14.5109 23.1877 14.832C23.213 15.4426 23.1483 16.0599 23.2577 16.6608C23.3001 16.8926 23.3678 17.1256 23.3898 17.3581Z" fill="#EF60CD"/>
</g>
<g style="mix-blend-mode:screen">
<path d="M15.1908 17.444C14.7246 17.9154 14.2617 18.0992 13.8334 18.1152C13.7735 18.078 13.7225 18.0293 13.6849 17.9657C13.5729 17.7759 13.6366 17.5247 13.7675 17.3472C13.8981 17.1697 14.0853 17.0436 14.2505 16.8977C14.3316 16.8263 14.4083 16.7485 14.4782 16.6652C14.6669 16.4412 14.8064 16.177 14.8503 15.889C14.9102 15.4942 14.7629 15.0563 14.4306 14.8349C14.3212 14.7623 14.1932 14.7113 14.1099 14.6101C14.0265 14.5085 14.006 14.4345 14.0302 14.3817C14.0555 14.3705 14.0808 14.359 14.1054 14.3467C14.1054 14.3467 16.991 15.6244 15.1908 17.444Z" fill="#FF79CC"/>
</g>
<g style="mix-blend-mode:multiply">
<path d="M10.1767 12.9979C9.32684 13.6144 8.21875 13.2673 7.29335 13.633C6.40107 13.9861 5.78861 14.9986 5.6993 15.9314C5.44628 15.6728 5.25019 15.3115 5.14675 14.8159C5.12107 14.6928 5.10098 14.5722 5.0861 14.4542C4.85651 12.6273 5.89317 11.4284 7.0381 10.9182C7.20777 10.8427 7.3767 10.7843 7.54452 10.7408C7.54526 10.7408 7.546 10.7404 7.54675 10.7404C8.10377 10.6351 8.62433 10.6072 9.18358 10.7262C9.18954 10.7274 9.19698 10.7292 9.20554 10.7311C9.27401 10.7467 9.41726 10.7843 9.59251 10.836C10.0963 10.9845 10.8632 11.2509 10.8647 11.4615C10.8647 11.4615 10.8628 11.2141 10.8792 10.8074C11.0173 11.642 10.8201 12.5309 10.1763 12.9979H10.1767Z" fill="#F236CF"/>
</g>
<path d="M14.0083 14.3906C13.8535 14.4531 13.6864 14.4874 13.5115 14.4874C12.7335 14.4874 12.1028 13.8101 12.1028 12.9744C12.1028 12.884 12.1046 12.7865 12.1311 12.7002C12.23 12.7084 12.2758 12.8929 12.3152 12.9755C12.4187 13.1917 12.524 13.4109 12.6806 13.5921C12.8373 13.7733 13.0542 13.9158 13.2935 13.9307C13.4226 13.9385 13.5532 13.9095 13.6816 13.9281C13.9104 13.9612 13.9919 14.1841 14.0086 14.3906H14.0083Z" fill="#D15D42"/>
<path d="M20.7437 9.33754C20.6526 9.48527 20.4486 9.53252 20.2704 9.53141C20.0018 9.53029 19.7346 9.45885 19.4987 9.33085C19.4875 9.32489 19.4767 9.31894 19.4656 9.31261C19.3569 9.25048 19.2393 9.09903 19.1303 9.0581C19.0101 9.01308 18.958 9.15299 18.8751 9.25308C18.759 9.39261 18.6269 9.54368 18.6079 9.56043C18.3872 9.75094 18.1231 9.89345 17.8377 9.95782C17.5951 10.0125 17.3391 10.0084 17.0991 9.9448C16.8769 9.88601 16.6217 9.77773 16.4944 9.57978C16.4609 9.52768 16.4274 9.47596 16.3943 9.42387C16.3664 9.52434 16.3564 9.61029 16.2983 9.69699C16.2388 9.78666 16.1889 9.87931 16.119 9.96229C16.0501 10.0441 15.972 10.1186 15.8864 10.1829C15.8749 10.1915 15.8633 10.1997 15.8518 10.2082C16.3739 9.08192 16.2834 7.94629 16.2834 7.94629C16.2834 7.94629 16.4948 9.54331 17.6148 9.62741C18.849 9.72006 18.8539 8.31131 18.8539 8.31131C19.0976 8.70834 19.3506 8.97215 19.6006 9.13885C20.0062 9.40936 20.4044 9.42461 20.7437 9.33754Z" fill="#D15D42"/>
<g style="mix-blend-mode:multiply">
<path d="M11.1237 21.3838C11.0872 21.469 11.0381 21.5501 10.9808 21.6242C10.9414 21.6751 10.8978 21.7231 10.8513 21.767C10.6444 21.9631 10.3858 22.0945 10.1313 22.2232C8.64555 22.9737 7.12145 23.6457 5.41057 23.4839C5.02955 23.4478 4.53541 23.3659 4.24927 23.1055C4.66452 22.5808 5.26359 22.2288 5.92927 22.1231L10.7334 21.4396L10.7843 21.4322L11.1237 21.3838Z" fill="#00C172"/>
</g>
<g style="mix-blend-mode:screen">
<path d="M29.8564 24.8599L28.0796 23.2328C27.7098 22.9131 27.258 22.7025 26.7754 22.6244L23.085 22.08L23.162 22.1563L23.6194 22.6393C22.2508 21.5766 21.0221 21.4579 20.9913 21.4515C20.9421 21.2834 20.8748 21.0973 20.8108 20.9336C21.2554 21.0568 21.7038 21.2298 22.1258 21.4515L26.909 22.1332C27.6004 22.2426 28.2214 22.6184 28.6393 23.1799L29.8203 24.7669L29.8567 24.8599H29.8564Z" fill="#009F62"/>
</g>
<path d="M24.5561 12.2608C24.5449 12.2608 24.5341 12.2575 24.5244 12.2508C24.0999 11.9561 23.7032 11.606 23.3456 11.2104C23.3252 11.1877 23.3267 11.1524 23.3497 11.1315C23.3724 11.1111 23.4078 11.1126 23.4286 11.1356C23.7806 11.5252 24.1706 11.8694 24.5884 12.1593C24.6137 12.1767 24.6201 12.2117 24.6026 12.237C24.5918 12.2527 24.5743 12.2608 24.5568 12.2608H24.5561Z" fill="#231F20"/>
<path d="M23.3868 11.229C23.3716 11.229 23.3563 11.2227 23.3455 11.2108L23.3206 11.1829C23.3001 11.1598 23.302 11.1245 23.325 11.104C23.3481 11.0836 23.3835 11.0854 23.4039 11.1085L23.4285 11.136C23.4493 11.1587 23.4475 11.1941 23.4244 11.2149C23.4136 11.2246 23.4002 11.2294 23.3872 11.2294L23.3868 11.229Z" fill="#231F20"/>
<path d="M22.4494 17.7948C22.0286 17.7948 21.5713 17.6117 21.0846 17.2474C21.06 17.2288 21.0548 17.1939 21.0734 17.1693C21.092 17.1447 21.127 17.1399 21.1516 17.1581C21.7492 17.6058 22.2954 17.7684 22.775 17.6415C23.4533 17.4621 23.7696 16.7518 23.7726 16.7447C23.7793 16.7295 23.7923 16.718 23.8083 16.7135C23.8243 16.709 23.8414 16.7116 23.8552 16.7209C24.6113 17.2393 25.2122 17.3981 25.642 17.1935C26.2139 16.9211 26.2887 16.0817 26.2894 16.0731C26.2917 16.0448 26.3147 16.0229 26.343 16.0218C27.3741 15.9857 28.0156 15.6973 28.2496 15.1652C28.474 14.6554 28.2708 13.8997 27.5423 13.5176C27.255 13.3669 26.9324 13.2802 26.6206 13.1961C26.5071 13.1656 26.3895 13.134 26.2753 13.0997C25.6595 12.9152 25.0705 12.6294 24.5242 12.2502C24.4989 12.2327 24.4926 12.1978 24.5101 12.1725C24.5276 12.1472 24.5626 12.1408 24.5879 12.1583C25.1244 12.5308 25.7026 12.8113 26.3073 12.9926C26.4204 13.0264 26.5369 13.0577 26.6496 13.0882C26.9674 13.1738 27.2959 13.2623 27.5944 13.4186C27.9084 13.5834 28.1733 13.858 28.3214 14.1721C28.484 14.517 28.4948 14.8858 28.3523 15.2099C28.1034 15.7758 27.4452 16.0858 26.3955 16.1312C26.3847 16.2115 26.356 16.3808 26.2861 16.571C26.1581 16.9193 25.9523 17.1689 25.6904 17.2936C25.2323 17.5113 24.6124 17.3617 23.8459 16.8486C23.751 17.0335 23.4225 17.5842 22.8044 17.7483C22.6891 17.7788 22.5707 17.794 22.4494 17.794V17.7948Z" fill="#231F20"/>
<path d="M13.5114 14.5428C12.704 14.5428 12.0469 13.8391 12.0469 12.974C12.0469 12.1089 12.704 11.4053 13.5114 11.4053C13.8549 11.4053 14.1886 11.5351 14.4513 11.7707C14.4744 11.7911 14.4763 11.8265 14.4554 11.8496C14.435 11.8726 14.3996 11.8745 14.3765 11.8536C14.1343 11.6363 13.827 11.5165 13.5111 11.5165C12.765 11.5165 12.1581 12.1703 12.1581 12.9736C12.1581 13.777 12.765 14.4308 13.5111 14.4308C13.7098 14.4308 13.901 14.3854 14.0796 14.2961C14.1072 14.2823 14.1406 14.2935 14.1544 14.321C14.1682 14.3485 14.157 14.382 14.1295 14.3958C13.9352 14.4929 13.7269 14.542 13.5107 14.542L13.5114 14.5428Z" fill="#231F20"/>
<path d="M13.2586 13.7547C13.2411 13.7547 13.224 13.7465 13.2128 13.7312C13.195 13.7059 13.2009 13.6713 13.2262 13.6535C13.2296 13.6512 13.5548 13.4175 13.5849 13.1876C13.5935 13.1214 13.576 13.0633 13.5317 13.0101C13.4327 12.8914 13.2943 12.958 13.1172 13.0953C13.1083 13.1024 13.0967 13.1117 13.083 13.1229C12.9479 13.2337 12.808 13.3383 12.7109 13.2884C12.6591 13.262 12.6361 13.2014 12.642 13.108C12.6543 12.916 12.7138 12.7281 12.8147 12.564C12.8999 12.4255 13.0022 12.3251 13.1191 12.2659C13.365 12.1413 13.663 12.1956 13.9224 12.2655C13.9522 12.2737 13.9697 12.3042 13.9618 12.334C13.954 12.3638 13.9231 12.3813 13.8934 12.3735C13.6545 12.3091 13.3817 12.2581 13.1693 12.3656C13.071 12.4155 12.9836 12.5018 12.9096 12.6228C12.8184 12.7712 12.7641 12.9416 12.7533 13.1154C12.7496 13.1761 12.7618 13.1895 12.7622 13.1895C12.7778 13.1962 12.8318 13.1854 13.0123 13.0369C13.0268 13.025 13.0394 13.0146 13.0491 13.0071C13.163 12.9193 13.4294 12.7132 13.6177 12.939C13.6824 13.0164 13.7084 13.1054 13.6958 13.2029C13.6593 13.4815 13.3058 13.7346 13.291 13.7454C13.2813 13.7524 13.2697 13.7558 13.2586 13.7558V13.7547Z" fill="#231F20"/>
<path d="M20.2391 13.2345C20.2223 13.2345 20.2052 13.2326 20.187 13.2289C20.0162 13.1932 19.8655 13.1068 19.7282 13.019C19.7021 13.0023 19.6947 12.968 19.7111 12.942C19.7278 12.9159 19.7624 12.9085 19.7881 12.9252C19.9165 13.0075 20.056 13.0878 20.2093 13.1198C20.2867 13.1358 20.3477 13.086 20.4132 12.9528C20.587 12.5985 20.4352 12.1271 20.264 11.713C20.2521 11.6843 20.2658 11.6519 20.2941 11.64C20.3228 11.6281 20.3552 11.6419 20.3671 11.6702C20.5479 12.1078 20.7064 12.6078 20.5133 13.0019C20.4805 13.0685 20.3991 13.2348 20.2387 13.2348L20.2391 13.2345Z" fill="#231F20"/>
<path d="M19.3016 17.6898C18.2169 17.6898 17.2379 17.4011 16.3836 16.8277C16.3579 16.8106 16.3512 16.776 16.3684 16.7503C16.3855 16.7246 16.4201 16.7179 16.4457 16.7351C17.4534 17.4115 18.6407 17.6831 19.9739 17.5421C20.394 17.4975 20.7684 17.368 21.0872 17.157C21.1129 17.1403 21.1475 17.147 21.1646 17.1726C21.1817 17.1983 21.1747 17.2329 21.149 17.25C20.8152 17.4711 20.4242 17.6065 19.9862 17.653C19.7537 17.6776 19.5256 17.6898 19.3016 17.6898Z" fill="#231F20"/>
<path d="M21.1184 17.259C21.1001 17.259 21.0826 17.2501 21.0718 17.2341C21.0547 17.2084 21.0618 17.1738 21.0875 17.1567C22.5881 16.1629 22.5974 13.5452 22.4694 12.0732C22.4668 12.0423 22.4895 12.0155 22.52 12.0129C22.5505 12.0103 22.5777 12.033 22.5803 12.0635C22.7105 13.5601 22.6975 16.2242 21.1489 17.2497C21.1396 17.2561 21.1288 17.259 21.118 17.259H21.1184Z" fill="#231F20"/>
<path d="M13.3937 18.32C13.3937 18.32 13.3923 18.32 13.3915 18.32C13.3606 18.3189 13.3368 18.2928 13.3379 18.2623L13.3446 18.0752C13.3457 18.0443 13.3718 18.0197 13.4023 18.0216C13.4332 18.0227 13.457 18.0487 13.4559 18.0793L13.4492 18.2664C13.4481 18.2966 13.4231 18.3204 13.3934 18.3204L13.3937 18.32Z" fill="#231F20"/>
<path d="M13.373 18.8961C13.373 18.8961 13.3715 18.8961 13.3708 18.8961C13.3399 18.895 13.3161 18.8689 13.3172 18.8384L13.3384 18.2617C13.3395 18.2308 13.3659 18.2066 13.3961 18.2081C13.4269 18.2092 13.4508 18.2352 13.4496 18.2657L13.4284 18.8425C13.4273 18.8726 13.4024 18.8964 13.3726 18.8964L13.373 18.8961Z" fill="#231F20"/>
<path d="M12.6142 36.8262H-0.787448C-0.802331 36.8262 -0.816473 36.8202 -0.826892 36.8098C-0.83731 36.7994 -0.843262 36.7852 -0.843262 36.7704L-0.839542 30.4798C-0.839542 30.4686 -0.836192 30.4578 -0.829867 30.4485L4.08846 23.2288C4.51116 22.6081 5.17907 22.1847 5.92102 22.0675L11.4872 21.2749C11.5177 21.2708 11.5459 21.2917 11.5504 21.3222C11.5549 21.3527 11.5337 21.381 11.5032 21.3854L5.93776 22.1776C5.22706 22.29 4.58669 22.6963 4.18111 23.2917L-0.727541 30.4973L-0.730889 36.7146H12.615C12.6459 36.7146 12.6708 36.7395 12.6708 36.7704C12.6708 36.8012 12.6459 36.8262 12.615 36.8262H12.6142Z" fill="#231F20"/>
<path d="M35.5667 36.8268H12.6142C12.5833 36.8268 12.5583 36.8019 12.5583 36.771C12.5583 36.7401 12.5833 36.7152 12.6142 36.7152H35.5109V32.5094L28.5941 23.2134C28.1825 22.6601 27.5809 22.2962 26.8999 22.1883L22.1174 21.5066C22.0869 21.5021 22.0657 21.4739 22.0702 21.4434C22.0746 21.4128 22.1025 21.3916 22.1334 21.3961L26.9167 22.0778C27.6274 22.1905 28.2547 22.5697 28.6837 23.1464L35.6117 32.4573C35.6188 32.467 35.6229 32.4785 35.6229 32.4908V36.771C35.6229 36.8019 35.598 36.8268 35.5671 36.8268H35.5667Z" fill="#231F20"/>
<path d="M19.4823 18.7141C19.4514 18.7141 19.4265 18.6892 19.4265 18.6583V18.3625C19.4265 18.3316 19.4514 18.3066 19.4823 18.3066C19.5132 18.3066 19.5381 18.3316 19.5381 18.3625V18.6583C19.5381 18.6892 19.5132 18.7141 19.4823 18.7141Z" fill="#231F20"/>
<path d="M19.4823 19.3731C19.4514 19.3731 19.4265 19.3482 19.4265 19.3173V18.6584C19.4265 18.6275 19.4514 18.6025 19.4823 18.6025C19.5132 18.6025 19.5381 18.6275 19.5381 18.6584V19.3173C19.5381 19.3482 19.5132 19.3731 19.4823 19.3731Z" fill="#231F20"/>
<path d="M19.4823 18.4176C19.4514 18.4176 19.4265 18.3927 19.4265 18.3618V17.6388C19.4265 17.6079 19.4514 17.583 19.4823 17.583C19.5132 17.583 19.5381 17.6079 19.5381 17.6388V18.3618C19.5381 18.3927 19.5132 18.4176 19.4823 18.4176Z" fill="#231F20"/>
<path d="M14.4141 11.8679C14.3951 11.8679 14.3761 11.8579 14.3661 11.8404C14.3505 11.8139 14.3594 11.7797 14.3862 11.7641C14.5789 11.6513 14.7609 11.5196 14.9268 11.3734C14.9499 11.3529 14.9852 11.3552 15.0057 11.3782C15.0262 11.4013 15.024 11.4366 15.0009 11.4571C14.8297 11.6082 14.6418 11.744 14.4427 11.8605C14.4338 11.8657 14.4241 11.8683 14.4145 11.8683L14.4141 11.8679Z" fill="#231F20"/>
<path d="M14.9633 11.4716C14.9477 11.4716 14.9324 11.4653 14.9212 11.4526C14.9008 11.4296 14.903 11.3942 14.9261 11.3738C16.3791 10.0912 16.2291 7.97208 16.2273 7.95087C16.2251 7.92073 16.247 7.89432 16.2771 7.89097C16.3077 7.88762 16.3344 7.9092 16.3385 7.93897C16.3408 7.9546 16.5577 9.49208 17.6189 9.57171C17.9393 9.5959 18.2016 9.5159 18.3977 9.33469C18.7903 8.97227 18.7977 8.31739 18.7977 8.31106C18.7977 8.28613 18.8144 8.26418 18.8386 8.25748C18.8628 8.25078 18.8881 8.26083 18.9011 8.28204C19.293 8.92018 19.7462 9.27032 20.2481 9.32204C21.0228 9.40241 21.6453 8.75311 21.6714 8.72557C21.6837 8.71255 21.7015 8.70622 21.7194 8.70846C21.7372 8.71069 21.7529 8.72148 21.7611 8.73748C22.0159 9.21487 22.2087 9.7626 22.3341 10.3661C22.3847 10.6106 22.4308 10.8699 22.4706 11.1375C22.4751 11.168 22.4543 11.1963 22.4238 11.2011C22.3932 11.2056 22.365 11.1847 22.3601 11.1542C22.3203 10.8889 22.2749 10.6314 22.2243 10.3892C22.1071 9.82399 21.9296 9.30901 21.6971 8.85692C21.5196 9.02362 20.9387 9.50585 20.2362 9.43367C19.7372 9.38194 19.287 9.06232 18.8967 8.4826C18.8684 8.71627 18.7761 9.13748 18.4736 9.41692C18.2537 9.62046 17.9631 9.71013 17.61 9.68371C16.8505 9.62678 16.4922 8.90008 16.3359 8.40706C16.2961 9.1226 16.0732 10.5105 14.9998 11.4582C14.989 11.4675 14.9759 11.4724 14.9629 11.4724L14.9633 11.4716Z" fill="#231F20"/>
<path d="M13.7714 18.1728C13.6452 18.1728 13.518 18.159 13.3888 18.1315C13.3587 18.1251 13.3394 18.0954 13.3461 18.0652C13.3524 18.0351 13.3825 18.0157 13.4123 18.0224C14.03 18.1545 14.6149 17.9465 15.1507 17.4048C15.6043 16.9463 15.7907 16.4846 15.7051 16.0325C15.5183 15.0449 14.0966 14.4042 14.0821 14.3979C14.0538 14.3852 14.0411 14.3525 14.0538 14.3242C14.0664 14.2959 14.0992 14.2833 14.1274 14.2959C14.1427 14.3026 14.5029 14.4634 14.8928 14.754C15.4138 15.1421 15.7327 15.577 15.8149 16.0116C15.9075 16.5021 15.7111 16.9973 15.23 17.4833C14.7764 17.9421 14.2871 18.1728 13.771 18.1728H13.7714Z" fill="#231F20"/>
<path d="M13.4009 18.1324C13.3972 18.1324 13.3931 18.132 13.389 18.1312C13.3124 18.1149 13.2335 18.0929 13.1539 18.0658C13.1248 18.0557 13.1092 18.0241 13.1193 17.9947C13.1293 17.9657 13.1609 17.95 13.1903 17.9601C13.2655 17.9858 13.3403 18.0066 13.4125 18.0222C13.4426 18.0285 13.462 18.0583 13.4553 18.0885C13.4497 18.1145 13.4266 18.1327 13.4009 18.1327V18.1324Z" fill="#231F20"/>
<path d="M13.1719 18.0685C13.166 18.0685 13.16 18.0674 13.1541 18.0656C12.4664 17.8308 11.9522 17.2797 11.7706 17.0639C11.7193 17.2276 11.5876 17.5338 11.2888 17.7266C11.0153 17.903 10.6692 17.9402 10.2599 17.8375C9.16561 17.5629 9.19798 16.5199 9.23705 16.1906C8.83631 16.3461 7.24449 16.8968 6.12189 16.3123C5.5857 16.0332 5.23928 15.5335 5.09156 14.8265C4.65473 12.7335 5.79854 11.4088 7.01454 10.8667C7.57752 10.6155 8.50031 10.4023 9.69733 10.8116C10.2398 10.9969 10.6395 11.2414 10.8088 11.3541C10.8121 11.0092 10.8378 9.87468 11.0235 8.5917C11.3226 6.52547 11.8722 5.07877 12.6562 4.29217C13.6504 3.29496 16.2767 4.00975 17.3598 4.36324C18.4181 4.70854 19.5195 5.18817 20.3812 5.67821C20.8947 5.97031 21.7658 6.52138 21.8283 6.92845C21.9176 7.50891 21.8942 7.98779 21.8581 8.28956C21.8785 8.44993 21.9597 8.6717 22.0084 8.80491C22.0222 8.84249 22.0337 8.87412 22.0415 8.89756C22.1539 9.23356 22.3325 9.56286 22.5085 9.86872C22.7649 10.3137 23.0655 10.7305 23.4026 11.1074C23.4231 11.1305 23.4212 11.1658 23.3982 11.1863C23.3751 11.2068 23.3397 11.2049 23.3193 11.1818C22.9773 10.7993 22.6718 10.3763 22.4117 9.92454C22.2328 9.61347 22.0508 9.27821 21.9355 8.93328C21.928 8.91058 21.9165 8.8797 21.9035 8.84361C21.8491 8.69514 21.7669 8.4704 21.7461 8.29663C21.7457 8.29217 21.7457 8.2877 21.7461 8.28324C21.7818 7.98891 21.8056 7.51784 21.7178 6.94556C21.6397 6.43803 19.704 5.24584 17.3249 4.46928C15.0771 3.73552 13.4041 3.69942 12.7351 4.37105C10.9025 6.20919 10.9193 11.4081 10.9197 11.4605C10.9197 11.4817 10.9081 11.5011 10.8891 11.5108C10.8702 11.5204 10.8475 11.5186 10.8304 11.5056C10.8117 11.4918 8.94942 10.1262 7.05956 10.9686C5.883 11.4929 4.77677 12.7759 5.20022 14.8038C5.34049 15.4762 5.66756 15.9502 6.17249 16.2133C7.3911 16.8481 9.26533 16.0589 9.28431 16.0511C9.30366 16.0429 9.32561 16.0462 9.34161 16.0592C9.35761 16.0726 9.36505 16.0935 9.36058 16.1139C9.35984 16.1173 9.29026 16.4507 9.37175 16.8153C9.47891 17.2961 9.78663 17.6034 10.286 17.7288C10.6637 17.8237 10.9799 17.7913 11.2263 17.6332C11.5998 17.3928 11.6877 16.937 11.6884 16.9325C11.6925 16.9106 11.7089 16.8935 11.7304 16.8883C11.752 16.883 11.7747 16.8912 11.7877 16.9091C11.7937 16.9169 12.3757 17.6823 13.1887 17.9595C13.2177 17.9696 13.2333 18.0012 13.2237 18.0302C13.2158 18.0533 13.1939 18.0682 13.1708 18.0682L13.1719 18.0685Z" fill="#231F20"/>
<path d="M17.7372 12.2127C17.7309 12.2127 17.7246 12.2116 17.7182 12.2094C17.2256 12.0311 16.7865 11.7022 16.5052 11.4574C16.4821 11.4373 16.4795 11.4019 16.4996 11.3785C16.5197 11.3554 16.5551 11.3528 16.5785 11.3729C16.8527 11.6114 17.2795 11.9318 17.7562 12.1041C17.7852 12.1145 17.8001 12.1465 17.7897 12.1755C17.7815 12.1982 17.7599 12.2124 17.7372 12.2124V12.2127Z" fill="#231F20"/>
<path d="M16.5421 11.4716C16.5291 11.4716 16.5161 11.4671 16.5056 11.4578C16.3263 11.3019 16.2202 11.1884 16.2158 11.1836C16.2005 11.1672 16.1964 11.1438 16.2054 11.1233C16.2143 11.1029 16.2344 11.0898 16.2567 11.0898H18.1436C18.1745 11.0898 18.1994 11.1148 18.1994 11.1457C18.1994 11.1765 18.1745 11.2015 18.1436 11.2015H16.391C16.4383 11.2472 16.5019 11.3068 16.5789 11.3738C16.602 11.3938 16.6046 11.4292 16.5845 11.4526C16.5734 11.4653 16.5581 11.472 16.5425 11.472L16.5421 11.4716Z" fill="#231F20"/>
<path d="M18.3873 12.3364C18.3542 12.3364 18.3207 12.3352 18.2872 12.3334C18.2563 12.3315 18.2329 12.3051 18.2347 12.2742C18.2366 12.2433 18.2634 12.2203 18.2939 12.2218C18.9138 12.2597 19.4172 11.9163 19.7901 11.2015H18.7832C18.7523 11.2015 18.7274 11.1765 18.7274 11.1457C18.7274 11.1148 18.7523 11.0898 18.7832 11.0898H19.8809C19.9002 11.0898 19.9181 11.0999 19.9281 11.1163C19.9382 11.1326 19.9393 11.1531 19.9311 11.1702C19.5519 11.9445 19.0332 12.3364 18.3873 12.3364Z" fill="#231F20"/>
<path d="M22.525 12.1237C22.5052 12.1237 22.4863 12.1133 22.4762 12.095C22.4613 12.0679 22.471 12.034 22.4982 12.0191C22.7936 11.8558 23.0768 11.5611 23.3398 11.1432C23.3562 11.1172 23.3908 11.1094 23.4169 11.1257C23.4429 11.1421 23.4507 11.1767 23.4344 11.2028C23.1612 11.6366 22.8643 11.944 22.5521 12.1166C22.5436 12.1215 22.5343 12.1237 22.5253 12.1237H22.525Z" fill="#231F20"/>
<path d="M22.2102 12.2507C22.1853 12.2507 22.1626 12.234 22.1562 12.2087C22.1488 12.1789 22.1666 12.1484 22.1964 12.141C22.2969 12.1157 22.3981 12.0747 22.4978 12.0197C22.5246 12.0048 22.5588 12.0145 22.5737 12.0416C22.5886 12.0688 22.5789 12.1026 22.5518 12.1175C22.4439 12.1774 22.3333 12.2217 22.224 12.2496C22.2195 12.2507 22.2146 12.2515 22.2102 12.2515V12.2507Z" fill="#231F20"/>
<path d="M23.3621 11.2015H22.6383C22.6074 11.2015 22.5825 11.1765 22.5825 11.1457C22.5825 11.1148 22.6074 11.0898 22.6383 11.0898H23.3621C23.3929 11.0898 23.4179 11.1148 23.4179 11.1457C23.4179 11.1765 23.3929 11.2015 23.3621 11.2015Z" fill="#231F20"/>
<path d="M21.5732 12.2385C21.5683 12.2385 21.5631 12.2378 21.5583 12.2363C20.7899 12.0219 20.2433 11.2108 20.2202 11.1765C20.2087 11.1594 20.208 11.1375 20.2176 11.1192C20.2273 11.101 20.2463 11.0898 20.2668 11.0898H21.9988C22.0297 11.0898 22.0547 11.1148 22.0547 11.1457C22.0547 11.1765 22.0297 11.2015 21.9988 11.2015H20.3762C20.5391 11.4162 21.0035 11.9658 21.5881 12.1291C21.6178 12.1373 21.6349 12.1682 21.6268 12.1979C21.6201 12.2225 21.5974 12.2389 21.5732 12.2389V12.2385Z" fill="#231F20"/>
<path d="M23.3866 11.229C23.3766 11.229 23.3662 11.2264 23.3572 11.2204C23.3468 11.2141 23.3394 11.2048 23.3353 11.1944C23.3182 11.1847 23.3066 11.1665 23.3066 11.1457C23.3066 11.1148 23.3316 11.0898 23.3625 11.0898H23.4049C23.425 11.0898 23.4439 11.1006 23.4536 11.1185C23.4633 11.1364 23.4629 11.1579 23.4521 11.1751C23.4488 11.1806 23.4454 11.1855 23.4421 11.1907L23.4343 11.203C23.4238 11.2201 23.4056 11.229 23.387 11.229H23.3866Z" fill="#231F20"/>
<path d="M20.4784 11.471H19.7331C19.7022 11.471 19.6772 11.4461 19.6772 11.4152C19.6772 11.3843 19.7022 11.3594 19.7331 11.3594H20.4784C20.5092 11.3594 20.5342 11.3843 20.5342 11.4152C20.5342 11.4461 20.5092 11.471 20.4784 11.471Z" fill="#231F20"/>
<path d="M16.5419 11.471H14.9635C14.9326 11.471 14.9077 11.4461 14.9077 11.4152C14.9077 11.3843 14.9326 11.3594 14.9635 11.3594H16.5419C16.5728 11.3594 16.5978 11.3843 16.5978 11.4152C16.5978 11.4461 16.5728 11.471 16.5419 11.471Z" fill="#231F20"/>
<path d="M16.5446 11.471H16.5417C16.5108 11.471 16.4858 11.4461 16.4858 11.4152C16.4858 11.3843 16.5108 11.3594 16.5417 11.3594C16.5725 11.3594 16.599 11.3843 16.599 11.4152C16.599 11.4461 16.5755 11.471 16.5446 11.471Z" fill="#231F20"/>
<path d="M19.3666 14.5197C18.9804 14.5197 18.4055 14.4594 17.7183 14.1989C17.697 14.1911 17.6829 14.171 17.6822 14.1483C17.6814 14.1256 17.6944 14.1052 17.7149 14.0959C18.4397 13.7703 18.7996 14.049 18.8959 14.1465C19.671 13.9202 19.9199 14.3742 19.93 14.3939C19.9382 14.4092 19.9385 14.4274 19.9311 14.4434C19.9237 14.459 19.9095 14.4706 19.8928 14.4743C19.876 14.478 19.6859 14.5197 19.3659 14.5197H19.3666ZM17.8931 14.1439C18.8286 14.4687 19.5426 14.4132 19.7819 14.3801C19.684 14.2748 19.428 14.0973 18.8952 14.2637C18.8729 14.2707 18.8483 14.2629 18.8342 14.2443C18.8226 14.2294 18.5555 13.9009 17.8931 14.1442V14.1439Z" fill="#231F20"/>
<path d="M17.5645 14.3548C17.5441 14.3548 17.5247 14.3436 17.5147 14.3242C17.5005 14.2967 17.5117 14.2632 17.5392 14.2491C17.5482 14.2446 17.7632 14.1307 17.7748 13.8785C17.7763 13.8476 17.8019 13.8238 17.8332 13.8253C17.8641 13.8267 17.8879 13.8528 17.8864 13.8837C17.8719 14.2022 17.6014 14.3428 17.5898 14.3488C17.5817 14.3529 17.5731 14.3548 17.5645 14.3548Z" fill="#231F20"/>
<path d="M18.8963 14.863C18.8424 14.863 18.7884 14.8589 18.7349 14.8504C18.1782 14.7622 17.8534 14.2521 17.8396 14.2301C17.8232 14.2041 17.831 14.1695 17.8575 14.1531C17.8835 14.1367 17.9181 14.1445 17.9345 14.1706C17.9375 14.1754 18.2474 14.6603 18.7531 14.7399C19.0679 14.7894 19.3949 14.6736 19.7257 14.3961C19.7492 14.3763 19.7845 14.3793 19.8043 14.4028C19.824 14.4262 19.821 14.4616 19.7972 14.4813C19.4954 14.7347 19.1929 14.8623 18.896 14.8623L18.8963 14.863Z" fill="#231F20"/>
<path d="M18.7832 11.2015H18.1432C18.1123 11.2015 18.0874 11.1765 18.0874 11.1457C18.0874 11.1148 18.1123 11.0898 18.1432 11.0898H18.7832C18.8141 11.0898 18.839 11.1148 18.839 11.1457C18.839 11.1765 18.8141 11.2015 18.7832 11.2015Z" fill="#231F20"/>
<path d="M18.2905 12.3333C18.2905 12.3333 18.2883 12.3333 18.2871 12.3333C18.1063 12.3226 17.9147 12.2813 17.7182 12.2098C17.6892 12.1994 17.6743 12.1674 17.6847 12.1384C17.6951 12.1093 17.7271 12.0945 17.7562 12.1049C17.9426 12.1722 18.1234 12.2117 18.2938 12.2217C18.3247 12.2236 18.3482 12.25 18.3463 12.2809C18.3444 12.3107 18.3199 12.3333 18.2905 12.3333Z" fill="#231F20"/>
<path d="M22.4154 11.2015H21.9987C21.9678 11.2015 21.9429 11.1765 21.9429 11.1457C21.9429 11.1148 21.9678 11.0898 21.9987 11.0898H22.4154C22.4463 11.0898 22.4712 11.1148 22.4712 11.1457C22.4712 11.1765 22.4463 11.2015 22.4154 11.2015Z" fill="#231F20"/>
<path d="M21.9185 12.2862C21.7994 12.2862 21.6793 12.2694 21.5583 12.2356C21.5286 12.2274 21.5114 12.1965 21.5196 12.1667C21.5278 12.137 21.5587 12.1198 21.5885 12.128C21.795 12.1857 21.9996 12.1898 22.1968 12.1399C22.227 12.1325 22.2571 12.1503 22.2646 12.1805C22.272 12.2106 22.2541 12.2408 22.224 12.2482C22.1235 12.2735 22.0216 12.2862 21.9185 12.2862Z" fill="#231F20"/>
<path d="M22.6383 11.2015H22.4154C22.3845 11.2015 22.3596 11.1765 22.3596 11.1457C22.3596 11.1148 22.3845 11.0898 22.4154 11.0898H22.6383C22.6692 11.0898 22.6941 11.1148 22.6941 11.1457C22.6941 11.1765 22.6692 11.2015 22.6383 11.2015Z" fill="#231F20"/>
<path d="M26.8701 13.0239C25.8592 13.0239 24.9129 12.4982 24.5259 12.2522C24.4999 12.2358 24.4921 12.2012 24.5088 12.1752C24.5252 12.1491 24.5598 12.1417 24.5859 12.1581C25.0063 12.4252 26.1032 13.0318 27.2024 12.8918C27.2329 12.8881 27.2608 12.9097 27.2649 12.9402C27.2686 12.9707 27.2471 12.9986 27.2166 13.0027C27.1008 13.0176 26.9851 13.0243 26.8701 13.0243V13.0239Z" fill="#231F20"/>
<path d="M5.46892 11.7667C5.45366 11.7667 5.43878 11.7604 5.42762 11.7485C5.40678 11.7258 5.40864 11.6904 5.43134 11.6696C6.17627 10.9916 7.37069 10.7278 7.42129 10.717C7.45143 10.7107 7.4812 10.7297 7.48753 10.7598C7.49385 10.79 7.47487 10.8197 7.44473 10.8261C7.43283 10.8287 6.22873 11.0947 5.5065 11.7522C5.49571 11.7619 5.48232 11.7667 5.46892 11.7667Z" fill="#231F20"/>
<path d="M18.4151 19.3223C18.4151 19.3223 18.4129 19.3223 18.4118 19.3223C18.2841 19.3149 18.1509 19.3074 18.0133 19.2992C17.9824 19.2974 17.9589 19.271 17.9608 19.2401C17.9627 19.2092 17.9883 19.1857 18.02 19.1876C18.1576 19.1958 18.2905 19.2036 18.4181 19.2107C18.449 19.2125 18.4724 19.239 18.4706 19.2695C18.4691 19.2992 18.4441 19.3219 18.4148 19.3219L18.4151 19.3223Z" fill="#231F20"/>
<path d="M13.3729 18.8962C13.37 18.8962 13.367 18.8962 13.364 18.8955C13.185 18.8665 13.05 18.8386 12.951 18.8107C12.7136 18.7433 12.6087 18.6707 12.6116 18.5744C12.6142 18.4791 12.7076 18.3608 13.3822 18.2094C13.4124 18.2027 13.4421 18.2216 13.4488 18.2514C13.4555 18.2815 13.4366 18.3113 13.4068 18.318C12.7341 18.4694 12.7233 18.5762 12.7233 18.5774C12.7233 18.5777 12.7288 18.6317 12.9815 18.7031C13.0753 18.7295 13.21 18.7571 13.3822 18.7854C13.4128 18.7902 13.4332 18.8188 13.4284 18.8494C13.4239 18.8769 13.4001 18.8962 13.3733 18.8962H13.3729Z" fill="#231F20"/>
<path d="M15.8132 19.1502C15.8132 19.1502 15.8103 19.1502 15.8088 19.1502C14.7866 19.0714 14.0104 18.9932 13.5022 18.9177C13.4538 18.9106 13.408 18.9032 13.3637 18.8961C13.3332 18.8913 13.3128 18.8626 13.3176 18.8321C13.3224 18.8016 13.3515 18.7807 13.3816 18.786C13.4255 18.793 13.4709 18.8001 13.5185 18.8072C14.0242 18.8823 14.7974 18.9605 15.8173 19.039C15.8482 19.0412 15.8709 19.068 15.8687 19.0989C15.8664 19.1283 15.8419 19.1502 15.8132 19.1502Z" fill="#231F20"/>
<path d="M19.4823 19.3729C19.4466 19.3729 19.4098 19.3729 19.3722 19.3725H19.335C19.0872 19.3595 18.7713 19.3428 18.4122 19.3223C18.3813 19.3204 18.3579 19.294 18.3597 19.2635C18.3616 19.2326 18.3873 19.2092 18.4185 19.211C18.7776 19.2315 19.0931 19.2486 19.338 19.2613H19.3726C19.4105 19.2613 19.4466 19.2616 19.4823 19.2616C19.5132 19.2616 19.5381 19.2866 19.5381 19.3175C19.5381 19.3483 19.5132 19.3733 19.4823 19.3733V19.3729Z" fill="#231F20"/>
<path d="M18.0171 19.2989C18.0171 19.2989 18.0148 19.2989 18.0137 19.2989C17.7946 19.2859 17.565 19.2718 17.3283 19.2569C17.2974 19.255 17.2744 19.2282 17.2762 19.1977C17.2781 19.1668 17.3038 19.1438 17.3354 19.1456C17.572 19.1609 17.8016 19.175 18.0204 19.1877C18.0513 19.1895 18.0747 19.2159 18.0729 19.2468C18.071 19.2766 18.0465 19.2993 18.0171 19.2993V19.2989Z" fill="#231F20"/>
<path d="M16.9343 19.2307C16.9343 19.2307 16.9317 19.2307 16.9306 19.2307C16.7114 19.2162 16.4748 19.1999 16.2076 19.1801C16.1767 19.1779 16.1537 19.1511 16.1559 19.1202C16.1581 19.0893 16.1853 19.0663 16.2158 19.0685C16.483 19.0882 16.7193 19.1046 16.9381 19.1191C16.9689 19.121 16.992 19.1478 16.9901 19.1783C16.9883 19.2077 16.9637 19.2304 16.9343 19.2304V19.2307Z" fill="#231F20"/>
<path d="M19.4822 19.3724C19.4513 19.3724 19.4264 19.3475 19.4264 19.3166C19.4264 19.2857 19.4513 19.2608 19.4822 19.2608C19.7371 19.2608 19.9309 19.2522 20.0575 19.2351C20.3146 19.2009 20.3313 19.1481 20.3313 19.1473C20.3313 19.1458 20.3343 19.0141 19.4636 18.7101C19.4346 18.7001 19.4193 18.6681 19.4294 18.639C19.4394 18.61 19.4714 18.5944 19.5004 18.6048C20.4645 18.9415 20.4489 19.0937 20.4422 19.1588C20.4322 19.2552 20.3183 19.3129 20.072 19.3456C19.9402 19.3635 19.7415 19.3724 19.4818 19.3724H19.4822Z" fill="#231F20"/>
<path d="M20.5708 20.5037C20.5578 20.4758 20.5693 20.4423 20.5972 20.4293C20.6251 20.4162 20.6578 20.4274 20.6712 20.4549L20.6214 20.4802L20.5708 20.5037Z" fill="#231F20"/>
<path d="M20.8104 20.989C20.7881 20.989 20.7669 20.9756 20.7583 20.9536C20.6683 20.7226 20.5864 20.5384 20.5708 20.5038L20.6724 20.458L20.6214 20.4807L20.6724 20.4584C20.688 20.4934 20.771 20.6798 20.8621 20.9135C20.8733 20.9421 20.8592 20.9745 20.8305 20.9856C20.8238 20.9882 20.8171 20.9894 20.8101 20.9894L20.8104 20.989Z" fill="#231F20"/>
<path d="M12.5443 20.3372C12.5358 20.3372 12.5276 20.3354 12.5194 20.3313C12.493 20.3182 12.4818 20.287 12.4926 20.2602C12.5008 20.2397 12.5209 20.2256 12.5443 20.2256C12.5752 20.2256 12.6001 20.2505 12.6001 20.2814C12.6001 20.2907 12.5975 20.3004 12.5931 20.3086C12.583 20.3268 12.5641 20.3372 12.5443 20.3372Z" fill="#231F20"/>
<path d="M16.6091 22.5645C15.1118 22.5645 13.101 22.361 12.0041 21.3936C11.9848 21.3764 11.9795 21.3489 11.9915 21.3262C11.9929 21.3232 12.1418 21.0345 12.3074 20.6769C12.3204 20.649 12.3535 20.6367 12.3814 20.6497C12.4093 20.6628 12.4216 20.6959 12.4086 20.7238C12.2776 21.0066 12.1567 21.2469 12.1105 21.3381C13.4776 22.505 16.2586 22.5132 17.8024 22.4131C19.5576 22.2992 20.8893 21.9833 21.0013 21.8758C21.0162 21.8155 21.0151 21.6112 20.758 20.953C20.7468 20.9243 20.7609 20.892 20.7896 20.8808C20.8186 20.8696 20.8506 20.8838 20.8618 20.9124C21.171 21.7039 21.1222 21.8624 21.1062 21.9145C21.094 21.9547 21.0538 22.0053 20.7345 22.0953C20.067 22.2836 18.4201 22.5638 16.6173 22.5645H16.6088H16.6091Z" fill="#231F20"/>
<path d="M12.3578 20.7569C12.35 20.7569 12.3418 20.7554 12.3344 20.7517C12.3065 20.7387 12.2942 20.7055 12.3072 20.6776C12.376 20.5292 12.4386 20.3889 12.4929 20.2605C12.5048 20.2322 12.5379 20.2188 12.5662 20.2311C12.5945 20.243 12.6079 20.2758 12.5956 20.3044C12.5405 20.4339 12.4776 20.5753 12.4084 20.7249C12.3991 20.7454 12.3786 20.7573 12.3578 20.7573V20.7569Z" fill="#231F20"/>
<path d="M20.6213 20.5356C20.6064 20.5356 20.5916 20.5297 20.5808 20.5182C20.5596 20.4958 20.5607 20.4605 20.583 20.4393C21.0593 19.9905 21.1382 19.2155 21.1441 19.1503C21.1322 19.0123 20.4278 18.7023 19.466 18.4151C19.4366 18.4062 19.4195 18.3753 19.4284 18.3455C19.4373 18.3157 19.4686 18.2994 19.498 18.3079C20.9365 18.7377 21.2479 19.0019 21.2557 19.1481C21.2557 19.1507 21.2557 19.1537 21.2557 19.1559C21.2528 19.1917 21.1772 20.0322 20.6597 20.52C20.6489 20.5301 20.6351 20.5353 20.6213 20.5353V20.5356Z" fill="#231F20"/>
<path d="M20.2968 20.7567C20.2756 20.7567 20.2555 20.7448 20.2462 20.7243C20.2331 20.6964 20.2454 20.6633 20.2737 20.6503C20.3857 20.5989 20.4899 20.5282 20.5833 20.44C20.6056 20.4188 20.641 20.4199 20.6622 20.4423C20.6834 20.4646 20.6823 20.4999 20.6599 20.5212C20.5576 20.6175 20.4434 20.6953 20.3202 20.7515C20.3128 20.7548 20.3046 20.7567 20.2971 20.7567H20.2968Z" fill="#231F20"/>
<path d="M12.6666 20.5046C12.6502 20.5046 12.6339 20.4972 12.6227 20.4834C12.5792 20.4283 12.5371 20.371 12.498 20.3137C12.4806 20.2884 12.4873 20.2534 12.5126 20.2363C12.5382 20.2188 12.5728 20.2255 12.59 20.2508C12.6275 20.3063 12.6681 20.361 12.7101 20.4142C12.7291 20.4384 12.725 20.4734 12.7008 20.4927C12.6904 20.5009 12.6785 20.5046 12.6662 20.5046H12.6666Z" fill="#231F20"/>
<path d="M12.5442 20.338C12.5264 20.338 12.5089 20.3295 12.4981 20.3135C11.9176 19.461 12.0352 18.6361 12.0679 18.466C12.0705 18.3927 12.1029 18.1966 13.1597 17.9585C13.1902 17.9514 13.2196 17.9708 13.2263 18.0005C13.233 18.0307 13.214 18.0604 13.1842 18.0671C12.2205 18.2844 12.1807 18.4504 12.1796 18.4709C12.1796 18.4746 12.1796 18.4787 12.1784 18.4824C12.1487 18.6331 12.0292 19.426 12.5904 20.2502C12.6078 20.2759 12.6011 20.3105 12.5755 20.3276C12.5658 20.3343 12.555 20.3373 12.5442 20.3373V20.338Z" fill="#231F20"/>
<path d="M22.1253 21.5075C22.1163 21.5075 22.1078 21.5052 22.0992 21.5011C21.6925 21.2872 21.2538 21.1145 20.795 20.9876C20.7653 20.9795 20.7478 20.9486 20.7563 20.9188C20.7645 20.889 20.7954 20.8715 20.8252 20.8801C21.2914 21.0092 21.7375 21.1848 22.1513 21.4025C22.1785 21.417 22.1889 21.4505 22.1747 21.4781C22.1647 21.497 22.1453 21.5078 22.1253 21.5078V21.5075Z" fill="#231F20"/>
<path d="M22.5923 24.5295C22.5711 24.5295 22.5498 24.5295 22.5283 24.5291C22.788 24.5023 23.0537 24.4253 23.4432 24.3133C23.7398 24.2277 23.9192 24.0722 23.9772 23.8504C24.0572 23.5442 23.8924 22.9604 23.3413 22.4015C23.0038 22.0591 22.5859 21.7559 22.0992 21.4999C22.0721 21.4854 22.0617 21.4519 22.0758 21.4244C22.0899 21.3968 22.1238 21.3868 22.1513 21.4009C22.6481 21.6621 23.0752 21.9724 23.4209 22.323C23.8287 22.7364 24.2105 23.3994 24.0855 23.8783C24.017 24.1406 23.8112 24.323 23.4745 24.4201C23.2092 24.4967 22.9097 24.5291 22.5923 24.5291V24.5295ZM21.7067 24.4591C21.0213 24.3587 20.3195 24.1656 19.7346 23.9747C19.7052 23.965 19.6892 23.9337 19.6989 23.9044C19.7085 23.875 19.7398 23.859 19.7692 23.8686C20.7039 24.1737 21.2814 24.3624 21.7067 24.4595V24.4591Z" fill="#231F20"/>
<path d="M15.9723 25.2121C14.856 25.2121 13.646 24.6719 12.3663 23.6006C12.3652 23.5995 12.3641 23.5987 12.363 23.5976C12.3068 23.5426 10.99 22.2399 11.4439 21.3059C11.4573 21.278 11.4908 21.2665 11.5183 21.2802C11.5459 21.294 11.5578 21.3271 11.544 21.3546C11.1313 22.2038 12.389 23.4666 12.4393 23.5165C13.9083 24.7463 15.2787 25.2642 16.5122 25.0559C17.9961 24.8051 18.7533 23.5634 18.7607 23.5511C18.7749 23.5273 18.8043 23.5176 18.8303 23.5284C18.8303 23.5284 18.8653 23.5429 18.9286 23.5682C18.9572 23.5798 18.9713 23.6121 18.9598 23.6408C18.9483 23.6694 18.9159 23.6836 18.8873 23.672C18.8646 23.6631 18.8456 23.6553 18.8303 23.6493C18.6826 23.8711 17.9094 24.9334 16.5304 25.1664C16.347 25.1973 16.1606 25.2129 15.9712 25.2129L15.9723 25.2121Z" fill="#231F20"/>
<path d="M11.4946 21.3864C11.4865 21.3864 11.4783 21.3845 11.4705 21.3808C11.4425 21.3674 11.431 21.3339 11.4448 21.3064C11.5865 21.0147 11.8883 20.7933 12.3411 20.6482C12.3705 20.6388 12.4018 20.6549 12.4115 20.6842C12.4208 20.7136 12.4048 20.7449 12.3754 20.7546C11.9523 20.89 11.6729 21.0924 11.5452 21.3555C11.5356 21.3752 11.5158 21.3868 11.495 21.3868L11.4946 21.3864Z" fill="#231F20"/>
<path d="M19.3929 25.8733C19.3669 25.8733 19.3442 25.8554 19.3386 25.8294L18.8541 23.6314C18.8474 23.6013 18.8664 23.5715 18.8965 23.5648C18.9267 23.5581 18.9565 23.5771 18.9632 23.6072L19.4368 25.7561L20.9579 25.5845L19.7077 23.9563C19.6891 23.9317 19.6936 23.8967 19.7181 23.8781C19.7427 23.8595 19.7777 23.864 19.7963 23.8885L21.1064 25.5953C21.1187 25.6113 21.1213 25.6325 21.1135 25.6511C21.1057 25.6698 21.0885 25.6824 21.0685 25.6846L19.3992 25.8729C19.397 25.8729 19.3952 25.8729 19.3929 25.8729V25.8733Z" fill="#231F20"/>
<path d="M19.752 23.9776C19.7353 23.9776 19.7185 23.9701 19.7077 23.9556L19.1745 23.2609L18.8806 23.2323L18.9632 23.607C18.9699 23.6371 18.9509 23.6669 18.9208 23.6736C18.8903 23.6803 18.8609 23.6613 18.8542 23.6312L18.7552 23.1813C18.7515 23.1638 18.7559 23.1456 18.7678 23.1322C18.7797 23.1188 18.7969 23.1117 18.8151 23.1136L19.2095 23.1523C19.2248 23.1538 19.2389 23.1616 19.2482 23.1739L19.7963 23.8879C19.8149 23.9125 19.8104 23.9474 19.7859 23.966C19.7758 23.9739 19.7639 23.9776 19.752 23.9776Z" fill="#231F20"/>
<path d="M19.7499 25.5264C19.7239 25.5264 19.7012 25.5085 19.6956 25.4825L19.5721 24.9206C19.5687 24.905 19.5721 24.889 19.5814 24.876C19.5907 24.863 19.6048 24.8548 19.6204 24.8529L20.0528 24.8042C20.0718 24.8016 20.0915 24.8101 20.1034 24.8258L20.5101 25.3556C20.5224 25.3716 20.525 25.3928 20.5172 25.4114C20.5094 25.43 20.4923 25.4427 20.4722 25.4449L19.7566 25.5257C19.7544 25.5257 19.7525 25.5257 19.7503 25.5257L19.7499 25.5264ZM19.6941 24.9571L19.7935 25.4092L20.3609 25.3452L20.0335 24.9188L19.6941 24.9571Z" fill="#231F20"/>
<path d="M12.6142 36.8264C12.5923 36.8264 12.5715 36.8133 12.5625 36.7918L10.2009 31.0191C10.1968 31.0091 10.1956 30.9983 10.1975 30.9879C10.3575 30.1116 10.3125 28.6723 9.1895 26.794C8.51527 25.6665 7.76215 24.9067 7.75471 24.8989C7.73313 24.877 7.73313 24.8416 7.75471 24.82C7.77666 24.7985 7.81201 24.7981 7.83359 24.82C7.84104 24.8275 8.60272 25.5955 9.28402 26.7345C9.91248 27.7849 10.599 29.3745 10.3102 30.9919L12.6656 36.7497C12.6771 36.7784 12.6637 36.8107 12.6351 36.8226C12.628 36.8256 12.6209 36.8267 12.6139 36.8267L12.6142 36.8264Z" fill="#231F20"/>
<path d="M18.1219 20.6625H17.7301C17.7078 20.6625 17.6877 20.6495 17.6788 20.629C17.6698 20.6085 17.6739 20.5851 17.6888 20.5687C17.691 20.5661 17.9441 20.2707 17.9608 19.2426C17.9612 19.2117 17.9861 19.1879 18.0174 19.1875C18.0482 19.1879 18.0728 19.2135 18.0724 19.2441C18.0598 20.0165 17.9173 20.3935 17.8324 20.5505H18.0959C18.3869 20.1888 18.3597 19.2775 18.3593 19.2682C18.3582 19.2377 18.382 19.2117 18.4129 19.2106C18.4438 19.2098 18.4695 19.2329 18.4709 19.2634C18.4713 19.2731 18.5044 20.2584 18.1636 20.6431C18.1528 20.655 18.1379 20.6621 18.1219 20.6621V20.6625Z" fill="#231F20"/>
<path d="M18.4119 19.3219L18.0138 19.2989C17.9829 19.297 17.9594 19.2706 17.9613 19.2401C17.9631 19.2092 17.9892 19.1857 18.0201 19.1876L18.4182 19.2107L18.4119 19.3223V19.3219Z" fill="#231F20"/>
<path d="M16.9915 20.6622H16.5997C16.5781 20.6622 16.5588 20.6499 16.5495 20.6306C16.5402 20.6112 16.5428 20.5885 16.5558 20.5718C16.5592 20.5677 16.8855 20.139 16.8784 19.1753C16.8784 19.1444 16.903 19.1195 16.9339 19.1191H16.9342C16.9647 19.1191 16.9897 19.1437 16.99 19.1746C16.9956 19.9366 16.8025 20.3746 16.702 20.5506H16.9651C17.2498 20.1889 17.2751 19.4287 17.2758 19.2006C17.2758 19.1697 17.3007 19.1463 17.332 19.1452C17.3629 19.1452 17.3878 19.1705 17.3874 19.2014C17.3863 19.511 17.3495 20.2711 17.034 20.6429C17.0232 20.6555 17.0079 20.6626 16.9915 20.6626V20.6622Z" fill="#231F20"/>
<path d="M17.3317 19.2569C17.3317 19.2569 17.3291 19.2569 17.328 19.2569L16.9306 19.2308C16.8997 19.2286 16.8767 19.2022 16.8785 19.1713C16.8804 19.1404 16.9072 19.1177 16.9381 19.1192L17.3355 19.1453C17.3663 19.1471 17.3894 19.1739 17.3875 19.2044C17.3857 19.2338 17.3611 19.2565 17.3317 19.2565V19.2569Z" fill="#231F20"/>
<path d="M15.8712 20.6108H15.4794C15.4578 20.6108 15.4384 20.5985 15.4291 20.5792C15.4198 20.5598 15.4224 20.5371 15.4355 20.5204C15.4388 20.5163 15.7718 20.0794 15.7573 19.0956C15.7569 19.0647 15.7815 19.0394 15.8124 19.0391H15.8131C15.8436 19.0391 15.8686 19.0636 15.8689 19.0941C15.8805 19.874 15.6836 20.3209 15.5817 20.4992H15.8448C16.1357 20.1304 16.1566 19.3565 16.1558 19.1246C16.1558 19.0938 16.1808 19.0688 16.2116 19.0688C16.2425 19.0688 16.2675 19.0938 16.2675 19.1246C16.2682 19.4394 16.2358 20.2126 15.9136 20.5914C15.9028 20.6037 15.8875 20.6112 15.8712 20.6112V20.6108Z" fill="#231F20"/>
<path d="M16.2116 19.1802C16.2116 19.1802 16.209 19.1802 16.2075 19.1802C16.0743 19.1706 15.9407 19.1609 15.8086 19.1505C15.7777 19.1482 15.755 19.1211 15.7572 19.0906C15.7595 19.0597 15.7866 19.037 15.8171 19.0392C15.9492 19.0496 16.0821 19.0593 16.2153 19.069C16.2462 19.0712 16.2692 19.098 16.267 19.1285C16.2648 19.1579 16.2402 19.1802 16.2116 19.1802Z" fill="#231F20"/>
</g>
</g>
</g>
<defs>
<filter id="filter0_b_2361_47001" x="-5.7" y="-6.2" width="44.4" height="44.4" filterUnits="userSpaceOnUse" color-interpolation-filters="sRGB">
<feFlood flood-opacity="0" result="BackgroundImageFix"/>
<feGaussianBlur in="BackgroundImageFix" stdDeviation="3.1"/>
<feComposite in2="SourceAlpha" operator="in" result="effect1_backgroundBlur_2361_47001"/>
<feBlend mode="normal" in="SourceGraphic" in2="effect1_backgroundBlur_2361_47001" result="shape"/>
</filter>
<clipPath id="clip0_2361_47001">
<rect x="0.5" width="32" height="32" rx="16" fill="white"/>
</clipPath>
<clipPath id="clip1_2361_47001">
<rect width="32" height="32" fill="white" transform="translate(0.5)"/>
</clipPath>
</defs>
</svg>
