<svg  viewBox="0 0 33 32" fill="none" xmlns="http://www.w3.org/2000/svg">
<g filter="url(#filter0_b_2361_47031)">
<g clip-path="url(#clip0_2361_47031)">
<rect x="0.5" width="32" height="32" rx="16" fill="#E0E0E0"/>
<g clip-path="url(#clip1_2361_47031)">
<rect width="32" height="32" transform="translate(0.5)" fill="#F3F4F5"/>
<path d="M16.6332 21.3645C16.791 21.3645 16.9189 21.2366 16.9189 21.0787C16.9189 20.9209 16.791 20.793 16.6332 20.793C16.4754 20.793 16.3474 20.9209 16.3474 21.0787C16.3474 21.2366 16.4754 21.3645 16.6332 21.3645Z" fill="#231F20"/>
<path d="M16.6332 23.2669C16.791 23.2669 16.9189 23.1389 16.9189 22.9811C16.9189 22.8233 16.791 22.6953 16.6332 22.6953C16.4754 22.6953 16.3474 22.8233 16.3474 22.9811C16.3474 23.1389 16.4754 23.2669 16.6332 23.2669Z" fill="#231F20"/>
<path d="M16.6332 25.1692C16.791 25.1692 16.9189 25.0412 16.9189 24.8834C16.9189 24.7256 16.791 24.5977 16.6332 24.5977C16.4754 24.5977 16.3474 24.7256 16.3474 24.8834C16.3474 25.0412 16.4754 25.1692 16.6332 25.1692Z" fill="#231F20"/>
<path d="M19.8853 8.70792H10.7478C10.7835 8.48615 10.8241 8.2655 10.8695 8.04634C11.0637 7.11089 11.3022 6.16504 11.959 5.47145C12.0274 5.39927 12.1 5.33043 12.1766 5.26457C13.6803 3.97415 16.7017 3.90829 18.2756 4.87573C18.8405 5.2229 19.2185 5.76504 19.4659 6.39201C19.4849 6.43964 19.5028 6.48764 19.5203 6.53638C19.7454 7.16671 19.8473 7.87257 19.879 8.54754C19.8808 8.58364 19.8823 8.61936 19.8834 8.65508C19.8842 8.67257 19.8849 8.69043 19.8853 8.70792Z" fill="#C47451"/>
<path d="M16.1094 9.25301L16.1053 10.1185C16.1042 10.3499 15.9163 10.5367 15.6852 10.5367H14.5607C14.1723 10.5367 13.8404 10.2562 13.776 9.87329L13.6376 9.05282C13.2257 8.71645 12.7881 8.93152 12.6504 9.01524L12.5057 9.87329C12.4413 10.2562 12.1094 10.5367 11.7209 10.5367L11.2432 10.536L10.576 10.5352C10.5689 10.8128 10.5712 11.0904 10.5838 11.3669C10.5909 11.5258 10.6017 11.6831 10.6177 11.8387C10.6977 12.6283 10.9127 13.3635 11.5118 13.9057C11.5944 13.9804 11.6841 14.0511 11.7816 14.1181C12.4298 14.5624 13.2513 14.7183 14.0312 14.6245C15.0415 14.5032 16.3219 13.9994 16.7092 12.9765C16.8845 12.5137 16.8752 11.9842 16.6839 11.528C17.197 11.3754 17.6115 11.0952 17.8813 10.6242C18.0774 10.2822 18.1816 9.89226 18.2266 9.50231C18.2292 9.48035 18.2504 9.19087 18.2534 9.04203L16.1094 9.25301ZM13.1769 11.8219L15.2435 11.2478C15.3165 12.0902 14.0539 12.5911 13.1769 11.8219Z" fill="#C47451"/>
<path d="M10.1411 8.70838C10.0905 8.70838 10.0496 8.74931 10.0496 8.79991V9.1147C10.0496 9.16531 10.0905 9.20624 10.1411 9.20624H10.3137L10.326 8.70801H10.1411V8.70838Z" fill="#80A5F5"/>
<path d="M15.9702 19.9235L15.9706 19.9239L17.8768 21.1086L20.8807 18.8615L20.8759 18.8537L19.7012 17.0145L19.6986 17.0107L15.9702 19.9235Z" fill="#009F62"/>
<path d="M15.7848 33.0233C19.1002 32.9318 22.2831 31.9044 25.4589 31.0504C27.0764 30.6155 28.708 30.2118 30.3712 29.9959C31.486 29.8516 32.7928 30.0897 33.934 29.92V29.4776L33.9329 28.15L33.9244 28.1373L33.9032 28.1064C31.4488 28.9459 28.6819 28.2344 26.1275 28.8071C25.1556 29.0248 24.2116 29.353 23.2494 29.6097C19.4012 30.6374 15.3372 30.5113 11.3804 30.0581C9.08083 29.795 6.79617 29.4233 4.50333 29.1115C3.32529 28.9511 2.14464 28.8041 0.960266 28.6977C0.331056 28.6408 -0.396387 28.3874 -1.07843 28.3598L-1.97146 29.5602L-2.41797 30.1604V30.7059C0.430404 31.0036 3.24975 31.4307 6.06799 31.9427C9.17757 32.5079 12.6138 33.1111 15.7848 33.0233Z" fill="#CEDFF1"/>
<path d="M30.3712 29.9958C28.708 30.2116 27.0764 30.6154 25.4589 31.0503C22.2831 31.9043 19.1002 32.9316 15.7848 33.0232C12.6138 33.111 9.17757 32.5078 6.06799 31.9426C3.24975 31.4306 0.430404 31.0035 -2.41797 30.7058V34.4405H33.9363L33.934 29.9199C32.7928 30.0896 31.486 29.8515 30.3712 29.9958Z" fill="#FBEFE3"/>
<path d="M24.4272 27.6523C26.5656 27.22 28.5909 26.4538 30.7542 26.2086C31.3433 26.142 31.958 26.1472 32.5719 26.1521L31.5929 24.715C31.5062 24.7176 31.424 24.7184 31.3481 24.7158C29.6022 24.6581 27.8396 24.6901 26.1276 25.0737C25.1557 25.2914 24.2117 25.6192 23.2495 25.8763C19.4013 26.9037 15.3373 26.7779 11.3805 26.3247C8.0521 25.9437 4.74791 25.3368 1.41656 25.0071L0.0922852 26.7868C8.16782 27.7256 16.368 29.2817 24.4272 27.6523Z" fill="#CEDFF1"/>
<path d="M31.5929 24.715C31.5062 24.7176 31.4239 24.7183 31.348 24.7157C29.6022 24.658 27.8396 24.69 26.1276 25.0737C25.1557 25.2913 24.2117 25.6191 23.2494 25.8763C19.4012 26.9036 15.3372 26.7779 11.3804 26.3246C8.05204 25.9436 4.74785 25.3367 1.4165 25.0071L3.37743 22.3719L4.51009 20.8497C4.92795 20.2882 5.54897 19.9124 6.24032 19.803L9.34134 19.3248L10.3274 19.173C10.3281 19.2683 10.3713 19.3643 10.4372 19.4353C10.5265 19.5317 10.6511 19.5883 10.7769 19.6266C11.3302 19.794 11.9177 19.6441 12.4405 19.3732L14.3616 20.927L15.8682 19.9883L15.9702 19.9243L17.8764 21.1094L20.8803 18.8619L20.8755 18.8545L21.095 18.8869L27.2193 19.7925C27.7942 19.8837 28.3196 20.1587 28.7199 20.5698C28.8278 20.6804 28.9261 20.8009 29.0143 20.9304L31.5925 24.715H31.5929Z" fill="#FBEFE3"/>
<path d="M4.5034 29.1116C6.79624 29.4234 9.08089 29.7952 11.3804 30.0582C15.3373 30.5114 19.4013 30.6376 23.2494 29.6098C24.2117 29.3531 25.1557 29.0249 26.1276 28.8072C28.682 28.2346 31.4489 28.946 33.9032 28.1066L32.5719 26.152C31.9579 26.1472 31.3432 26.1419 30.7542 26.2086C28.5908 26.4538 26.5655 27.2199 24.4271 27.6523C16.368 29.2817 8.16777 27.7256 0.0922385 26.7868L-1.07837 28.36C-0.396323 28.3875 0.331121 28.6409 0.96033 28.6979C2.1447 28.8043 3.32535 28.9513 4.5034 29.1116Z" fill="#FBEFE3"/>
<path d="M21.0088 9.97436C21.0081 9.96953 21.007 9.96506 21.0058 9.96022C20.9991 9.9312 20.9917 9.90218 20.9835 9.8739C20.8849 9.5312 20.6758 9.24097 20.4008 9.05008C20.3908 9.04301 20.3811 9.03669 20.3711 9.03073C20.3465 9.01399 20.3212 8.99873 20.2959 8.98422C20.2386 8.95222 20.1791 8.92394 20.1177 8.90013C20.1106 8.89715 20.1039 8.89455 20.0968 8.89194C20.0816 8.88562 20.0663 8.88004 20.0507 8.87483C20.0317 8.8685 20.0124 8.86292 19.993 8.85734C19.9684 8.85064 19.9439 8.84432 19.919 8.83911C19.8282 8.81901 19.734 8.80859 19.6377 8.80859C19.5781 8.80859 19.5197 8.81269 19.4624 8.82013C19.4434 8.82274 19.4248 8.82571 19.4062 8.82906C19.3746 8.83464 19.3433 8.84171 19.3124 8.84953C19.2767 8.85846 19.2418 8.86887 19.2075 8.88078C19.1383 8.90422 19.0717 8.93362 19.0077 8.96822L18.6148 9.00692C18.6151 9.14125 18.617 9.52041 18.6274 9.92376C18.6408 10.4398 18.6684 10.9958 18.7253 11.1286C18.7577 11.2049 18.9262 11.779 18.9649 12.537C19.0594 14.3762 18.3904 17.2975 13.167 16.8157L13.1458 17.3533V17.3612L13.1964 17.4073L15.791 19.7615L15.7928 19.7634L15.9703 19.9241L16.0168 19.8877L19.6987 17.011L19.7013 17.0147L19.6953 16.6382L19.6172 11.8337C19.6239 11.8337 19.6306 11.8345 19.6377 11.8345C20.3952 11.8345 21.0129 11.1926 21.0449 10.3874C21.046 10.3654 21.0464 10.3435 21.0464 10.3215C21.0464 10.2021 21.0334 10.0856 21.0088 9.97436Z" fill="#C47451"/>
<path d="M13.1668 16.8156C13.1144 16.8107 13.0615 16.8059 13.0079 16.8003C12.4755 16.7453 12.0506 16.5853 11.7134 16.3527C10.2429 15.3399 10.4353 12.948 10.6176 11.8392C10.679 12.445 10.82 13.0187 11.1527 13.498C11.3134 13.7294 11.5188 13.9386 11.7815 14.1186C12.3728 14.5239 13.108 14.6891 13.8247 14.644C13.8935 14.6396 13.9627 14.6333 14.0312 14.6251C14.4881 14.5704 15.0005 14.4372 15.4604 14.2132C15.9769 13.9613 16.4275 13.5947 16.6589 13.0958C16.6772 13.0571 16.6939 13.0173 16.7092 12.9771C16.7196 12.9495 16.7293 12.9216 16.7386 12.8937C16.8509 12.5488 16.8643 12.1726 16.7791 11.8202C16.7553 11.7205 16.7233 11.623 16.6839 11.5285C16.8212 11.4876 16.9514 11.4377 17.0738 11.3771C17.2401 11.2952 17.3919 11.194 17.5266 11.0708C17.6628 10.9458 17.7819 10.7981 17.8813 10.6247C18.0773 10.2827 18.1815 9.89278 18.2266 9.50283C18.2292 9.48088 18.2504 9.19139 18.2533 9.04256L18.6146 9.00684C18.6154 9.3127 18.6236 10.8915 18.7252 11.1285C18.8368 11.3897 20.5432 17.4961 13.1668 16.8156Z" fill="#541B0A"/>
<path d="M15.9702 19.9243L15.8682 19.9883L14.3616 20.927L12.4405 19.3732L11.8946 18.9315L11.8872 18.9259L12.2355 18.4895L12.7627 17.829L12.9436 17.6024L12.9681 17.5719L13.14 17.3564L13.1453 17.3613L13.3205 17.5202L15.9702 19.9243Z" fill="#009F62"/>
<path d="M15.2436 11.248L13.177 11.8222C14.054 12.5913 15.3165 12.0901 15.2436 11.248Z" fill="white"/>
<g style="mix-blend-mode:screen">
<path d="M11.5765 13.9056H11.5118C10.9127 13.3634 10.6977 12.6282 10.6177 11.8386C10.6017 11.6831 10.5909 11.5257 10.5838 11.3668C10.5712 11.0903 10.5689 10.8127 10.576 10.5352L11.2432 10.5359C11.1814 11.7233 11.2506 12.9195 11.5765 13.9056Z" fill="#C47451"/>
</g>
<g style="mix-blend-mode:screen">
<path d="M11.4298 8.708H10.7478C10.7835 8.48623 10.8241 8.26558 10.8695 8.04642C11.0637 7.11097 11.3022 6.16512 11.959 5.47153C12.0274 5.39935 12.1 5.33051 12.1766 5.26465C12.0538 5.68586 11.6717 7.06409 11.4298 8.708Z" fill="#C47451"/>
</g>
<g style="mix-blend-mode:screen">
<path d="M18.5353 5.20028C18.4732 5.48493 17.6099 5.62521 16.6391 5.1039C15.7208 4.61088 14.5613 4.68381 14.6235 4.39916C14.6856 4.11451 16.2231 4.17591 16.945 4.36344C17.9537 4.6254 18.5974 4.91563 18.5353 5.20028Z" fill="#C47451"/>
</g>
<g style="mix-blend-mode:multiply" opacity="0.6">
<path d="M19.1878 8.87342H13.7783L13.8364 9.21835L13.9566 9.93128C14.0317 10.3763 14.2914 10.5478 14.7428 10.5478L15.8308 10.5214C16.0622 10.5214 16.2832 10.2997 16.3119 10.0641L16.3807 9.52421L18.8172 9.10784C18.94 8.97724 19.1882 8.87305 19.1882 8.87305L19.1878 8.87342Z" fill="#C47451"/>
</g>
<path d="M16.1094 9.25312L18.253 9.04215L18.6147 9.00643L19.0076 8.96773C19.197 8.86577 19.411 8.8081 19.6376 8.8081C19.7603 8.8081 19.8794 8.82522 19.9929 8.85685V8.7787C19.9929 8.73963 19.9613 8.70801 19.9222 8.70801H16.1124L16.1097 9.25312H16.1094Z" fill="#80A5F5"/>
<path d="M13.5796 8.70838L13.6376 9.05331L13.7761 9.87341C13.8408 10.2567 14.1723 10.5368 14.5608 10.5368H15.6853C15.9167 10.5368 16.1042 10.3501 16.1054 10.1186L16.1095 9.25312L16.1121 8.70801H13.5796V8.70838Z" fill="#CEDFF1"/>
<g style="mix-blend-mode:multiply" opacity="0.6">
<path d="M13.6852 9.43814L13.5654 8.74121L12.6225 8.88261L12.5838 9.11219L11.6647 9.24354L11.3228 10.5258C11.4846 10.5202 11.6465 10.515 11.8083 10.5094C11.9773 10.5038 12.1737 10.5217 12.3255 10.4339C12.4688 10.3513 12.6117 10.1898 12.6638 10.0394C12.7616 9.75703 12.7892 9.58699 12.8625 9.29713C13.0906 9.1974 13.3551 9.16837 13.6855 9.43777L13.6852 9.43814Z" fill="#C47451"/>
</g>
<path d="M12.7021 8.70838L12.6533 9.10428C12.791 9.02056 13.2286 8.80549 13.6405 9.14186L13.5795 8.70801H12.7021V8.70838Z" fill="#80A5F5"/>
<path d="M12.5056 9.87341L12.6503 9.01536L12.7021 8.70801H10.3255L10.3132 9.20624L10.2872 10.2767C10.2838 10.4185 10.3977 10.5354 10.5395 10.5357H10.5759L11.7209 10.5372C12.1093 10.5372 12.4412 10.2567 12.5056 9.87378V9.87341Z" fill="#CEDFF1"/>
<g style="mix-blend-mode:screen">
<path d="M21.0087 9.97436C20.9986 9.9766 20.9886 9.97733 20.9785 9.97733C20.9346 9.97659 20.8892 9.95873 20.8535 9.93194C20.797 9.88989 20.7572 9.82962 20.7125 9.77492C20.6109 9.65101 20.4762 9.55352 20.3274 9.49361C20.2645 9.46831 20.2012 9.46237 20.1391 9.43669C20.0546 9.40171 19.975 9.36413 19.882 9.35706C19.8169 9.35185 19.7514 9.36115 19.6863 9.35371C19.5147 9.33361 19.3674 9.18254 19.3518 9.01027C19.3492 8.97975 19.3503 8.94813 19.3614 8.91948C19.3789 8.87445 19.4187 8.84208 19.4623 8.82013C19.5196 8.81269 19.578 8.80859 19.6375 8.80859C19.7339 8.80859 19.828 8.81901 19.9188 8.83911C19.9438 8.84432 19.9683 8.85064 19.9929 8.85734C20.0122 8.86292 20.0316 8.8685 20.0506 8.87483C20.0662 8.88004 20.0814 8.88562 20.0967 8.89194C20.1038 8.89455 20.1105 8.89715 20.1175 8.90013C20.1298 8.9098 20.1428 8.91873 20.1566 8.92654C20.2273 8.96673 20.3006 8.98906 20.3709 9.03073C20.381 9.03669 20.3906 9.04301 20.4007 9.05008C20.6757 9.24097 20.8848 9.5312 20.9834 9.8739C20.9916 9.90218 20.999 9.9312 21.0057 9.96022C21.0068 9.96506 21.0079 9.96953 21.0087 9.97436Z" fill="#C47451"/>
</g>
<g style="mix-blend-mode:screen">
<path d="M11.7134 16.3524C10.2429 15.3395 10.4353 12.9477 10.6176 11.8389C10.679 12.4446 10.82 13.0184 11.1527 13.4977C11.1471 13.6618 11.0917 15.658 11.7134 16.3524Z" fill="#662212"/>
</g>
<g style="mix-blend-mode:screen">
<path d="M17.3243 11.4837C17.1341 11.9094 17.3295 12.4392 17.2435 12.8887C17.1713 13.2668 16.9313 13.6017 16.6206 13.829C16.3099 14.0564 15.933 14.1821 15.5516 14.2338C15.5256 14.2372 15.4973 14.2398 15.4753 14.226C15.4694 14.2223 15.4645 14.2178 15.4604 14.2126C15.9769 13.9607 16.4275 13.5942 16.659 13.0952C16.6772 13.0565 16.6939 13.0167 16.7092 12.9765C16.7196 12.949 16.7293 12.9211 16.7386 12.8932C16.8491 12.555 16.8759 12.1631 16.7799 11.8219C16.7799 11.8212 16.7799 11.8204 16.7791 11.8197C16.7553 11.72 16.7233 11.6225 16.6839 11.528C16.8212 11.4871 16.9514 11.4372 17.0738 11.3765C17.2402 11.2947 17.392 11.1935 17.5267 11.0703C17.5021 11.2165 17.3872 11.3434 17.3243 11.4837Z" fill="#541B0A"/>
</g>
<path d="M16.6332 21.3645C16.791 21.3645 16.9189 21.2366 16.9189 21.0787C16.9189 20.9209 16.791 20.793 16.6332 20.793C16.4754 20.793 16.3474 20.9209 16.3474 21.0787C16.3474 21.2366 16.4754 21.3645 16.6332 21.3645Z" fill="#C6A587"/>
<path d="M16.6332 23.2669C16.791 23.2669 16.9189 23.1389 16.9189 22.9811C16.9189 22.8233 16.791 22.6953 16.6332 22.6953C16.4754 22.6953 16.3474 22.8233 16.3474 22.9811C16.3474 23.1389 16.4754 23.2669 16.6332 23.2669Z" fill="#C6A587"/>
<path d="M16.6332 25.1692C16.791 25.1692 16.9189 25.0412 16.9189 24.8834C16.9189 24.7256 16.791 24.5977 16.6332 24.5977C16.4754 24.5977 16.3474 24.7256 16.3474 24.8834C16.3474 25.0412 16.4754 25.1692 16.6332 25.1692Z" fill="#C6A587"/>
<g style="mix-blend-mode:multiply" opacity="0.7">
<path d="M19.8791 8.54774C19.8773 8.55481 19.8762 8.56188 19.8754 8.56932C19.8713 8.60467 19.8676 8.62811 19.8602 8.64523C19.8457 8.67872 19.8177 8.6869 19.7444 8.70811C19.5212 8.70811 19.302 8.7215 19.0795 8.73043C19.0643 8.73118 19.0471 8.73118 19.0349 8.72188C19.0241 8.71369 19.0192 8.69955 19.0151 8.68653C18.953 8.48076 18.9597 8.2549 19.0334 8.05323C19.0613 7.97657 19.0985 7.90402 19.1353 7.83146C19.1807 7.74253 19.2261 7.6536 19.2715 7.56504C19.3069 7.49546 19.3426 7.42551 19.3645 7.35035C19.4003 7.22867 19.3913 7.10774 19.3898 6.98309C19.3887 6.87443 19.398 6.76467 19.398 6.65453C19.398 6.56709 19.4025 6.47295 19.4561 6.40374C19.459 6.40002 19.4624 6.39593 19.4657 6.39258C19.4847 6.44021 19.5026 6.4882 19.5201 6.53695C19.7452 7.16727 19.8471 7.87313 19.8788 8.54811L19.8791 8.54774Z" fill="#C47451"/>
</g>
<g style="mix-blend-mode:screen" opacity="0.6">
<path d="M15.9709 19.9239L16.0584 19.97L20.1477 17.7069L19.7071 17.0107L15.9709 19.9239Z" fill="#009F62"/>
</g>
<g style="mix-blend-mode:screen" opacity="0.8">
<path d="M28.7207 20.5696C28.9264 20.769 29.1073 20.9949 29.2598 21.2356C29.3071 21.31 29.3514 21.4079 29.3026 21.4812C29.2457 21.5668 29.1162 21.5455 29.0187 21.5121C28.0055 21.1653 27.0593 20.6183 26.0141 20.3842C24.7873 20.1093 23.4775 20.2782 22.2853 19.8789C21.7968 19.7152 21.3041 19.4176 21.1326 18.932C22.3136 18.9067 23.5902 19.2557 24.7594 19.4287C25.5795 19.55 26.3995 19.6713 27.2196 19.7926C27.7971 19.8782 28.3084 20.1699 28.7207 20.5696Z" fill="#FBEFE3"/>
</g>
<g style="mix-blend-mode:multiply">
<path d="M12.4405 19.3733C11.9177 19.6442 11.3302 19.7941 10.7769 19.6267C10.6511 19.5884 10.5265 19.5318 10.4372 19.4355C10.3713 19.3644 10.3281 19.2684 10.3274 19.1731L11.8946 18.9316L12.4405 19.3733Z" fill="#D8B99C"/>
</g>
<g style="mix-blend-mode:multiply">
<path d="M13.4247 18.1148C13.4068 18.2268 13.386 18.3711 13.3566 18.5025C13.3399 18.5762 13.3209 18.6454 13.2978 18.7027C13.2267 18.8802 13.0106 19.0216 12.8595 19.1235C12.7263 19.2132 12.586 19.298 12.4405 19.3732L11.8946 18.9315L11.8872 18.9259C11.9032 18.9378 12.052 18.735 12.2355 18.4895C12.4078 18.2591 12.6106 17.9912 12.7627 17.829C12.8491 17.7367 12.9194 17.6783 12.9588 17.6798C12.9611 17.6515 12.9555 17.6251 12.9436 17.6024L12.9681 17.5719L13.14 17.3564L13.1453 17.3613L13.3205 17.5202C13.4254 17.6958 13.4571 17.912 13.4247 18.1148Z" fill="#009F62"/>
</g>
<g style="mix-blend-mode:screen" opacity="0.8">
<path d="M9.33203 19.3424C9.39975 19.3618 9.44849 19.4124 9.45593 19.5203C9.46188 19.6107 9.42059 19.6978 9.37035 19.7737C9.16533 20.0836 8.81556 20.269 8.46096 20.3795C8.10635 20.49 7.73463 20.5384 7.37891 20.6459C6.83826 20.8096 6.3471 21.1058 5.88533 21.4317C5.77035 21.5129 5.65649 21.5962 5.5404 21.6758C5.09389 21.9824 4.58449 22.2876 4.06058 22.4349C3.93556 22.4703 3.27249 22.6336 3.43212 22.3069C3.58021 22.004 3.84105 21.7477 4.04087 21.479C4.19714 21.2688 4.3538 21.0585 4.51007 20.8483C4.92793 20.2868 5.54896 19.911 6.24031 19.8016C6.34859 19.7845 6.45724 19.7681 6.56589 19.7514C7.09761 19.6695 7.62933 19.5873 8.16105 19.5054C8.41556 19.4663 8.67007 19.4269 8.92459 19.3878C9.0351 19.3707 9.21296 19.3078 9.3324 19.3421L9.33203 19.3424Z" fill="#FBEFE3"/>
</g>
<g style="mix-blend-mode:multiply" opacity="0.7">
<path d="M19.7002 16.4798L15.9275 19.6471L13.6384 17.4387C18.9716 17.7274 19.1789 14.2041 18.9649 12.5371C19.0594 14.3764 18.3904 17.2977 13.167 16.8158L13.1458 17.3535V17.3613L15.7913 19.7613V19.762L15.7936 19.7635L15.7958 19.7646L15.9718 19.9243V19.8625L16.0176 19.8878L19.6994 17.0112L19.702 17.0149L19.7009 16.4798H19.7002Z" fill="#C47451"/>
</g>
<path d="M19.6373 11.8904C19.6329 11.8904 19.628 11.8904 19.6235 11.8904H19.6161C19.5852 11.8897 19.5607 11.8644 19.561 11.8335C19.5614 11.8026 19.586 11.7773 19.6176 11.7784H19.628C19.631 11.7788 19.634 11.7792 19.6373 11.7792C20.3834 11.7792 20.9902 11.1254 20.9902 10.3221C20.9902 9.65825 20.5739 9.07816 19.9778 8.91146C19.948 8.90328 19.9309 8.87239 19.9391 8.84262C19.9473 8.81286 19.9782 8.79537 20.0079 8.80393C20.652 8.98365 21.1019 9.60802 21.1019 10.3217C21.1019 11.1868 20.4448 11.8904 19.6373 11.8904Z" fill="#231F20"/>
<path d="M18.7346 9.21568C18.7193 9.21568 18.7041 9.20935 18.6929 9.19707C18.6725 9.174 18.6743 9.13866 18.697 9.11819C18.7833 9.0408 18.8786 8.97382 18.9806 8.91875C19.0077 8.90423 19.0416 8.91428 19.0561 8.94145C19.0706 8.96861 19.0606 9.00247 19.0334 9.01698C18.9393 9.06759 18.8511 9.12973 18.7714 9.20117C18.7607 9.21084 18.7476 9.2153 18.7342 9.2153L18.7346 9.21568Z" fill="#231F20"/>
<path d="M19.0079 9.02419C18.9882 9.02419 18.9688 9.01339 18.9588 8.99479C18.9443 8.96763 18.9543 8.93377 18.9815 8.91925C19.1865 8.80911 19.4075 8.75293 19.6379 8.75293C19.7633 8.75293 19.8879 8.77005 20.0085 8.80354C20.0382 8.81172 20.0553 8.8426 20.0472 8.87237C20.039 8.90214 20.0081 8.91926 19.9783 8.91107C19.8678 8.88019 19.7532 8.86456 19.6379 8.86456C19.4261 8.86456 19.2233 8.91591 19.0347 9.01749C19.0261 9.02196 19.0172 9.02419 19.0083 9.02419H19.0079Z" fill="#231F20"/>
<path d="M19.6171 11.8892H19.6163C19.4072 11.8858 19.2063 11.8371 19.0191 11.7433C18.9916 11.7296 18.9804 11.6961 18.9942 11.6685C19.0079 11.641 19.0414 11.6298 19.069 11.6436C19.2409 11.7295 19.4258 11.7746 19.6178 11.7775C19.6487 11.7779 19.6732 11.8032 19.6729 11.8341C19.6725 11.8646 19.6476 11.8892 19.6171 11.8892Z" fill="#231F20"/>
<path d="M19.8904 11.1023C19.8793 11.1023 19.8681 11.099 19.8581 11.0919C19.8432 11.0811 19.4897 10.8281 19.4532 10.5494C19.4406 10.4519 19.467 10.3634 19.5314 10.2856C19.7196 10.0597 19.9861 10.2659 20.0999 10.3537C20.1096 10.3611 20.1222 10.3716 20.1368 10.3835C20.3172 10.5319 20.3712 10.5427 20.3872 10.5356C20.3872 10.5356 20.3995 10.5222 20.3957 10.462C20.3846 10.2882 20.3306 10.1178 20.2391 9.96931C20.165 9.84876 20.0776 9.76206 19.9794 9.7122C19.7673 9.60467 19.4945 9.65564 19.2553 9.72001C19.2255 9.7282 19.195 9.71034 19.1868 9.68057C19.1786 9.6508 19.1965 9.6203 19.2262 9.61211C19.4856 9.54253 19.784 9.48783 20.0296 9.61248C20.1464 9.67164 20.2491 9.77211 20.334 9.91053C20.4348 10.0742 20.4943 10.2625 20.5066 10.4545C20.5126 10.5475 20.4895 10.6082 20.4378 10.635C20.3407 10.6849 20.2008 10.5807 20.0657 10.4694C20.0523 10.4583 20.0404 10.4486 20.0315 10.4419C19.8543 10.3049 19.7159 10.238 19.6169 10.3567C19.5723 10.4102 19.5552 10.4683 19.5637 10.5345C19.5935 10.7649 19.9191 10.9981 19.9224 11.0004C19.9477 11.0182 19.9533 11.0532 19.9358 11.0782C19.925 11.0934 19.9075 11.1016 19.8901 11.1016L19.8904 11.1023Z" fill="#231F20"/>
<path d="M13.1925 10.9041C13.0317 10.9041 12.9503 10.7378 12.9175 10.6712C12.7374 10.3043 12.8706 9.84775 12.986 9.53631C12.9968 9.50729 13.0288 9.49277 13.0578 9.50356C13.0868 9.51435 13.1013 9.54636 13.0905 9.57538C12.9819 9.86748 12.8565 10.2939 13.0176 10.6224C13.0831 10.7557 13.1437 10.8059 13.2215 10.7895C13.3748 10.7575 13.5147 10.6771 13.6427 10.5949C13.6688 10.5782 13.7034 10.586 13.7197 10.612C13.7361 10.6381 13.7287 10.6723 13.7026 10.6891C13.5653 10.7769 13.415 10.8632 13.2438 10.8989C13.2256 10.9026 13.2081 10.9045 13.1917 10.9045L13.1925 10.9041Z" fill="#231F20"/>
<path d="M19.7009 17.07C19.6704 17.07 19.6455 17.0455 19.6451 17.015L19.561 11.8339C19.5607 11.8031 19.5852 11.7778 19.6161 11.7774C19.6459 11.7763 19.6723 11.8016 19.6727 11.8324L19.7568 17.0135C19.7571 17.0444 19.7326 17.0697 19.7017 17.07H19.7006H19.7009Z" fill="#231F20"/>
<path d="M0.0920283 26.8426C0.0804935 26.8426 0.0685859 26.8389 0.0589115 26.8314C0.0339813 26.8132 0.0291419 26.7783 0.0473745 26.7533L1.37165 24.9736C1.38988 24.949 1.42524 24.9438 1.4498 24.9621C1.47473 24.9803 1.47956 25.0153 1.46133 25.0402L0.13705 26.8199C0.126259 26.8348 0.109145 26.8422 0.0924008 26.8422L0.0920283 26.8426Z" fill="#231F20"/>
<path d="M1.41649 25.0624C1.40496 25.0624 1.39305 25.0587 1.38337 25.0512C1.35844 25.033 1.3536 24.998 1.37184 24.9731L4.46542 20.8157C4.89481 20.239 5.52179 19.8594 6.23175 19.747L11.8861 18.8756C11.9162 18.8711 11.9449 18.8916 11.9497 18.9221C11.9545 18.9526 11.9333 18.9809 11.9032 18.9857L6.24886 19.8572C5.56831 19.9647 4.96663 20.329 4.55472 20.8819L1.46114 25.0393C1.45035 25.0542 1.43324 25.0617 1.41649 25.0617V25.0624Z" fill="#231F20"/>
<path d="M33.9362 34.4965H-2.41806C-2.44895 34.4965 -2.47388 34.4715 -2.47388 34.4407V30.706C-2.47388 30.6751 -2.44895 30.6502 -2.41806 30.6502C-2.38718 30.6502 -2.36225 30.6751 -2.36225 30.706V34.3848H33.8804L33.8778 29.4777C33.8778 29.4468 33.9027 29.4219 33.9336 29.4219C33.9645 29.4219 33.9894 29.4468 33.9894 29.4777L33.992 34.4407C33.992 34.4555 33.986 34.4697 33.9756 34.4801C33.9652 34.4905 33.9511 34.4965 33.9362 34.4965Z" fill="#231F20"/>
<path d="M31.5928 24.7709C31.575 24.7709 31.5575 24.7623 31.5467 24.7463L28.9685 20.9618C28.5633 20.3664 27.9229 19.9604 27.2107 19.8477L20.8676 18.9097C20.8371 18.9052 20.8159 18.8769 20.8208 18.8464C20.8252 18.8159 20.8535 18.7947 20.884 18.7995L27.2278 19.7376C27.9705 19.8551 28.6384 20.2786 29.0608 20.8992L31.639 24.6838C31.6565 24.7091 31.6498 24.7441 31.6245 24.7612C31.6148 24.7679 31.604 24.7709 31.5932 24.7709H31.5928Z" fill="#231F20"/>
<path d="M32.5717 26.2079C32.5539 26.2079 32.5364 26.1994 32.5256 26.1834L31.5466 24.7463C31.5291 24.721 31.5358 24.6861 31.5611 24.6689C31.5868 24.6515 31.6214 24.6581 31.6385 24.6834L32.6175 26.1205C32.635 26.1458 32.6283 26.1808 32.603 26.1979C32.5933 26.2046 32.5825 26.2075 32.5717 26.2075V26.2079Z" fill="#231F20"/>
<path d="M13.1452 17.4169C13.1452 17.4169 13.1437 17.4169 13.143 17.4169C13.1121 17.4158 13.0883 17.3897 13.0894 17.3588L13.111 16.8134C13.1121 16.7832 13.137 16.7598 13.1668 16.7598C13.1675 16.7598 13.1683 16.7598 13.169 16.7598C13.1999 16.7609 13.2237 16.7869 13.2226 16.8178L13.201 17.3633C13.1999 17.3934 13.175 17.4169 13.1452 17.4169Z" fill="#231F20"/>
<path d="M10.7477 8.76417C10.7447 8.76417 10.7417 8.76417 10.7387 8.76342C10.7082 8.75859 10.6878 8.72994 10.6926 8.69942C10.7283 8.47654 10.7696 8.25328 10.8146 8.03523C11.0078 7.10426 11.2522 6.13645 11.9183 5.43319C12.5799 4.73477 13.711 4.27747 15.0212 4.17887C16.2632 4.08547 17.4907 4.32807 18.3045 4.82817C19.0089 5.26128 19.8643 6.28565 19.9406 8.70612C19.9417 8.737 19.9175 8.76268 19.8867 8.7638C19.8558 8.76491 19.8301 8.74073 19.829 8.70984C19.7877 7.40119 19.4796 5.68212 18.2457 4.92342C17.4513 4.43524 16.2483 4.19859 15.029 4.29012C13.746 4.38649 12.6416 4.83115 11.9987 5.50984C11.3531 6.19189 11.1134 7.14259 10.9233 8.05756C10.8787 8.27375 10.8377 8.49552 10.802 8.71654C10.7975 8.74407 10.7737 8.76342 10.7469 8.76342L10.7477 8.76417Z" fill="#231F20"/>
<path d="M10.6172 11.8946C10.5889 11.8946 10.5647 11.873 10.5618 11.8443C10.5469 11.6962 10.5357 11.5407 10.5279 11.3695C10.5156 11.1001 10.513 10.8188 10.5197 10.5338C10.5205 10.5033 10.5454 10.4795 10.5755 10.4795H10.577C10.6079 10.4802 10.6321 10.5059 10.6313 10.5368C10.6243 10.8192 10.6272 11.0979 10.6392 11.3647C10.647 11.534 10.6578 11.6873 10.6726 11.8335C10.6756 11.8641 10.6533 11.8916 10.6228 11.8946C10.6209 11.8946 10.6191 11.8946 10.6172 11.8946Z" fill="#231F20"/>
<path d="M13.6005 14.7064C12.9207 14.7064 12.264 14.5166 11.7501 14.1646C10.8426 13.5425 10.6383 12.5981 10.562 11.845C10.5591 11.8145 10.5814 11.7869 10.6119 11.784C10.6428 11.7814 10.6699 11.8033 10.6729 11.8338C10.7831 12.917 11.1347 13.6076 11.8134 14.0727C12.4151 14.485 13.221 14.6662 14.0247 14.5698C15.0018 14.4526 16.2778 13.9596 16.6573 12.9576C16.8277 12.5073 16.8188 11.9946 16.6327 11.5503C16.6268 11.5358 16.6271 11.519 16.6338 11.5049C16.6405 11.4908 16.6532 11.48 16.6685 11.4755C17.205 11.3159 17.586 11.0286 17.8331 10.5977C18.0087 10.2915 18.1226 9.92127 18.1717 9.49709C18.1739 9.47699 18.1951 9.18899 18.1981 9.04202C18.1989 9.01113 18.2242 8.98658 18.2551 8.98732C18.2859 8.98807 18.3105 9.01337 18.3098 9.04425C18.3071 9.19235 18.2859 9.48258 18.283 9.51011C18.232 9.94918 18.1137 10.3339 17.9306 10.6532C17.6776 11.0945 17.2939 11.3929 16.7592 11.5644C16.9338 12.021 16.9356 12.5397 16.7626 12.9974C16.3656 14.0463 15.0472 14.5602 14.0392 14.6811C13.8934 14.6986 13.7471 14.7071 13.602 14.7071L13.6005 14.7064Z" fill="#231F20"/>
<path d="M13.1666 16.8712C13.1666 16.8712 13.1633 16.8712 13.1614 16.8712C13.1086 16.8663 13.0557 16.8611 13.0021 16.8555C12.1966 16.7722 11.5696 16.4436 11.1383 15.8795C10.7569 15.3802 10.1746 14.1902 10.562 11.83C10.5668 11.7995 10.5958 11.7791 10.626 11.7839C10.6565 11.7887 10.6769 11.8178 10.6721 11.8479C10.2915 14.1668 10.8563 15.3266 11.2269 15.8114C11.6384 16.3502 12.2397 16.6643 13.0133 16.7443C13.0665 16.7499 13.119 16.7547 13.1715 16.7599C13.202 16.7629 13.2247 16.7901 13.2217 16.8206C13.2191 16.8496 13.1945 16.8712 13.1662 16.8712H13.1666Z" fill="#231F20"/>
<path d="M14.2613 16.9238C13.913 16.9238 13.5465 16.9059 13.1614 16.8706C13.1305 16.8676 13.1082 16.8404 13.1108 16.8099C13.1138 16.779 13.1409 16.7571 13.1715 16.7593C15.6321 16.9863 17.3311 16.481 18.2211 15.2575C18.8358 14.4129 18.937 13.3759 18.914 12.6544C18.8875 11.8362 18.6996 11.2099 18.6736 11.1496C18.5705 10.9093 18.5597 9.44806 18.5586 9.00601C18.5586 8.97513 18.5835 8.9502 18.6144 8.9502C18.6453 8.9502 18.6702 8.97513 18.6702 9.00601C18.6721 9.8648 18.7008 10.9301 18.7759 11.1061C18.8042 11.172 18.9977 11.8038 19.0252 12.6514C19.049 13.39 18.9445 14.4535 18.3112 15.3238C17.5372 16.3876 16.1772 16.9241 14.2613 16.9241V16.9238Z" fill="#231F20"/>
<path d="M13.5795 8.76397H12.7021C12.6712 8.76397 12.6462 8.73904 12.6462 8.70816C12.6462 8.67727 12.6712 8.65234 12.7021 8.65234H13.5795C13.6103 8.65234 13.6353 8.67727 13.6353 8.70816C13.6353 8.73904 13.6103 8.76397 13.5795 8.76397Z" fill="#231F20"/>
<path d="M16.1117 8.76397H13.5793C13.5484 8.76397 13.5234 8.73904 13.5234 8.70816C13.5234 8.67727 13.5484 8.65234 13.5793 8.65234H16.1117C16.1426 8.65234 16.1675 8.67727 16.1675 8.70816C16.1675 8.73904 16.1426 8.76397 16.1117 8.76397Z" fill="#231F20"/>
<path d="M10.7478 8.76397H10.3258C10.2949 8.76397 10.27 8.73904 10.27 8.70816C10.27 8.67727 10.2949 8.65234 10.3258 8.65234H10.7478C10.7787 8.65234 10.8036 8.67727 10.8036 8.70816C10.8036 8.73904 10.7787 8.76397 10.7478 8.76397Z" fill="#231F20"/>
<path d="M12.7019 8.76397H10.7477C10.7168 8.76397 10.6919 8.73904 10.6919 8.70816C10.6919 8.67727 10.7168 8.65234 10.7477 8.65234H12.7019C12.7328 8.65234 12.7578 8.67727 12.7578 8.70816C12.7578 8.73904 12.7328 8.76397 12.7019 8.76397Z" fill="#231F20"/>
<path d="M19.8851 8.76397H16.1117C16.0808 8.76397 16.0559 8.73904 16.0559 8.70816C16.0559 8.67727 16.0808 8.65234 16.1117 8.65234H19.8851C19.916 8.65234 19.9409 8.67727 19.9409 8.70816C19.9409 8.73904 19.916 8.76397 19.8851 8.76397Z" fill="#231F20"/>
<path d="M19.9927 8.91318C19.9618 8.91318 19.9369 8.88825 19.9369 8.85737V8.79225C19.9369 8.77662 19.9242 8.76397 19.9086 8.76397H19.8852C19.8543 8.76397 19.8293 8.73904 19.8293 8.70816C19.8293 8.67727 19.8543 8.65234 19.8852 8.65234H19.9086C19.9856 8.65234 20.0485 8.71486 20.0485 8.79188V8.85662C20.0485 8.88751 20.0236 8.91244 19.9931 8.91244L19.9927 8.91318Z" fill="#231F20"/>
<path d="M10.3186 9.26202H10.3134C10.2825 9.26202 10.2576 9.23709 10.2576 9.2062C10.2576 9.17532 10.2825 9.15039 10.3134 9.15039H10.3186C10.3495 9.15039 10.3744 9.17532 10.3744 9.2062C10.3744 9.23709 10.3495 9.26202 10.3186 9.26202Z" fill="#231F20"/>
<path d="M10.3134 9.26183H10.1408C10.0596 9.26183 9.99341 9.1956 9.99341 9.11448V8.79969C9.99341 8.71857 10.0596 8.65234 10.1408 8.65234H10.3257C10.3566 8.65234 10.3815 8.67727 10.3815 8.70816C10.3815 8.73904 10.3566 8.76397 10.3257 8.76397H10.1408C10.121 8.76397 10.105 8.77997 10.105 8.79969V9.11448C10.105 9.1342 10.121 9.1502 10.1408 9.1502H10.3134C10.3443 9.1502 10.3692 9.17513 10.3692 9.20601C10.3692 9.2369 10.3443 9.26183 10.3134 9.26183Z" fill="#231F20"/>
<path d="M18.6145 9.06233C18.5863 9.06233 18.5617 9.04075 18.5591 9.01209C18.5561 8.98158 18.5785 8.95405 18.6093 8.95107L19.0023 8.91238C19.0335 8.9094 19.0603 8.93172 19.0633 8.9626C19.0663 8.99311 19.0439 9.02065 19.0131 9.02363L18.6201 9.06233C18.6201 9.06233 18.6164 9.06233 18.6145 9.06233Z" fill="#231F20"/>
<path d="M18.2532 9.09841C18.2249 9.09841 18.2008 9.07683 18.1978 9.04818C18.1948 9.01729 18.2171 8.99013 18.248 8.98716L18.6097 8.95144C18.6406 8.94846 18.6677 8.97078 18.6707 9.00167C18.6737 9.03255 18.6514 9.05972 18.6205 9.06269L18.2588 9.09841C18.2569 9.09841 18.2551 9.09841 18.2532 9.09841Z" fill="#231F20"/>
<path d="M16.1092 9.30882C16.0809 9.30882 16.0563 9.28725 16.0537 9.2586C16.0508 9.22808 16.0731 9.20054 16.104 9.19757L18.2476 8.98659C18.2785 8.98362 18.3056 9.00594 18.3086 9.03682C18.3116 9.06771 18.2893 9.09487 18.2584 9.09785L16.1148 9.30882C16.1148 9.30882 16.111 9.30882 16.1092 9.30882Z" fill="#231F20"/>
<path d="M12.6501 9.07139C12.6471 9.07139 12.6438 9.07139 12.6408 9.07064C12.6103 9.06543 12.5898 9.03678 12.595 9.00627L12.6468 8.69892C12.652 8.66841 12.681 8.64794 12.7111 8.65315C12.7417 8.65836 12.7621 8.68701 12.7569 8.71753L12.7052 9.02487C12.7007 9.05204 12.6769 9.07139 12.6501 9.07139Z" fill="#231F20"/>
<path d="M11.7206 10.593L10.5753 10.5916C10.5445 10.5916 10.5195 10.5666 10.5195 10.5357C10.5195 10.5049 10.5445 10.4799 10.5753 10.4799L11.7203 10.4814C12.0827 10.4814 12.3897 10.2221 12.4499 9.86449L12.5947 9.00645C12.5999 8.97593 12.6286 8.95584 12.6591 8.96068C12.6896 8.96589 12.71 8.99454 12.7048 9.02505L12.5601 9.8831C12.4909 10.2946 12.1374 10.5934 11.7203 10.5934L11.7206 10.593Z" fill="#231F20"/>
<path d="M10.3134 9.26183H10.3119C10.281 9.26108 10.2568 9.23541 10.2576 9.20452L10.2699 8.70667C10.2706 8.67578 10.2974 8.65234 10.3272 8.65234C10.358 8.65309 10.3822 8.67876 10.3815 8.70965L10.3692 9.2075C10.3685 9.23801 10.3435 9.26183 10.3134 9.26183Z" fill="#231F20"/>
<path d="M10.5759 10.5911H10.5394C10.4557 10.5911 10.3772 10.558 10.3188 10.4981C10.2603 10.4382 10.2291 10.359 10.2313 10.2752L10.2577 9.20472C10.2585 9.17384 10.2856 9.15002 10.315 9.15039C10.3459 9.15114 10.3701 9.17681 10.3694 9.2077L10.3429 10.2782C10.3415 10.3314 10.3615 10.382 10.3988 10.4204C10.436 10.4587 10.4858 10.4799 10.5394 10.4799H10.5759C10.6068 10.4799 10.6317 10.5048 10.6317 10.5357C10.6317 10.5666 10.6068 10.5915 10.5759 10.5915V10.5911Z" fill="#231F20"/>
<path d="M13.6374 9.10897C13.6106 9.10897 13.5871 9.08962 13.5823 9.06246L13.5242 8.71753C13.519 8.68701 13.5395 8.65836 13.57 8.65315C13.6002 8.64794 13.6292 8.66841 13.6344 8.69892L13.6924 9.04385C13.6976 9.07436 13.6772 9.10301 13.6467 9.10822C13.6437 9.10859 13.6403 9.10897 13.6374 9.10897Z" fill="#231F20"/>
<path d="M15.6851 10.5927H14.5606C14.1431 10.5927 13.79 10.2939 13.7208 9.88235L13.5824 9.06225C13.5771 9.03174 13.5976 9.00309 13.6281 8.99788C13.6583 8.99267 13.6873 9.01314 13.6925 9.04365L13.8309 9.86374C13.8912 10.2213 14.1982 10.4807 14.5606 10.4807H15.6851C15.8849 10.4807 16.0486 10.3181 16.0493 10.1179L16.0534 9.25239C16.0534 9.2215 16.0784 9.19694 16.1092 9.19694C16.1401 9.19694 16.1651 9.22225 16.1647 9.25313L16.1606 10.1186C16.1591 10.3798 15.9459 10.5923 15.6847 10.5923L15.6851 10.5927Z" fill="#231F20"/>
<path d="M16.1092 9.30908C16.0783 9.30908 16.0533 9.28378 16.0537 9.2529L16.0563 8.70779C16.0563 8.6769 16.0812 8.65234 16.1121 8.65234C16.143 8.65234 16.1679 8.67765 16.1676 8.70853L16.165 9.25364C16.165 9.28453 16.14 9.30908 16.1092 9.30908Z" fill="#231F20"/>
<path d="M13.6375 9.22824C13.6252 9.22824 13.6126 9.22414 13.6021 9.21558C13.2256 8.90824 12.8312 9.09019 12.679 9.18247C12.6526 9.19847 12.6183 9.18991 12.6023 9.16387C12.5863 9.13745 12.5949 9.10321 12.6209 9.08721C12.7556 9.00573 13.2289 8.76722 13.6725 9.12927C13.6963 9.14861 13.7 9.18396 13.6803 9.20777C13.6691 9.22117 13.6531 9.22824 13.6371 9.22824H13.6375Z" fill="#231F20"/>
<path d="M14.1569 12.2564C13.8246 12.2564 13.46 12.1444 13.1403 11.8642C13.1251 11.8508 13.118 11.83 13.1228 11.8099C13.1273 11.7898 13.1426 11.7741 13.1623 11.7686L15.2289 11.1944C15.2449 11.19 15.262 11.1929 15.2758 11.2022C15.2895 11.2115 15.2981 11.2268 15.2996 11.2432C15.3312 11.6056 15.1318 11.9326 14.7664 12.1176C14.5952 12.2043 14.3839 12.2564 14.1573 12.2564H14.1569ZM13.2955 11.8471C13.7781 12.2166 14.3481 12.2039 14.7158 12.0179C15.0157 11.866 15.1891 11.6089 15.1909 11.3206L13.2959 11.8471H13.2955Z" fill="#231F20"/>
<path d="M15.9701 19.9803C15.9601 19.9803 15.95 19.9777 15.9407 19.9717C15.9262 19.9628 15.9165 19.9475 15.9147 19.9304C15.9128 19.9133 15.9184 19.8965 15.9307 19.8846C15.9526 19.8627 15.988 19.8627 16.0095 19.8846C16.0174 19.8924 16.0226 19.9021 16.0248 19.9122C16.0278 19.9259 16.0255 19.9408 16.0177 19.9538C16.0069 19.971 15.9891 19.9803 15.9705 19.9803H15.9701Z" fill="#231F20"/>
<path d="M15.97 19.9798C15.9533 19.9798 15.9369 19.9724 15.9261 19.9583C15.9071 19.9341 15.9116 19.8987 15.9358 19.8798L19.6641 16.967C19.6764 16.9573 19.6924 16.9532 19.708 16.9558C19.7237 16.9585 19.7371 16.9674 19.7456 16.9808L19.7479 16.9845C19.7646 17.0105 19.7568 17.0452 19.7311 17.0615C19.7263 17.0649 19.7207 17.0671 19.7155 17.0686L16.0046 19.9679C15.9946 19.9757 15.9823 19.9798 15.9704 19.9798H15.97Z" fill="#231F20"/>
<path d="M17.8767 21.1645C17.8667 21.1645 17.8563 21.1615 17.8473 21.1559L15.9411 19.9712C15.9151 19.9548 15.9069 19.9206 15.9232 19.8941C15.9396 19.8681 15.9739 19.8599 16.0003 19.8763L17.8741 21.0409L20.8241 18.8344C20.8282 18.8233 20.8356 18.8136 20.8464 18.8065C20.8725 18.7901 20.9071 18.7976 20.9234 18.8236L20.9283 18.8315C20.9439 18.856 20.9379 18.8888 20.9145 18.9062L17.9102 21.1533C17.9002 21.1608 17.8886 21.1645 17.8767 21.1645Z" fill="#231F20"/>
<path d="M20.8758 18.9098C20.8576 18.9098 20.8393 18.9008 20.8289 18.8841L19.6539 17.0448C19.6371 17.0188 19.6449 16.9842 19.671 16.9678C19.697 16.9511 19.7312 16.9589 19.748 16.9849L20.9231 18.8242C20.9398 18.8502 20.932 18.8848 20.9059 18.9012C20.8966 18.9072 20.8862 18.9101 20.8758 18.9101V18.9098Z" fill="#231F20"/>
<path d="M11.8944 18.9873C11.8821 18.9873 11.8698 18.9832 11.8594 18.975L11.8524 18.969C11.8285 18.9497 11.8244 18.9147 11.8438 18.8909L13.0963 17.3218C13.1059 17.3095 13.1201 17.302 13.1357 17.3009C13.1513 17.2998 13.1662 17.305 13.1777 17.3154L13.183 17.3203C13.2057 17.3411 13.2071 17.3765 13.1863 17.3992C13.1807 17.4055 13.1737 17.41 13.1662 17.4133L11.9502 18.937C11.9491 18.9478 11.9454 18.9582 11.9379 18.9672C11.9268 18.9809 11.9108 18.988 11.8944 18.988V18.9873Z" fill="#231F20"/>
<path d="M15.9279 19.9605C15.9085 19.9374 15.9104 19.9032 15.9324 19.8831C15.9543 19.8626 15.9885 19.8633 16.0098 19.8845L15.9707 19.9244L15.9283 19.9608L15.9279 19.9605Z" fill="#231F20"/>
<path d="M14.3614 20.983C14.3488 20.983 14.3365 20.9789 14.3264 20.9708L11.8595 18.9752C11.8356 18.9559 11.8319 18.9209 11.8513 18.8967C11.8706 18.8729 11.9056 18.8688 11.9298 18.8885L14.3659 20.8591L15.8386 19.9412C15.8647 19.9248 15.8993 19.9326 15.9156 19.959C15.932 19.9851 15.9238 20.0197 15.8978 20.0361L14.3912 20.9752C14.3822 20.9808 14.3718 20.9838 14.3618 20.9838L14.3614 20.983Z" fill="#231F20"/>
<path d="M15.9701 19.9789C15.9567 19.9789 15.9433 19.9741 15.9325 19.9644L13.1076 17.4018C13.0849 17.381 13.0831 17.3456 13.1039 17.3229C13.1247 17.3002 13.1601 17.2984 13.1828 17.3192L16.0077 19.8818C16.0304 19.9027 16.0323 19.938 16.0114 19.9607C16.0003 19.973 15.9854 19.9789 15.9701 19.9789Z" fill="#231F20"/>
<path d="M15.8682 20.0437C15.8496 20.0437 15.8314 20.0344 15.821 20.0173C15.8046 19.9912 15.8128 19.9566 15.8388 19.9402L15.9411 19.8766C15.9672 19.8602 16.0018 19.8684 16.0182 19.8945C16.0345 19.9205 16.0263 19.9551 16.0003 19.9715L15.898 20.0351C15.8887 20.0407 15.8786 20.0437 15.8686 20.0437H15.8682Z" fill="#231F20"/>
<path d="M17.46 25.7854H16.1026C15.9426 25.7854 15.812 25.6552 15.812 25.4948V19.9875C15.812 19.9566 15.8369 19.9316 15.8678 19.9316C15.8987 19.9316 15.9236 19.9566 15.9236 19.9875V25.4948C15.9236 25.5934 16.004 25.6738 16.1026 25.6738H17.46C17.4909 25.6738 17.5158 25.6987 17.5158 25.7296C17.5158 25.7605 17.4909 25.7854 17.46 25.7854Z" fill="#231F20"/>
<path d="M32.5717 26.2079C32.5539 26.2079 32.5364 26.1994 32.5256 26.1834L31.5466 24.7463C31.5291 24.721 31.5358 24.6861 31.5611 24.6689C31.5868 24.6515 31.6214 24.6581 31.6385 24.6834L32.6175 26.1205C32.635 26.1458 32.6283 26.1808 32.603 26.1979C32.5933 26.2046 32.5825 26.2075 32.5717 26.2075V26.2079Z" fill="#231F20"/>
<path d="M0.0920283 26.8426C0.0804935 26.8426 0.0685859 26.8389 0.0589115 26.8314C0.0339813 26.8132 0.0291419 26.7783 0.0473745 26.7533L1.37165 24.9736C1.38988 24.949 1.42524 24.9438 1.4498 24.9621C1.47473 24.9803 1.47956 25.0153 1.46133 25.0402L0.13705 26.8199C0.126259 26.8348 0.109145 26.8422 0.0924008 26.8422L0.0920283 26.8426Z" fill="#231F20"/>
<path d="M16.782 28.4149C12.4847 28.4149 8.17736 27.8631 3.95932 27.3225C2.68825 27.1595 1.37401 26.9913 0.0858287 26.8413C0.0553171 26.8376 0.0333656 26.8101 0.0367144 26.7796C0.0404354 26.7491 0.067967 26.7267 0.0984786 26.7305C1.38741 26.8804 2.70201 27.0486 3.97308 27.2116C10.6979 28.0733 17.6516 28.9641 24.4159 27.5967C25.2587 27.4263 26.0974 27.2004 26.9082 26.9816C28.1502 26.6471 29.4343 26.3011 30.7474 26.1522C31.3372 26.0856 31.9608 26.0905 32.5636 26.0953H32.5718C32.6027 26.0953 32.6276 26.121 32.6272 26.1515C32.6272 26.182 32.6019 26.2069 32.5714 26.2069H32.5629C31.9634 26.2021 31.3431 26.1973 30.7601 26.2631C29.4551 26.4108 28.1751 26.7561 26.9372 27.0895C26.1245 27.3087 25.284 27.5349 24.4378 27.7061C21.9039 28.2185 19.3446 28.4145 16.7816 28.4145L16.782 28.4149Z" fill="#231F20"/>
<path d="M16.663 26.7203C14.7523 26.7203 12.9476 26.5595 11.3741 26.3794C9.87788 26.2083 8.36197 25.9876 6.8963 25.7744C5.10095 25.5132 3.24457 25.2434 1.41127 25.0619C1.38076 25.0589 1.35806 25.0314 1.36141 25.0008C1.36439 24.97 1.39267 24.9476 1.42244 24.9506C3.25834 25.1322 5.1162 25.4023 6.91267 25.6639C8.3776 25.8771 9.89276 26.0974 11.3871 26.2686C14.7021 26.6481 19.0444 26.9406 23.2353 25.8217C23.6111 25.7212 23.9902 25.6081 24.3575 25.4987C24.9302 25.3279 25.5222 25.1515 26.1156 25.0183C27.9393 24.6098 29.7852 24.6072 31.3503 24.6589C31.418 24.6611 31.4969 24.6611 31.5917 24.6581C31.6208 24.6567 31.6483 24.6816 31.649 24.7121C31.6498 24.7426 31.6256 24.7686 31.5951 24.7694C31.4983 24.7724 31.4169 24.7724 31.3465 24.7701C29.7886 24.7188 27.9519 24.7207 26.1402 25.1266C25.5504 25.2587 24.9603 25.4347 24.3895 25.6047C24.0219 25.7145 23.6416 25.8276 23.2643 25.9285C21.0474 26.5205 18.7895 26.7192 16.6634 26.7192L16.663 26.7203Z" fill="#231F20"/>
<path d="M16.6637 30.4538C14.7527 30.4538 12.948 30.2931 11.3741 30.113C9.89052 29.9433 8.38876 29.7249 6.93648 29.5135C6.13685 29.3971 5.31006 29.2769 4.49592 29.1664C3.0708 28.9725 1.97871 28.8449 0.955454 28.753C0.670058 28.7273 0.372383 28.6629 0.056848 28.5952C-0.309664 28.5163 -0.688455 28.4348 -1.05125 28.4166L-1.92678 29.5932C-1.94501 29.6181 -1.97999 29.6229 -2.00492 29.6047C-2.02948 29.5865 -2.03469 29.5515 -2.01645 29.5265L-1.12343 28.3262C-1.11264 28.3113 -1.09515 28.3035 -1.07655 28.3039C-0.695151 28.3191 -0.301106 28.4039 0.0799177 28.4862C0.391732 28.5532 0.68643 28.6168 0.964756 28.6421C1.98987 28.734 3.08346 28.862 4.51043 29.0562C5.32494 29.1671 6.15211 29.2873 6.95211 29.4038C8.40364 29.6147 9.90429 29.8331 11.3863 30.0028C14.7017 30.3827 19.0448 30.6748 23.2345 29.5559C23.6118 29.4551 23.9925 29.3416 24.3612 29.2319C24.9324 29.0614 25.5229 28.8854 26.1149 28.753C27.2781 28.4921 28.4996 28.4962 29.6807 28.5003C31.092 28.5051 32.551 28.51 33.8849 28.0538C33.9084 28.0456 33.9348 28.0545 33.9489 28.075L33.9702 28.1059C33.9876 28.1312 33.9809 28.1662 33.9556 28.1833C33.9315 28.1997 33.8991 28.1948 33.8809 28.1725C32.5406 28.6212 31.0868 28.616 29.6803 28.6112C28.5056 28.6071 27.2903 28.603 26.1395 28.8612C25.5512 28.993 24.9625 29.1686 24.3932 29.3383C24.0241 29.4484 23.6423 29.5623 23.2635 29.6631C21.0474 30.2551 18.7899 30.4538 16.6634 30.4538H16.6637Z" fill="#231F20"/>
<path d="M15.1567 33.0874C12.0545 33.0874 8.74847 32.4864 6.05787 31.9975C3.00745 31.4434 0.233125 31.039 -2.42399 30.7614C-2.4545 30.7581 -2.47683 30.7309 -2.47385 30.7C-2.47051 30.6695 -2.44334 30.6475 -2.41246 30.6501C0.247263 30.9281 3.02419 31.3329 6.07759 31.8877C8.94568 32.409 12.5148 33.0576 15.7829 32.9675C18.5948 32.8898 21.3501 32.1266 24.0151 31.3884C24.4835 31.2585 24.968 31.1246 25.4439 30.9966C27.0022 30.5776 28.677 30.1594 30.3637 29.9406C30.907 29.8702 31.5049 29.8903 32.0828 29.9097C32.6845 29.9298 33.3062 29.9506 33.8778 29.8717V29.4777C33.8778 29.4468 33.9027 29.4219 33.9332 29.4219C33.9637 29.4219 33.989 29.4468 33.989 29.4777V29.9201C33.989 29.9476 33.9689 29.9714 33.9418 29.9752C33.3468 30.0637 32.7023 30.0421 32.0791 30.0213C31.5053 30.002 30.9122 29.9822 30.3782 30.0515C28.6982 30.2695 27.0279 30.6862 25.4733 31.1045C24.9978 31.2325 24.5133 31.3664 24.0452 31.4963C21.374 32.236 18.6119 33.0014 15.7862 33.0792C15.5779 33.0851 15.3673 33.0877 15.1567 33.0877V33.0874Z" fill="#231F20"/>
<path d="M16.6331 21.4205C16.4448 21.4205 16.2915 21.2672 16.2915 21.0789C16.2915 20.8906 16.4448 20.7373 16.6331 20.7373C16.8214 20.7373 16.9747 20.8906 16.9747 21.0789C16.9747 21.2672 16.8214 21.4205 16.6331 21.4205ZM16.6331 20.8489C16.5062 20.8489 16.4031 20.952 16.4031 21.0789C16.4031 21.2058 16.5062 21.3088 16.6331 21.3088C16.76 21.3088 16.863 21.2058 16.863 21.0789C16.863 20.952 16.76 20.8489 16.6331 20.8489Z" fill="#231F20"/>
<path d="M16.6331 23.3228C16.4448 23.3228 16.2915 23.1695 16.2915 22.9812C16.2915 22.7929 16.4448 22.6396 16.6331 22.6396C16.8214 22.6396 16.9747 22.7929 16.9747 22.9812C16.9747 23.1695 16.8214 23.3228 16.6331 23.3228ZM16.6331 22.7513C16.5062 22.7513 16.4031 22.8543 16.4031 22.9812C16.4031 23.1081 16.5062 23.2112 16.6331 23.2112C16.76 23.2112 16.863 23.1081 16.863 22.9812C16.863 22.8543 16.76 22.7513 16.6331 22.7513Z" fill="#231F20"/>
<path d="M16.6331 25.2252C16.4448 25.2252 16.2915 25.0718 16.2915 24.8836C16.2915 24.6953 16.4448 24.542 16.6331 24.542C16.8214 24.542 16.9747 24.6953 16.9747 24.8836C16.9747 25.0718 16.8214 25.2252 16.6331 25.2252ZM16.6331 24.6536C16.5062 24.6536 16.4031 24.7567 16.4031 24.8836C16.4031 25.0104 16.5062 25.1135 16.6331 25.1135C16.76 25.1135 16.863 25.0104 16.863 24.8836C16.863 24.7567 16.76 24.6536 16.6331 24.6536Z" fill="#231F20"/>
</g>
</g>
</g>
<defs>
<filter id="filter0_b_2361_47031" x="-5.7" y="-6.2" width="44.4" height="44.4" filterUnits="userSpaceOnUse" color-interpolation-filters="sRGB">
<feFlood flood-opacity="0" result="BackgroundImageFix"/>
<feGaussianBlur in="BackgroundImageFix" stdDeviation="3.1"/>
<feComposite in2="SourceAlpha" operator="in" result="effect1_backgroundBlur_2361_47031"/>
<feBlend mode="normal" in="SourceGraphic" in2="effect1_backgroundBlur_2361_47031" result="shape"/>
</filter>
<clipPath id="clip0_2361_47031">
<rect x="0.5" width="32" height="32" rx="16" fill="white"/>
</clipPath>
<clipPath id="clip1_2361_47031">
<rect width="32" height="32" fill="white" transform="translate(0.5)"/>
</clipPath>
</defs>
</svg>
