<svg width="18" height="18" viewBox="0 0 18 18" fill="none" xmlns="http://www.w3.org/2000/svg">
<path opacity="0.4" d="M16.4928 4.5157C16.5078 4.6957 16.4928 4.88319 16.4478 5.07069L13.9203 15.2182C13.7403 15.9757 13.0653 16.5007 12.2853 16.5007H2.43029C1.29779 16.5007 0.495305 15.3907 0.825305 14.3032L3.9828 4.15567C4.2003 3.45067 4.85281 2.9707 5.58781 2.9707H14.8128C15.5328 2.9707 16.1178 3.3982 16.3653 3.9982C16.4403 4.1557 16.4778 4.3357 16.4928 4.5157Z" fill="#318727"/>
<path d="M17.2429 14.715C17.3179 15.6825 16.5529 16.5 15.5854 16.5H12.2854C13.0654 16.5 13.7404 15.975 13.9204 15.2175L16.4479 5.07001C16.4929 4.88251 16.5079 4.69501 16.4929 4.51501L16.5004 4.5L17.2429 14.715Z" fill="#318727"/>
<path d="M7.25958 5.34656C7.21458 5.34656 7.16959 5.33905 7.12459 5.33155C6.82459 5.25655 6.6371 4.95657 6.7121 4.64907L7.49208 1.40906C7.56708 1.10906 7.86708 0.929071 8.17458 0.996571C8.47458 1.07157 8.6621 1.37155 8.5871 1.67905L7.80709 4.91906C7.74709 5.17406 7.51458 5.34656 7.25958 5.34656Z" fill="#318727"/>
<path d="M12.2841 5.35534C12.2466 5.35534 12.2016 5.35532 12.1641 5.34032C11.8641 5.27282 11.6691 4.97281 11.7291 4.67281L12.4341 1.41784C12.5016 1.11034 12.8016 0.922827 13.1016 0.982827C13.4016 1.05033 13.5966 1.35034 13.5366 1.65034L12.8316 4.90531C12.7791 5.17531 12.5466 5.35534 12.2841 5.35534Z" fill="#318727"/>
<path d="M11.7754 9.5625H5.77539C5.46789 9.5625 5.21289 9.3075 5.21289 9C5.21289 8.6925 5.46789 8.4375 5.77539 8.4375H11.7754C12.0829 8.4375 12.3379 8.6925 12.3379 9C12.3379 9.3075 12.0829 9.5625 11.7754 9.5625Z" fill="#318727"/>
<path d="M11.0259 12.5625H5.02588C4.71838 12.5625 4.46338 12.3075 4.46338 12C4.46338 11.6925 4.71838 11.4375 5.02588 11.4375H11.0259C11.3334 11.4375 11.5884 11.6925 11.5884 12C11.5884 12.3075 11.3334 12.5625 11.0259 12.5625Z" fill="#318727"/>
</svg>
