<svg width="16" height="16" viewBox="0 0 16 16" fill="none" xmlns="http://www.w3.org/2000/svg">
<path d="M5.33337 1.33325V3.33325" stroke="currentColor" stroke-miterlimit="10" stroke-linecap="round" stroke-linejoin="round"/>
<path d="M10.6666 1.33325V3.33325" stroke="currentColor" stroke-miterlimit="10" stroke-linecap="round" stroke-linejoin="round"/>
<path d="M2.33337 6.06006H13.6667" stroke="currentColor" stroke-miterlimit="10" stroke-linecap="round" stroke-linejoin="round"/>
<path d="M12.8066 10.5134L10.4467 12.8734C10.3533 12.9667 10.2666 13.14 10.2466 13.2667L10.12 14.1667C10.0733 14.4934 10.3 14.72 10.6267 14.6734L11.5267 14.5467C11.6533 14.5267 11.8333 14.44 11.92 14.3467L14.28 11.9867C14.6867 11.58 14.88 11.1067 14.28 10.5067C13.6867 9.91337 13.2133 10.1067 12.8066 10.5134Z" stroke="currentColor" stroke-miterlimit="10" stroke-linecap="round" stroke-linejoin="round"/>
<path d="M12.4667 10.8533C12.6667 11.5733 13.2267 12.1333 13.9467 12.3333" stroke="currentColor" stroke-miterlimit="10" stroke-linecap="round" stroke-linejoin="round"/>
<path d="M8 14.6666H5.33333C3 14.6666 2 13.3333 2 11.3333V5.66659C2 3.66659 3 2.33325 5.33333 2.33325H10.6667C13 2.33325 14 3.66659 14 5.66659V7.99992" stroke="currentColor" stroke-miterlimit="10" stroke-linecap="round" stroke-linejoin="round"/>
<path d="M7.99703 9.13338H8.00302" stroke="currentColor" stroke-linecap="round" stroke-linejoin="round"/>
<path d="M5.5295 9.13338H5.53549" stroke="currentColor" stroke-linecap="round" stroke-linejoin="round"/>
<path d="M5.5295 11.1334H5.53549" stroke="currentColor" stroke-linecap="round" stroke-linejoin="round"/>
</svg>
