<svg width="24" height="25" viewBox="0 0 24 25" fill="none" xmlns="http://www.w3.org/2000/svg">
<g clip-path="url(#clip0_4021_116044)">
<path d="M12 0.517578C18.3513 0.517578 23.5 5.6663 23.5 12.0176C23.5 18.3689 18.3513 23.5176 12 23.5176C5.64873 23.5176 0.5 18.3689 0.5 12.0176C0.5 5.6663 5.64873 0.517578 12 0.517578Z" stroke="#919191"/>
<mask id="path-2-outside-1_4021_116044" maskUnits="userSpaceOnUse" x="6.03955" y="6.37109" width="13" height="12" fill="black">
<rect fill="white" x="6.03955" y="6.37109" width="13" height="12"/>
<path fill-rule="evenodd" clip-rule="evenodd" d="M8.77832 7.37109H15.314V8.69019H17.1729L16.7832 10.0093H16.4534V15.3458C16.6189 15.3458 16.7532 15.4801 16.7532 15.6457V16.0054H16.8131C16.9787 16.0054 17.1129 16.1396 17.1129 16.3052V16.665H15.314V16.665H14.3547V16.665H13.7551V16.3052C13.7551 16.1396 13.8893 16.0054 14.0549 16.0054H14.1149V15.6457C14.1149 15.5006 14.2179 15.3797 14.3547 15.3519V12.4078H14.3452C14.2392 11.2312 13.2504 10.3092 12.0461 10.3092C10.842 10.3092 9.85312 11.2312 9.74713 12.4078H9.73773V15.3458H9.79772C9.96332 15.3458 10.0975 15.4801 10.0975 15.6457V16.0054H10.1575C10.323 16.0054 10.4573 16.1396 10.4573 16.3052V16.665H9.73773V16.665H8.77832V16.665H7.09951V16.3052C7.09951 16.1396 7.23374 16.0054 7.39931 16.0054H7.45927V15.6457C7.45927 15.4801 7.5935 15.3458 7.75907 15.3458V10.0093H7.42929L7.03955 8.69019H8.77832V7.37109Z"/>
</mask>
<path d="M15.314 7.37109H16.314C16.314 6.81881 15.8663 6.37109 15.314 6.37109V7.37109ZM8.77832 7.37109V6.37109C8.22604 6.37109 7.77832 6.81881 7.77832 7.37109H8.77832ZM15.314 8.69019H14.314C14.314 9.24247 14.7617 9.69019 15.314 9.69019V8.69019ZM17.1729 8.69019L18.1319 8.97355C18.2213 8.6711 18.1627 8.34422 17.974 8.09159C17.7852 7.83896 17.4883 7.69019 17.1729 7.69019V8.69019ZM16.7832 10.0093V11.0093C17.2263 11.0093 17.6166 10.7176 17.7422 10.2927L16.7832 10.0093ZM16.4534 10.0093V9.0093C15.9011 9.0093 15.4534 9.45702 15.4534 10.0093H16.4534ZM16.4534 15.3458H15.4534C15.4534 15.8981 15.9011 16.3458 16.4534 16.3458V15.3458ZM16.7532 16.0054H15.7532C15.7532 16.5577 16.2009 17.0054 16.7532 17.0054V16.0054ZM17.1129 16.665V17.665C17.6652 17.665 18.1129 17.2173 18.1129 16.665H17.1129ZM15.314 16.665V15.665C14.7617 15.665 14.314 16.1127 14.314 16.665H15.314ZM15.314 16.665V17.665C15.8663 17.665 16.314 17.2173 16.314 16.665H15.314ZM14.3547 16.665H13.3547C13.3547 17.2173 13.8024 17.665 14.3547 17.665V16.665ZM14.3547 16.665H15.3547C15.3547 16.1127 14.9069 15.665 14.3547 15.665V16.665ZM13.7551 16.665H12.7551C12.7551 17.2173 13.2028 17.665 13.7551 17.665V16.665ZM14.1149 16.0054V17.0054C14.6672 17.0054 15.1149 16.5577 15.1149 16.0054H14.1149ZM14.3547 15.3519L14.554 16.3318C15.0199 16.237 15.3547 15.8273 15.3547 15.3519H14.3547ZM14.3547 12.4078H15.3547C15.3547 11.8555 14.9069 11.4078 14.3547 11.4078V12.4078ZM14.3452 12.4078L13.3493 12.4976C13.3958 13.013 13.8278 13.4078 14.3452 13.4078V12.4078ZM9.74713 12.4078V13.4078C10.2647 13.4078 10.6967 13.013 10.7431 12.4975L9.74713 12.4078ZM9.73773 12.4078V11.4078C9.18544 11.4078 8.73773 11.8555 8.73773 12.4078H9.73773ZM9.73773 15.3458H8.73773C8.73773 15.8981 9.18544 16.3458 9.73773 16.3458V15.3458ZM10.0975 16.0054H9.09753C9.09753 16.5577 9.54524 17.0054 10.0975 17.0054V16.0054ZM10.4573 16.665V17.665C11.0096 17.665 11.4573 17.2173 11.4573 16.665H10.4573ZM9.73773 16.665V15.665C9.18544 15.665 8.73773 16.1127 8.73773 16.665H9.73773ZM9.73773 16.665V17.665C10.29 17.665 10.7377 17.2173 10.7377 16.665H9.73773ZM8.77832 16.665H7.77832C7.77832 17.2173 8.22604 17.665 8.77832 17.665V16.665ZM8.77832 16.665H9.77832C9.77832 16.1127 9.33061 15.665 8.77832 15.665V16.665ZM7.09951 16.665H6.09951C6.09951 17.2173 6.54723 17.665 7.09951 17.665V16.665ZM7.45927 16.0054V17.0054C8.01156 17.0054 8.45927 16.5577 8.45927 16.0054H7.45927ZM7.75907 15.3458V16.3458C8.31136 16.3458 8.75907 15.8981 8.75907 15.3458H7.75907ZM7.75907 10.0093H8.75907C8.75907 9.45702 8.31136 9.0093 7.75907 9.0093V10.0093ZM7.42929 10.0093L6.47027 10.2926C6.59584 10.7176 6.98614 11.0093 7.42929 11.0093V10.0093ZM7.03955 8.69019V7.69019C6.72418 7.69019 6.42729 7.83896 6.23851 8.09158C6.04972 8.34421 5.99117 8.67109 6.08053 8.97353L7.03955 8.69019ZM8.77832 8.69019V9.69019C9.33061 9.69019 9.77832 9.24247 9.77832 8.69019H8.77832ZM15.314 6.37109H8.77832V8.37109H15.314V6.37109ZM16.314 8.69019V7.37109H14.314V8.69019H16.314ZM17.1729 7.69019H15.314V9.69019H17.1729V7.69019ZM17.7422 10.2927L18.1319 8.97355L16.2139 8.40683L15.8241 9.72594L17.7422 10.2927ZM16.4534 11.0093H16.7832V9.0093H16.4534V11.0093ZM17.4534 15.3458V10.0093H15.4534V15.3458H17.4534ZM17.7532 15.6457C17.7532 14.9275 17.171 14.3458 16.4534 14.3458V16.3458C16.0668 16.3458 15.7532 16.0326 15.7532 15.6457H17.7532ZM17.7532 16.0054V15.6457H15.7532V16.0054H17.7532ZM16.8131 15.0054H16.7532V17.0054H16.8131V15.0054ZM18.1129 16.3052C18.1129 15.5873 17.531 15.0054 16.8131 15.0054V17.0054C16.4264 17.0054 16.1129 16.6919 16.1129 16.3052H18.1129ZM18.1129 16.665V16.3052H16.1129V16.665H18.1129ZM15.314 17.665H17.1129V15.665H15.314V17.665ZM16.314 16.665V16.665H14.314V16.665H16.314ZM14.3547 17.665H15.314V15.665H14.3547V17.665ZM13.3547 16.665V16.665H15.3547V16.665H13.3547ZM13.7551 17.665H14.3547V15.665H13.7551V17.665ZM12.7551 16.3052V16.665H14.7551V16.3052H12.7551ZM14.0549 15.0054C13.3371 15.0054 12.7551 15.5873 12.7551 16.3052H14.7551C14.7551 16.6919 14.4416 17.0054 14.0549 17.0054V15.0054ZM14.1149 15.0054H14.0549V17.0054H14.1149V15.0054ZM13.1149 15.6457V16.0054H15.1149V15.6457H13.1149ZM14.1554 14.3719C13.5618 14.4926 13.1149 15.0159 13.1149 15.6457H15.1149C15.1149 15.9854 14.8739 16.2667 14.554 16.3318L14.1554 14.3719ZM13.3547 12.4078V15.3519H15.3547V12.4078H13.3547ZM14.3452 13.4078H14.3547V11.4078H14.3452V13.4078ZM12.0461 11.3092C12.7281 11.3092 13.2892 11.8317 13.3493 12.4976L15.3412 12.318C15.1891 10.6308 13.7726 9.30915 12.0461 9.30915V11.3092ZM10.7431 12.4975C10.8031 11.8317 11.3642 11.3092 12.0461 11.3092V9.30915C10.3198 9.30915 8.90316 10.6308 8.75117 12.3181L10.7431 12.4975ZM9.73773 13.4078H9.74713V11.4078H9.73773V13.4078ZM10.7377 15.3458V12.4078H8.73773V15.3458H10.7377ZM9.79772 14.3458H9.73773V16.3458H9.79772V14.3458ZM11.0975 15.6457C11.0975 14.9278 10.5156 14.3458 9.79772 14.3458V16.3458C9.41104 16.3458 9.09753 16.0323 9.09753 15.6457H11.0975ZM11.0975 16.0054V15.6457H9.09753V16.0054H11.0975ZM10.1575 15.0054H10.0975V17.0054H10.1575V15.0054ZM11.4573 16.3052C11.4573 15.5871 10.8751 15.0054 10.1575 15.0054V17.0054C9.77095 17.0054 9.45733 16.6921 9.45733 16.3052H11.4573ZM11.4573 16.665V16.3052H9.45733V16.665H11.4573ZM9.73773 17.665H10.4573V15.665H9.73773V17.665ZM10.7377 16.665V16.665H8.73773V16.665H10.7377ZM8.77832 17.665H9.73773V15.665H8.77832V17.665ZM7.77832 16.665V16.665H9.77832V16.665H7.77832ZM7.09951 17.665H8.77832V15.665H7.09951V17.665ZM6.09951 16.3052V16.665H8.09951V16.3052H6.09951ZM7.39931 15.0054C6.68148 15.0054 6.09951 15.5873 6.09951 16.3052H8.09951C8.09951 16.6919 7.786 17.0054 7.39931 17.0054V15.0054ZM7.45927 15.0054H7.39931V17.0054H7.45927V15.0054ZM6.45927 15.6457V16.0054H8.45927V15.6457H6.45927ZM7.75907 14.3458C7.04124 14.3458 6.45927 14.9277 6.45927 15.6457H8.45927C8.45927 16.0324 8.14576 16.3458 7.75907 16.3458V14.3458ZM6.75907 10.0093V15.3458H8.75907V10.0093H6.75907ZM7.42929 11.0093H7.75907V9.0093H7.42929V11.0093ZM6.08053 8.97353L6.47027 10.2926L8.38831 9.72596L7.99857 8.40684L6.08053 8.97353ZM8.77832 7.69019H7.03955V9.69019H8.77832V7.69019ZM7.77832 7.37109V8.69019H9.77832V7.37109H7.77832Z" fill="#919191" mask="url(#path-2-outside-1_4021_116044)"/>
</g>
<defs>
<clipPath id="clip0_4021_116044">
<rect width="24" height="24" fill="white" transform="translate(0 0.0175781)"/>
</clipPath>
</defs>
</svg>
