<svg width="12" height="12" viewBox="0 0 12 12" fill="none" xmlns="http://www.w3.org/2000/svg">
<path fill-rule="evenodd" clip-rule="evenodd" d="M6.75725 1.0716L6.25381 0.769531L6.03576 1.31465C5.85085 1.77692 5.59417 2.1135 5.27929 2.52639C5.22146 2.60221 5.16167 2.68062 5.1 2.76284C4.90314 3.02533 4.70079 3.31175 4.51345 3.65287C4.50056 3.45391 4.5 3.23799 4.5 3.00034V1.93282L3.67991 2.61623C2.10284 3.93046 1.5 5.14313 1.5 6.50034C1.5 8.98454 3.51297 10.9986 5.99676 11.0003C5.99784 11.0003 5.99892 11.0003 6 11.0003C8.48528 11.0003 10.5 8.98562 10.5 6.50034C10.5 5.79928 10.2086 4.83417 9.61369 3.8645C9.01206 2.88385 8.08082 1.86574 6.75725 1.0716ZM7.95995 9.40052C8.88924 8.77128 9.5 7.70714 9.5 6.50034C9.5 6.0364 9.29143 5.25152 8.76131 4.38743C8.30893 3.65005 7.63585 2.87807 6.70187 2.22639C6.50215 2.57558 6.27363 2.87379 6.05994 3.15265C6.00542 3.2238 5.95187 3.29369 5.9 3.36284C5.54263 3.83934 5.20707 4.34562 4.98076 5.1377C4.93209 5.30805 4.79692 5.43992 4.62542 5.48436C4.45392 5.5288 4.27172 5.47917 4.14645 5.3539C3.80173 5.00918 3.64448 4.59008 3.57057 4.18353C3.56552 4.1558 3.56084 4.12794 3.55649 4.09999C2.74848 4.97003 2.5 5.72826 2.5 6.50034C2.5 7.70714 3.11076 8.77128 4.04005 9.40052C4.01379 9.27122 4 9.13739 4 9.00034C4 8.1221 4.55258 7.61675 5.04807 7.25339C5.16354 7.16872 5.2837 7.08629 5.39775 7.00806L5.42557 6.98897C5.5504 6.9033 5.66887 6.82148 5.78305 6.7363C6.01174 6.56569 6.20348 6.3957 6.35 6.20034L6.77402 5.63498L7.16603 6.22299C7.72669 7.06399 8 8.16285 8 9.00034C8 9.13739 7.98621 9.27122 7.95995 9.40052ZM6 10.0003H6.00165C6.55318 9.99945 7 9.55208 7 9.00034C7 8.51137 6.87651 7.89241 6.63519 7.33674C6.55043 7.40842 6.46503 7.47514 6.38101 7.53782C6.2491 7.63624 6.11562 7.72824 5.99142 7.81348L5.96622 7.83077C5.84921 7.91104 5.74161 7.98486 5.63943 8.0598C5.19742 8.38394 5 8.62858 5 9.00034C5 9.55263 5.44772 10.0003 6 10.0003Z" fill="#F28500"/>
</svg>
