<svg width="18" height="18" viewBox="0 0 18 18" fill="none" xmlns="http://www.w3.org/2000/svg">
<path opacity="0.4" d="M15.4651 6.3375C14.6776 2.8725 11.6551 1.3125 9.00007 1.3125C9.00007 1.3125 9.00007 1.3125 8.99257 1.3125C6.34507 1.3125 3.31507 2.865 2.52757 6.33C1.65007 10.2 4.02007 13.4775 6.16507 15.54C6.96007 16.305 7.98007 16.6875 9.00007 16.6875C10.0201 16.6875 11.0401 16.305 11.8276 15.54C13.9726 13.4775 16.3426 10.2075 15.4651 6.3375Z" fill="#318727"/>
<path d="M8.99995 10.0951C10.3047 10.0951 11.3625 9.03739 11.3625 7.73262C11.3625 6.42785 10.3047 5.37012 8.99995 5.37012C7.69518 5.37012 6.63745 6.42785 6.63745 7.73262C6.63745 9.03739 7.69518 10.0951 8.99995 10.0951Z" fill="#318727"/>
</svg>
