<svg width="43" height="43" viewBox="0 0 43 43" fill="none" xmlns="http://www.w3.org/2000/svg">
<g clip-path="url(#clip0_2166_88441)">
<path fill-rule="evenodd" clip-rule="evenodd" d="M5.36126 1.09491H33.2953C35.8666 1.09491 37.951 3.17934 37.951 5.75061V5.98212L19.3283 15.2935L0.705566 5.98215V5.75061C0.705566 3.17934 2.78999 1.09491 5.36126 1.09491ZM0.705566 10.1748V24.3734C0.705566 26.9447 2.78999 29.0291 5.36126 29.0291H20.1422C20.9131 28.1534 22.007 27.4995 23.4239 27.253C24.9702 26.984 26.2016 25.8103 26.5453 24.2804L26.6075 23.9963C27.9018 18.0838 36.3205 18.047 37.6666 23.948L37.6939 24.0689C37.7128 24.152 37.7272 24.2161 37.7422 24.2791C37.789 24.4786 37.8508 24.672 37.9261 24.858C37.9426 24.6987 37.951 24.537 37.951 24.3734V10.1747L20.1668 19.0669C19.639 19.3308 19.0177 19.3308 18.4898 19.0669L0.705566 10.1748ZM29.7937 24.6938C30.343 22.1848 33.9154 22.1692 34.4866 24.6733L34.5133 24.7917C34.5313 24.8724 34.5487 24.9469 34.567 25.0246C35.2249 27.8269 37.4926 29.9681 40.3315 30.462C42.9484 30.9173 42.9484 34.674 40.3315 35.1294C37.4776 35.6259 35.2006 37.7871 34.5565 40.6116L34.4866 40.9179C33.9154 43.422 30.343 43.4064 29.7937 40.8975L29.7362 40.6344C29.1157 37.7997 26.8418 35.6223 23.983 35.1249C21.3709 34.6704 21.3709 30.9208 23.983 30.4664C26.8319 29.9707 29.0998 27.8066 29.7297 24.9863L29.7721 24.7929L29.7937 24.6938Z" fill="#292D32"/>
</g>
<defs>
<clipPath id="clip0_2166_88441">
<rect width="42" height="42" fill="white" transform="translate(0.5 0.941101)"/>
</clipPath>
</defs>
</svg>
