<svg width="24" height="25" viewBox="0 0 24 25" fill="none" xmlns="http://www.w3.org/2000/svg">
<g clip-path="url(#clip0_4021_116043)">
<path d="M23.5 12.0176C23.5 18.3689 18.3513 23.5176 12 23.5176C5.64873 23.5176 0.5 18.3689 0.5 12.0176C0.5 5.6663 5.64873 0.517578 12 0.517578C18.3513 0.517578 23.5 5.6663 23.5 12.0176Z" stroke="#919191"/>
<path fill-rule="evenodd" clip-rule="evenodd" d="M5.43201 11.8915C8.93026 10.3674 11.263 9.36259 12.4301 8.87712C15.7627 7.49101 16.4551 7.25022 16.9065 7.24227C17.0058 7.24052 17.2277 7.26513 17.3715 7.38179C17.4929 7.4803 17.5263 7.61337 17.5423 7.70676C17.5583 7.80016 17.5782 8.01292 17.5623 8.17916C17.3817 10.0766 16.6003 14.6813 16.2028 16.8066C16.0346 17.7058 15.7034 18.0073 15.3827 18.0368C14.6858 18.101 14.1567 17.5763 13.4817 17.1339C12.4256 16.4415 11.8289 16.0106 10.8037 15.335C9.61896 14.5542 10.387 14.1251 11.0622 13.4238C11.2389 13.2403 14.3093 10.4475 14.3687 10.1942C14.3762 10.1625 14.3831 10.0444 14.3129 9.98204C14.2427 9.91967 14.1392 9.941 14.0644 9.95796C13.9585 9.982 12.2713 11.0972 9.00276 13.3035C8.52385 13.6324 8.09007 13.7926 7.70141 13.7842C7.27295 13.775 6.44876 13.542 5.83606 13.3428C5.08456 13.0985 4.48728 12.9694 4.53929 12.5545C4.56638 12.3384 4.86395 12.1174 5.43201 11.8915Z" stroke="#919191"/>
</g>
<defs>
<clipPath id="clip0_4021_116043">
<rect width="24" height="24" fill="white" transform="translate(0 0.0175781)"/>
</clipPath>
</defs>
</svg>
