<svg width="406" height="285" viewBox="0 0 406 285" fill="none" xmlns="http://www.w3.org/2000/svg">
<path fill-rule="evenodd" clip-rule="evenodd" d="M289.182 61.3485C292.348 65.068 291.904 70.6459 288.191 73.8091C284.478 76.9722 278.9 76.5231 275.731 72.8065L187.84 147.676C173.486 159.904 166.309 166.018 165.648 174.275C164.987 182.533 171.101 189.71 183.329 204.065L217.733 244.453C229.961 258.807 236.075 265.984 244.333 266.645C252.591 267.306 259.768 261.192 274.122 248.964L362.013 174.095C362.011 174.093 362.01 174.091 362.008 174.09C358.84 170.37 359.283 164.79 362.997 161.626C366.711 158.462 372.291 158.912 375.459 162.632C375.461 162.633 375.462 162.635 375.464 162.637C389.247 150.893 396.151 144.86 396.798 136.768C397.459 128.51 391.345 121.333 379.118 106.979L344.713 66.5905C332.485 52.2363 326.372 45.0592 318.114 44.3985C310.022 43.7511 302.968 49.6083 289.182 61.3485ZM292.619 76.7229C293.25 76.1857 294.196 76.2615 294.734 76.8921L300.758 83.9639C301.295 84.5945 301.219 85.5412 300.588 86.0784C299.958 86.6156 299.011 86.5399 298.474 85.9092L292.45 78.8375C291.913 78.2069 291.988 77.2601 292.619 76.7229ZM304.667 90.8664C305.298 90.3292 306.244 90.405 306.782 91.0356L312.806 98.1073C313.343 98.738 313.267 99.6847 312.637 100.222C312.006 100.759 311.059 100.683 310.522 100.053L304.498 92.981C303.961 92.3504 304.036 91.4036 304.667 90.8664ZM316.715 105.01C317.346 104.473 318.293 104.548 318.83 105.179L324.854 112.251C325.391 112.881 325.315 113.828 324.685 114.365C324.054 114.903 323.107 114.827 322.57 114.196L316.546 107.124C316.009 106.494 316.085 105.547 316.715 105.01ZM328.763 119.153C329.394 118.616 330.341 118.692 330.878 119.323L336.902 126.394C337.439 127.025 337.363 127.972 336.733 128.509C336.102 129.046 335.155 128.97 334.618 128.34L328.594 121.268C328.057 120.637 328.133 119.691 328.763 119.153ZM340.811 133.297C341.442 132.76 342.389 132.835 342.926 133.466L348.95 140.538C349.487 141.168 349.411 142.115 348.781 142.652C348.15 143.19 347.203 143.114 346.666 142.483L340.642 135.411C340.105 134.781 340.181 133.834 340.811 133.297ZM352.859 147.44C353.49 146.903 354.437 146.979 354.974 147.61L360.998 154.681C361.535 155.312 361.459 156.259 360.829 156.796C360.198 157.333 359.251 157.257 358.714 156.627L352.69 149.555C352.153 148.924 352.229 147.978 352.859 147.44Z" fill="#F1F1F1"/>
<path fill-rule="evenodd" clip-rule="evenodd" d="M30.4347 162.608C33.6185 158.904 39.1977 158.478 42.8982 161.656C46.5988 164.834 47.0197 170.414 43.8392 174.12L131.428 249.344C145.733 261.629 152.885 267.771 161.146 267.144C169.406 266.517 175.549 259.364 187.834 245.059L222.401 204.81C234.687 190.505 240.829 183.353 240.202 175.092C239.575 166.832 232.422 160.689 218.117 148.404L130.529 73.1807C130.527 73.1825 130.526 73.1842 130.524 73.186C127.341 76.8926 121.759 77.3204 118.058 74.1414C114.356 70.9624 113.936 65.3805 117.119 61.6739C117.121 61.6721 117.122 61.6704 117.124 61.6686C103.386 49.8729 96.3552 43.9872 88.2609 44.602C80.0004 45.2294 73.8577 52.3818 61.5725 66.6866L27.0053 106.936C14.7201 121.241 8.57742 128.393 9.20482 136.654C9.81958 144.748 16.6995 150.809 30.4347 162.608ZM45.0905 156.83C44.462 156.29 44.3901 155.343 44.9299 154.714L50.9823 147.667C51.5221 147.039 52.4691 146.967 53.0976 147.506C53.726 148.046 53.7979 148.993 53.2582 149.622L47.2057 156.669C46.666 157.298 45.719 157.369 45.0905 156.83ZM57.1954 142.735C56.567 142.195 56.495 141.248 57.0348 140.62L63.0873 133.572C63.627 132.944 64.574 132.872 65.2025 133.412C65.831 133.951 65.9029 134.898 65.3631 135.527L59.3107 142.574C58.7709 143.203 57.8239 143.275 57.1954 142.735ZM69.3004 128.64C68.6719 128.1 68.6 127.153 69.1397 126.525L75.1922 119.477C75.7319 118.849 76.679 118.777 77.3074 119.317C77.9359 119.856 78.0078 120.803 77.4681 121.432L71.4156 128.479C70.8759 129.108 69.9288 129.18 69.3004 128.64ZM81.4053 114.545C80.7768 114.005 80.7049 113.058 81.2447 112.43L87.2971 105.383C87.8369 104.754 88.7839 104.682 89.4124 105.222C90.0408 105.762 90.1128 106.709 89.573 107.337L83.5205 114.385C82.9808 115.013 82.0338 115.085 81.4053 114.545ZM93.5102 100.45C92.8818 99.9106 92.8099 98.9636 93.3496 98.3351L99.4021 91.2877C99.9418 90.6593 100.889 90.5873 101.517 91.1271C102.146 91.6668 102.218 92.6138 101.678 93.2423L95.6255 100.29C95.0857 100.918 94.1387 100.99 93.5102 100.45ZM105.615 86.3555C104.987 85.8158 104.915 84.8688 105.455 84.2403L111.507 77.1929C112.047 76.5644 112.994 76.4925 113.622 77.0322C114.251 77.572 114.323 78.519 113.783 79.1475L107.73 86.1949C107.191 86.8233 106.244 86.8953 105.615 86.3555Z" fill="#F1F1F1"/>
<g filter="url(#filter0_d_4021_115667)">
<path fill-rule="evenodd" clip-rule="evenodd" d="M140.51 14.8579C134.652 20.7157 134.652 30.1438 134.652 49V56.6752C139.537 56.6777 143.495 61.5277 143.495 67.5102C143.495 73.4928 139.537 78.3428 134.652 78.3453V229C134.652 247.856 134.652 257.284 140.51 263.142C146.368 269 155.796 269 174.652 269H227.708C246.564 269 255.992 269 261.85 263.142C267.708 257.284 267.708 247.856 267.708 229V78.3453C267.706 78.3453 267.704 78.3453 267.701 78.3453C262.815 78.3453 258.854 73.4943 258.854 67.5102C258.854 61.5262 262.815 56.6752 267.701 56.6752C267.704 56.6752 267.706 56.6752 267.708 56.6752V49C267.708 30.1438 267.708 20.7157 261.85 14.8579C255.992 9 246.564 9 227.708 9H174.652C155.796 9 146.368 9 140.51 14.8579ZM148.585 66.0332C148.585 65.2048 149.257 64.5332 150.085 64.5332H159.375C160.203 64.5332 160.875 65.2048 160.875 66.0332C160.875 66.8617 160.203 67.5332 159.375 67.5332H150.085C149.257 67.5332 148.585 66.8617 148.585 66.0332ZM167.164 66.0332C167.164 65.2048 167.836 64.5332 168.664 64.5332H177.954C178.782 64.5332 179.454 65.2048 179.454 66.0332C179.454 66.8617 178.782 67.5332 177.954 67.5332H168.664C167.836 67.5332 167.164 66.8617 167.164 66.0332ZM185.744 66.0332C185.744 65.2048 186.415 64.5332 187.244 64.5332H196.533C197.362 64.5332 198.033 65.2048 198.033 66.0332C198.033 66.8617 197.362 67.5332 196.533 67.5332H187.244C186.415 67.5332 185.744 66.8617 185.744 66.0332ZM204.323 66.0332C204.323 65.2048 204.995 64.5332 205.823 64.5332H215.113C215.941 64.5332 216.613 65.2048 216.613 66.0332C216.613 66.8617 215.941 67.5332 215.113 67.5332H205.823C204.995 67.5332 204.323 66.8617 204.323 66.0332ZM222.903 66.0332C222.903 65.2048 223.574 64.5332 224.403 64.5332H233.692C234.521 64.5332 235.192 65.2048 235.192 66.0332C235.192 66.8617 234.521 67.5332 233.692 67.5332H224.403C223.574 67.5332 222.903 66.8617 222.903 66.0332ZM241.482 66.0332C241.482 65.2048 242.153 64.5332 242.982 64.5332H252.272C253.1 64.5332 253.772 65.2048 253.772 66.0332C253.772 66.8617 253.1 67.5332 252.272 67.5332H242.982C242.153 67.5332 241.482 66.8617 241.482 66.0332Z" fill="white"/>
</g>
<defs>
<filter id="filter0_d_4021_115667" x="122.312" y="0.19" width="157.736" height="284.68" filterUnits="userSpaceOnUse" color-interpolation-filters="sRGB">
<feFlood flood-opacity="0" result="BackgroundImageFix"/>
<feColorMatrix in="SourceAlpha" type="matrix" values="0 0 0 0 0 0 0 0 0 0 0 0 0 0 0 0 0 0 127 0" result="hardAlpha"/>
<feMorphology radius="3.53" operator="erode" in="SourceAlpha" result="effect1_dropShadow_4021_115667"/>
<feOffset dy="3.53"/>
<feGaussianBlur stdDeviation="7.935"/>
<feComposite in2="hardAlpha" operator="out"/>
<feColorMatrix type="matrix" values="0 0 0 0 0.415686 0 0 0 0 0.501961 0 0 0 0 0.188235 0 0 0 0.25 0"/>
<feBlend mode="normal" in2="BackgroundImageFix" result="effect1_dropShadow_4021_115667"/>
<feBlend mode="normal" in="SourceGraphic" in2="effect1_dropShadow_4021_115667" result="shape"/>
</filter>
</defs>
</svg>
