<svg width="24" height="25" viewBox="0 0 24 25" fill="none" xmlns="http://www.w3.org/2000/svg">
<path d="M18.91 15.6341C18.91 16.9241 19.97 17.9741 21.26 17.9741C21.26 21.7241 20.32 22.6641 16.57 22.6641H7.19C3.44 22.6641 2.5 21.7241 2.5 17.9741V17.5141C3.79 17.5141 4.85 16.4541 4.85 15.1641C4.85 13.8741 3.79 12.8141 2.5 12.8141V12.3541C2.51 8.60406 3.44 7.66406 7.19 7.66406H16.56C20.31 7.66406 21.25 8.60406 21.25 12.3541V13.2941C19.96 13.2941 18.91 14.3341 18.91 15.6341Z" stroke="#292D32" stroke-width="1.5" stroke-linecap="round" stroke-linejoin="round"/>
<path d="M16.2111 7.66391H7.12109L10.0511 4.73391C12.4411 2.34391 13.6411 2.34391 16.0311 4.73391L16.6311 5.33391C16.0011 5.96391 15.8511 6.89391 16.2111 7.66391Z" stroke="#292D32" stroke-width="1.5" stroke-linecap="round" stroke-linejoin="round"/>
<path d="M9.87891 7.66406L9.87891 22.6641" stroke="#292D32" stroke-width="1.5" stroke-linecap="round" stroke-linejoin="round" stroke-dasharray="5 5"/>
</svg>
