<svg  viewBox="0 0 14 14" fill="none" xmlns="http://www.w3.org/2000/svg">
<path d="M5.83329 5.29683V3.646C5.59413 3.646 5.39579 3.44766 5.39579 3.2085V1.896H4.08329C1.51079 1.896 0.729126 2.67766 0.729126 5.25016V5.54183C0.729126 5.781 0.927459 5.97933 1.16663 5.97933C1.72663 5.97933 2.18746 6.44016 2.18746 7.00016C2.18746 7.56016 1.72663 8.021 1.16663 8.021C0.927459 8.021 0.729126 8.21933 0.729126 8.4585V8.75016C0.729126 11.3227 1.51079 12.1043 4.08329 12.1043H5.39579V10.7918C5.39579 10.5527 5.59413 10.3543 5.83329 10.3543V8.7035C5.59413 8.7035 5.39579 8.50516 5.39579 8.266V5.73433C5.39579 5.49516 5.59413 5.29683 5.83329 5.29683Z" fill="#C5292A"/>
<path opacity="0.4" d="M11.8125 7.29183C11.8125 7.85183 12.2734 8.31266 12.8334 8.31266C13.0725 8.31266 13.2709 8.511 13.2709 8.75016C13.2709 11.3227 12.4892 12.1043 9.91671 12.1043H6.27087V10.7918C6.27087 10.5527 6.07254 10.3543 5.83337 10.3543V8.7035C6.07254 8.7035 6.27087 8.50516 6.27087 8.266V5.73433C6.27087 5.49516 6.07254 5.29683 5.83337 5.29683V3.646C6.07254 3.646 6.27087 3.44766 6.27087 3.2085V1.896H9.91671C12.4892 1.896 13.2709 2.67766 13.2709 5.25016V5.8335C13.2709 6.07266 13.0725 6.271 12.8334 6.271C12.2734 6.271 11.8125 6.73183 11.8125 7.29183Z" fill="#C5292A"/>
</svg>
