<svg width="16" height="16" viewBox="0 0 16 16" fill="none" xmlns="http://www.w3.org/2000/svg">
<path d="M13 8.33317C13 7.41317 13.7467 6.6665 14.6667 6.6665V5.99984C14.6667 3.33317 14 2.6665 11.3334 2.6665H4.66671C2.00004 2.6665 1.33337 3.33317 1.33337 5.99984V6.33317C2.25337 6.33317 3.00004 7.07984 3.00004 7.99984C3.00004 8.91984 2.25337 9.6665 1.33337 9.6665V9.99984C1.33337 12.6665 2.00004 13.3332 4.66671 13.3332H11.3334C14 13.3332 14.6667 12.6665 14.6667 9.99984C13.7467 9.99984 13 9.25317 13 8.33317Z" stroke-linecap="round" stroke-linejoin="round"/>
<path d="M6.66663 2.6665L6.66663 13.3332" stroke-linecap="round" stroke-linejoin="round" stroke-dasharray="5 5"/>
</svg>
