<svg viewBox="0 0 14 14" fill="none" xmlns="http://www.w3.org/2000/svg">
<path d="M5.83342 5.29683V3.646C5.59425 3.646 5.39592 3.44766 5.39592 3.2085V1.896H4.08342C1.51091 1.896 0.729248 2.67766 0.729248 5.25016V5.54183C0.729248 5.781 0.927581 5.97933 1.16675 5.97933C1.72675 5.97933 2.18758 6.44016 2.18758 7.00016C2.18758 7.56016 1.72675 8.021 1.16675 8.021C0.927581 8.021 0.729248 8.21933 0.729248 8.4585V8.75016C0.729248 11.3227 1.51091 12.1043 4.08342 12.1043H5.39592V10.7918C5.39592 10.5527 5.59425 10.3543 5.83342 10.3543V8.7035C5.59425 8.7035 5.39592 8.50516 5.39592 8.266V5.73433C5.39592 5.49516 5.59425 5.29683 5.83342 5.29683Z" fill="#5E9756"/>
<path opacity="0.4" d="M11.8124 7.29183C11.8124 7.85183 12.2733 8.31266 12.8333 8.31266C13.0724 8.31266 13.2708 8.511 13.2708 8.75016C13.2708 11.3227 12.4891 12.1043 9.91658 12.1043H6.27075V10.7918C6.27075 10.5527 6.07242 10.3543 5.83325 10.3543V8.7035C6.07242 8.7035 6.27075 8.50516 6.27075 8.266V5.73433C6.27075 5.49516 6.07242 5.29683 5.83325 5.29683V3.646C6.07242 3.646 6.27075 3.44766 6.27075 3.2085V1.896H9.91658C12.4891 1.896 13.2708 2.67766 13.2708 5.25016V5.8335C13.2708 6.07266 13.0724 6.271 12.8333 6.271C12.2733 6.271 11.8124 6.73183 11.8124 7.29183Z" fill="#5E9756"/>
</svg>
