<svg viewBox="0 0 14 15" fill="none" xmlns="http://www.w3.org/2000/svg">
<path d="M12.25 3.98844C10.3075 3.79594 8.35333 3.69678 6.405 3.69678C5.25 3.69678 4.095 3.75511 2.94 3.87178L1.75 3.98844" stroke="#292D32" stroke-linecap="round" stroke-linejoin="round"/>
<path d="M4.95837 3.399L5.08671 2.63484C5.18004 2.08067 5.25004 1.6665 6.23587 1.6665H7.76421C8.75004 1.6665 8.82587 2.104 8.91337 2.64067L9.04171 3.399" stroke="#292D32" stroke-linecap="round" stroke-linejoin="round"/>
<path d="M10.9958 5.83154L10.6167 11.7057C10.5525 12.6215 10.5 13.3332 8.87248 13.3332H5.12748C3.49998 13.3332 3.44748 12.6215 3.38332 11.7057L3.00415 5.83154" stroke="#292D32" stroke-linecap="round" stroke-linejoin="round"/>
<path d="M6.02588 10.125H7.96838" stroke="#292D32" stroke-linecap="round" stroke-linejoin="round"/>
<path d="M5.54163 7.7915H8.45829" stroke="#292D32" stroke-linecap="round" stroke-linejoin="round"/>
</svg>
