<svg width="24" height="25" viewBox="0 0 24 25" fill="none" xmlns="http://www.w3.org/2000/svg">
<g clip-path="url(#clip0_4021_116050)">
<path d="M11.396 0.517578H12.604C18.599 0.517578 23.5 5.62772 23.5 11.9834C23.5 18.339 18.599 23.4492 12.604 23.4492H11.396C5.40101 23.4492 0.5 18.339 0.5 11.9834C0.5 5.62772 5.40101 0.517578 11.396 0.517578Z" stroke="#919191"/>
<path d="M15.6149 6.01758H17.5426L13.3311 11.0717L18.2855 17.9492H14.4062L11.3678 13.778L7.8912 17.9492H5.96234L10.4669 12.5432L5.71411 6.01758H9.69188L12.4383 9.83016L15.6149 6.01758ZM14.9383 16.7377H16.0065L9.11148 7.16544H7.96525L14.9383 16.7377Z" fill="#919191"/>
</g>
<defs>
<clipPath id="clip0_4021_116050">
<rect width="24" height="24" fill="white" transform="translate(0 0.0175781)"/>
</clipPath>
</defs>
</svg>
