<svg width="16" height="16" viewBox="0 0 16 16" fill="none" xmlns="http://www.w3.org/2000/svg">
<path d="M6.10664 7.24683C6.03998 7.24016 5.95998 7.24016 5.88664 7.24683C4.29998 7.1935 3.03998 5.8935 3.03998 4.2935C3.03998 2.66016 4.35998 1.3335 5.99998 1.3335C7.63331 1.3335 8.95998 2.66016 8.95998 4.2935C8.95331 5.8935 7.69331 7.1935 6.10664 7.24683Z" stroke-linecap="round" stroke-linejoin="round"/>
<path d="M10.94 2.6665C12.2333 2.6665 13.2733 3.71317 13.2733 4.99984C13.2733 6.25984 12.2733 7.2865 11.0267 7.33317C10.9733 7.3265 10.9133 7.3265 10.8533 7.33317" stroke-linecap="round" stroke-linejoin="round"/>
<path d="M2.77335 9.7065C1.16002 10.7865 1.16002 12.5465 2.77335 13.6198C4.60669 14.8465 7.61335 14.8465 9.44669 13.6198C11.06 12.5398 11.06 10.7798 9.44669 9.7065C7.62002 8.4865 4.61335 8.4865 2.77335 9.7065Z" stroke-linecap="round" stroke-linejoin="round"/>
<path d="M12.2267 13.3335C12.7067 13.2335 13.16 13.0402 13.5334 12.7535C14.5734 11.9735 14.5734 10.6868 13.5334 9.90683C13.1667 9.62683 12.72 9.44016 12.2467 9.3335" stroke-linecap="round" stroke-linejoin="round"/>
</svg>
