<svg width="75" height="74" viewBox="0 0 75 74" fill="none" xmlns="http://www.w3.org/2000/svg">
<mask id="mask0_419_12014" style="mask-type:alpha" maskUnits="userSpaceOnUse" x="0" y="0" width="75" height="74">
<circle cx="37.4999" cy="36.742" r="36.742" fill="#E1E1E1"/>
</mask>
<g mask="url(#mask0_419_12014)">
<circle cx="37.4999" cy="36.742" r="36.742" fill="#F2F2F2"/>
<path d="M31.4322 23.9293C31.3294 23.8062 25.3683 21.0415 19.9695 25.1609C15.0068 28.9485 13.284 36.0673 13.9433 36.2383C14.7503 36.4469 16.9614 33.0505 21.2055 31.1828C22.7109 30.5207 25.1061 31.1828 25.1061 31.1828L31.4322 23.9293Z" fill="#F7941D" fill-opacity="0.9"/>
<path opacity="0.1" d="M25.109 31.1813C24.3982 31.0005 23.6688 30.9033 22.9355 30.8915C23.8716 28.9325 25.619 25.2783 26.7536 22.9106C29.424 22.9353 31.3801 23.8612 31.4395 23.9249L25.109 31.1813Z" fill="black"/>
<path d="M41.2512 35.5107C41.3555 35.6325 43.1088 41.9659 38.1606 46.6171C33.6123 50.8944 26.308 51.4291 26.2472 50.7509C26.1733 49.9207 29.887 48.295 32.4227 44.4132C33.321 43.0367 33.0617 40.5647 33.0617 40.5647L41.2512 35.5107Z" fill="#F7941D" fill-opacity="0.9"/>
<path opacity="0.1" d="M41.482 40.3329L32.9824 42.8063C33.096 42.0647 33.1208 41.3122 33.0563 40.5647L41.2459 35.5107C41.3111 35.5803 41.9167 37.6798 41.482 40.3329Z" fill="black"/>
<path d="M27.3727 43.2526L21.5508 36.3859C21.5508 36.3859 24.5936 28.2442 31.8037 22.7758C35.4072 20.0474 39.6281 18.0058 43.42 16.6554C48.6435 14.7833 53.0136 14.2443 53.6903 15.0383C54.3669 15.8324 53.1107 20.0604 50.4185 24.9101C48.4638 28.4181 45.7572 32.2549 42.4767 35.3644C35.9013 41.5891 27.3727 43.2526 27.3727 43.2526Z" fill="#C7C7C7"/>
<path d="M41.5159 32.4243C40.7329 33.0889 39.7703 33.5063 38.7499 33.6237C37.7296 33.7411 36.6973 33.5532 35.7838 33.0838C34.8703 32.6144 34.1165 31.8846 33.6178 30.9867C33.1192 30.0888 32.898 29.0632 32.9824 28.0396C33.0668 27.016 33.4529 26.0404 34.0918 25.2363C34.7308 24.4322 35.5939 23.8356 36.5719 23.5221C37.55 23.2087 38.5991 23.1923 39.5864 23.4752C40.5738 23.7581 41.455 24.3275 42.1187 25.1113C43.0073 26.1615 43.443 27.5214 43.33 28.8925C43.217 30.2636 42.5645 31.5338 41.5159 32.4243Z" fill="#A6A6A6"/>
<path d="M41.8009 31.9422C41.0177 32.6062 40.0551 33.023 39.035 33.14C38.0149 33.257 36.983 33.0688 36.0698 32.5993C35.1566 32.1298 34.4031 31.4001 33.9047 30.5024C33.4062 29.6046 33.1852 28.5793 33.2695 27.5559C33.3538 26.5326 33.7396 25.5572 34.3783 24.7532C35.0169 23.9491 35.8796 23.3525 36.8573 23.0388C37.835 22.7251 38.8838 22.7083 39.8711 22.9906C40.8583 23.273 41.7396 23.8417 42.4036 24.6249C43.2937 25.6753 43.7301 27.0362 43.6171 28.4083C43.5041 29.7805 42.8508 31.0516 41.8009 31.9422Z" fill="#F7941D" fill-opacity="0.9"/>
<path d="M40.7728 30.7262C40.2301 31.1876 39.5627 31.4777 38.8551 31.5597C38.1474 31.6417 37.4314 31.512 36.7975 31.1869C36.1636 30.8619 35.6404 30.3561 35.294 29.7335C34.9477 29.111 34.7938 28.3998 34.8518 27.6898C34.9098 26.9797 35.1772 26.3029 35.62 25.7449C36.0628 25.1868 36.6612 24.7727 37.3394 24.5548C38.0177 24.337 38.7453 24.3252 39.4302 24.521C40.1152 24.7168 40.7266 25.1114 41.1872 25.6548C41.8041 26.3826 42.1069 27.3254 42.0292 28.2762C41.9515 29.2271 41.4997 30.1082 40.7728 30.7262Z" fill="white"/>
<path d="M40.7755 30.7262C40.4358 31.0155 40.0451 31.2391 39.6236 31.3855L36.7257 31.1493C36.3335 30.9368 35.9846 30.6527 35.6969 30.3118C35.4856 30.0644 35.3096 29.7889 35.1738 29.4932L41.4189 30.0017C41.2386 30.2715 41.0221 30.5153 40.7755 30.7262Z" fill="#EBEBEB"/>
<path d="M41.5003 26.0797L35.7363 25.6102C35.8524 25.4768 35.9783 25.3523 36.1131 25.2379C36.8407 24.6206 37.7836 24.3176 38.7345 24.3953C39.6855 24.473 40.5667 24.9251 41.1844 25.6523C41.3004 25.7865 41.406 25.9294 41.5003 26.0797Z" fill="#EBEBEB"/>
<path d="M41.8111 29.2555L34.914 28.6918C34.8911 28.5861 34.8742 28.4792 34.8633 28.3716L41.911 28.9512C41.8835 29.0497 41.8487 29.1526 41.8111 29.2555Z" fill="#EBEBEB"/>
<path d="M50.4184 24.9102L43.4199 16.6511C48.6434 14.7834 53.0135 14.2444 53.6902 15.0384C54.3668 15.8325 53.1164 20.0605 50.4184 24.9102Z" fill="#F7941D" fill-opacity="0.9"/>
<path d="M45.4778 17.3521C45.4322 17.391 45.3761 17.4155 45.3165 17.4225C45.257 17.4294 45.1967 17.4186 45.1434 17.3912C45.09 17.3639 45.0459 17.3214 45.0168 17.269C44.9876 17.2166 44.9746 17.1568 44.9795 17.097C44.9844 17.0373 45.0069 16.9803 45.0442 16.9334C45.0814 16.8864 45.1318 16.8516 45.1889 16.8333C45.246 16.815 45.3072 16.8141 45.3648 16.8306C45.4225 16.8471 45.4739 16.8804 45.5126 16.9261C45.5643 16.9873 45.5897 17.0665 45.5832 17.1463C45.5767 17.2262 45.5388 17.3002 45.4778 17.3521Z" fill="white"/>
<path d="M46.7235 18.8217C46.6933 18.8483 46.6581 18.8686 46.6199 18.8814C46.5818 18.8942 46.5414 18.8993 46.5013 18.8964C46.4612 18.8934 46.422 18.8825 46.3861 18.8642C46.3503 18.8459 46.3184 18.8207 46.2924 18.79C46.2664 18.7593 46.2468 18.7237 46.2347 18.6853C46.2226 18.6469 46.2183 18.6064 46.222 18.5664C46.2257 18.5263 46.2374 18.4873 46.2563 18.4518C46.2753 18.4163 46.3011 18.3849 46.3323 18.3595C46.3938 18.3094 46.4725 18.2855 46.5515 18.2928C46.6305 18.3001 46.7034 18.3381 46.7547 18.3987C46.8059 18.4592 46.8314 18.5375 46.8256 18.6166C46.8197 18.6957 46.7831 18.7693 46.7235 18.8217Z" fill="white"/>
<path d="M47.9668 20.2896C47.9207 20.3271 47.8646 20.3502 47.8055 20.3561C47.7464 20.362 47.6868 20.3504 47.6343 20.3227C47.5817 20.295 47.5385 20.2524 47.5099 20.2003C47.4814 20.1482 47.4688 20.0888 47.4737 20.0296C47.4786 19.9704 47.5009 19.914 47.5377 19.8673C47.5744 19.8207 47.6241 19.7858 47.6805 19.7672C47.737 19.7486 47.7976 19.747 47.8549 19.7626C47.9123 19.7782 47.9638 19.8103 48.003 19.8549C48.03 19.8854 48.0506 19.9211 48.0635 19.9598C48.0764 19.9984 48.0813 20.0394 48.0779 20.08C48.0745 20.1206 48.0629 20.1602 48.0438 20.1962C48.0247 20.2322 47.9985 20.264 47.9668 20.2896Z" fill="white"/>
<path d="M49.2137 21.7586C49.1677 21.7963 49.1117 21.8197 49.0526 21.8258C48.9935 21.8318 48.9339 21.8204 48.8813 21.7929C48.8286 21.7654 48.7852 21.7229 48.7565 21.6709C48.7278 21.6189 48.715 21.5596 48.7197 21.5004C48.7245 21.4411 48.7465 21.3846 48.7831 21.3378C48.8198 21.291 48.8694 21.2561 48.9257 21.2373C48.9821 21.2184 49.0427 21.2166 49.1001 21.232C49.1575 21.2475 49.2091 21.2794 49.2485 21.3239C49.2754 21.3544 49.296 21.39 49.3088 21.4287C49.3217 21.4673 49.3267 21.5081 49.3235 21.5487C49.3202 21.5892 49.3088 21.6287 49.29 21.6648C49.2711 21.7009 49.2452 21.7328 49.2137 21.7586Z" fill="white"/>
<path d="M50.4654 23.2277C50.4197 23.2664 50.3636 23.2907 50.3041 23.2975C50.2447 23.3044 50.1845 23.2934 50.1312 23.266C50.078 23.2387 50.0341 23.1962 50.005 23.1439C49.9759 23.0916 49.9629 23.0318 49.9678 22.9721C49.9726 22.9125 49.9951 22.8556 50.0322 22.8087C50.0694 22.7617 50.1196 22.7269 50.1766 22.7085C50.2336 22.6901 50.2947 22.689 50.3523 22.7054C50.4099 22.7217 50.4613 22.7547 50.5002 22.8003C50.526 22.8306 50.5456 22.8658 50.5578 22.9037C50.5701 22.9416 50.5747 22.9815 50.5715 23.0212C50.5682 23.0609 50.5572 23.0996 50.539 23.1351C50.5208 23.1705 50.4958 23.202 50.4654 23.2277Z" fill="white"/>
<path d="M23.2245 36.2252C23.163 36.2752 23.0843 36.2992 23.0053 36.2919C22.9264 36.2845 22.8534 36.2465 22.8022 36.186C22.7509 36.1254 22.7255 36.0472 22.7313 35.9681C22.7371 35.889 22.7737 35.8153 22.8333 35.7629C22.8635 35.7364 22.8988 35.7161 22.9369 35.7033C22.9751 35.6904 23.0154 35.6854 23.0555 35.6883C23.0957 35.6913 23.1348 35.7022 23.1707 35.7205C23.2066 35.7387 23.2384 35.764 23.2645 35.7947C23.2905 35.8254 23.3101 35.861 23.3222 35.8994C23.3342 35.9378 23.3386 35.9782 23.3348 36.0183C23.3311 36.0584 23.3195 36.0973 23.3005 36.1328C23.2816 36.1684 23.2557 36.1997 23.2245 36.2252Z" fill="#A6A6A6"/>
<path d="M24.4754 37.6942C24.4295 37.7319 24.3735 37.7552 24.3144 37.7613C24.2552 37.7674 24.1957 37.756 24.143 37.7284C24.0903 37.7009 24.0469 37.6585 24.0182 37.6065C23.9895 37.5545 23.9767 37.4951 23.9814 37.4359C23.9862 37.3767 24.0082 37.3201 24.0449 37.2734C24.0815 37.2266 24.1311 37.1916 24.1874 37.1728C24.2438 37.154 24.3045 37.1522 24.3619 37.1676C24.4192 37.183 24.4708 37.215 24.5102 37.2595C24.5371 37.29 24.5577 37.3256 24.5706 37.3642C24.5834 37.4028 24.5884 37.4436 24.5852 37.4842C24.5819 37.5248 24.5705 37.5643 24.5517 37.6004C24.5328 37.6364 24.5069 37.6683 24.4754 37.6942Z" fill="#A6A6A6"/>
<path d="M25.7212 39.1667C25.6756 39.2054 25.6195 39.2297 25.56 39.2365C25.5005 39.2433 25.4404 39.2324 25.3871 39.205C25.3339 39.1777 25.2899 39.1351 25.2608 39.0828C25.2317 39.0305 25.2188 38.9708 25.2237 38.9111C25.2285 38.8514 25.2509 38.7945 25.2881 38.7476C25.3253 38.7007 25.3755 38.6658 25.4325 38.6475C25.4894 38.6291 25.5506 38.628 25.6082 38.6443C25.6657 38.6607 25.7172 38.6937 25.756 38.7393C25.7819 38.7696 25.8014 38.8047 25.8137 38.8426C25.8259 38.8805 25.8306 38.9205 25.8273 38.9602C25.8241 38.9999 25.8131 39.0386 25.7949 39.074C25.7767 39.1095 25.7516 39.141 25.7212 39.1667Z" fill="#A6A6A6"/>
<path d="M26.9656 40.6312C26.9197 40.6689 26.8637 40.6922 26.8046 40.6983C26.7455 40.7044 26.6859 40.693 26.6332 40.6654C26.5806 40.6379 26.5372 40.5955 26.5084 40.5435C26.4797 40.4915 26.4669 40.4322 26.4717 40.3729C26.4764 40.3137 26.4985 40.2572 26.5351 40.2104C26.5717 40.1636 26.6213 40.1286 26.6777 40.1098C26.734 40.091 26.7947 40.0892 26.8521 40.1046C26.9095 40.12 26.9611 40.152 27.0004 40.1965C27.0274 40.227 27.0479 40.2626 27.0608 40.3012C27.0737 40.3398 27.0787 40.3806 27.0754 40.4212C27.0722 40.4618 27.0608 40.5013 27.0419 40.5374C27.023 40.5735 26.9971 40.6054 26.9656 40.6312Z" fill="#A6A6A6"/>
<path d="M28.2109 42.0992C28.1648 42.1367 28.1087 42.1598 28.0496 42.1657C27.9905 42.1716 27.931 42.16 27.8784 42.1322C27.8258 42.1045 27.7826 42.062 27.754 42.0099C27.7255 41.9578 27.7129 41.8984 27.7178 41.8392C27.7228 41.78 27.745 41.7236 27.7818 41.6769C27.8186 41.6302 27.8683 41.5954 27.9247 41.5768C27.9811 41.5582 28.0418 41.5565 28.0991 41.5721C28.1564 41.5877 28.2079 41.6198 28.2471 41.6645C28.2742 41.695 28.2948 41.7306 28.3077 41.7693C28.3206 41.808 28.3254 41.8489 28.3221 41.8896C28.3187 41.9302 28.3071 41.9697 28.288 42.0058C28.2689 42.0418 28.2426 42.0736 28.2109 42.0992Z" fill="#A6A6A6"/>
<path opacity="0.2" d="M53.3628 14.834C49.3318 15.1238 42.3507 17.5639 35.0059 23.325C29.578 27.5806 25.618 35.0282 23.772 39.0057L21.5508 36.3859C21.5508 36.3859 24.5936 28.2442 31.8037 22.7758C35.4072 20.0474 39.6281 18.0058 43.42 16.6554C48.1016 14.976 52.0964 14.3675 53.3628 14.834Z" fill="white"/>
<path d="M24.7728 44.3713L20.0391 38.787L21.8807 36.7744L27.0593 42.8832L24.7728 44.3713Z" fill="#F7941D" fill-opacity="0.9"/>
<path opacity="0.1" d="M27.0586 42.8833L25.9443 43.6077L21.1758 37.5438L21.88 36.7759L27.0586 42.8833Z" fill="black"/>
<path d="M50.3445 25.6563L48.1812 25.5114L47.164 27.5718L47.2568 25.2767L45.2891 24.3667L47.4741 24.3884L48.4681 22.4512L48.4159 24.6275L50.3445 25.6563Z" fill="#FCFCFC"/>
<path d="M49.8138 17.6654L48.6039 17.5857L48.0359 18.7377L48.088 17.4539L46.9883 16.9453L48.2098 16.9569L48.7647 15.8745L48.7357 17.0916L49.8138 17.6654Z" fill="#FCFCFC"/>
<path d="M40.0306 42.2284L38.8221 42.1473L38.2541 43.2992L38.3048 42.0169L37.2051 41.5083L38.4266 41.5199L38.983 40.4375L38.9525 41.6546L40.0306 42.2284Z" fill="#FCFCFC"/>
<path d="M18.511 31.5419L17.3011 31.4608L16.7331 32.6127L16.7853 31.3303L15.6855 30.8218L16.907 30.8334L17.462 29.751L17.433 30.9667L18.511 31.5419Z" fill="#FCFCFC"/>
<path opacity="0.6" d="M23.7318 43.125C21.5366 44.6044 19.5994 46.4924 18.1852 48.7484C16.7342 51.0158 15.9143 53.6293 15.8103 56.3193C15.7756 57.6828 15.942 59.044 16.3044 60.359C16.6773 61.6984 17.2414 62.977 17.9794 64.1553C18.7351 65.3546 19.6413 66.4522 20.6759 67.4212C21.729 68.4063 22.8807 69.2803 24.1129 70.0294C22.7839 69.422 21.5214 68.6786 20.3456 67.811C19.1557 66.9291 18.0843 65.8977 17.1579 64.7421C15.2374 62.3508 14.0669 59.445 13.7934 56.3903C13.521 53.3025 14.173 50.1336 15.5234 47.3067C16.8739 44.4798 18.8923 41.9687 21.2773 39.917L23.7318 43.125Z" fill="#F7941D" fill-opacity="0.9"/>
<path d="M19.9778 46.4912L19.1142 46.6506L18.9215 47.5605L18.7288 46.6506L17.8652 46.4897L18.7259 46.2796L18.9215 45.4204L19.1186 46.2796L19.9778 46.4912Z" fill="white"/>
<path d="M16.8 63.5354L16.3175 63.6253L16.2103 64.1339L16.1016 63.6253L15.6191 63.5354L16.1002 63.4181L16.2103 62.9385L16.3204 63.4181L16.8 63.5354Z" fill="white"/>
<path d="M16.5403 59.1199L16.0578 59.2083L15.9506 59.7183L15.8433 59.2083L15.3594 59.1199L15.8404 59.0025L15.9506 58.5215L16.0607 59.0025L16.5403 59.1199Z" fill="white"/>
<path d="M19.3391 43.6526L18.8566 43.7425L18.7479 44.2511L18.6407 43.7425L18.1582 43.6526L18.6393 43.5353L18.7479 43.0557L18.8581 43.5353L19.3391 43.6526Z" fill="white"/>
<path d="M17.9409 64.6362C17.9102 64.6446 17.8831 64.6628 17.8638 64.6881C17.8445 64.7133 17.834 64.7442 17.834 64.7761C17.834 64.8079 17.8445 64.8388 17.8638 64.8641C17.8831 64.8893 17.9102 64.9075 17.9409 64.9159C17.9716 64.9075 17.9987 64.8893 18.018 64.8641C18.0373 64.8388 18.0478 64.8079 18.0478 64.7761C18.0478 64.7442 18.0373 64.7133 18.018 64.6881C17.9987 64.6628 17.9716 64.6446 17.9409 64.6362Z" fill="white"/>
<path d="M21.935 42.9712C21.9043 42.9795 21.8772 42.9977 21.8579 43.023C21.8386 43.0483 21.8281 43.0792 21.8281 43.111C21.8281 43.1428 21.8386 43.1738 21.8579 43.199C21.8772 43.2243 21.9043 43.2425 21.935 43.2508C21.9657 43.2425 21.9928 43.2243 22.0121 43.199C22.0315 43.1738 22.0419 43.1428 22.0419 43.111C22.0419 43.0792 22.0315 43.0483 22.0121 43.023C21.9928 42.9977 21.9657 42.9795 21.935 42.9712Z" fill="white"/>
<path d="M14.4038 55.4482C14.3731 55.4566 14.346 55.4748 14.3267 55.5001C14.3073 55.5253 14.2969 55.5563 14.2969 55.5881C14.2969 55.6199 14.3073 55.6508 14.3267 55.6761C14.346 55.7013 14.3731 55.7195 14.4038 55.7279C14.4345 55.7195 14.4616 55.7013 14.4809 55.6761C14.5002 55.6508 14.5107 55.6199 14.5107 55.5881C14.5107 55.5563 14.5002 55.5253 14.4809 55.5001C14.4616 55.4748 14.4345 55.4566 14.4038 55.4482Z" fill="white"/>
<path d="M17.6915 63.9077C17.6672 63.9107 17.6449 63.9224 17.6287 63.9407C17.6125 63.9589 17.6035 63.9825 17.6035 64.007C17.6035 64.0314 17.6125 64.055 17.6287 64.0733C17.6449 64.0916 17.6672 64.1033 17.6915 64.1062C17.7157 64.1033 17.7381 64.0916 17.7543 64.0733C17.7705 64.055 17.7794 64.0314 17.7794 64.007C17.7794 63.9825 17.7705 63.9589 17.7543 63.9407C17.7381 63.9224 17.7157 63.9107 17.6915 63.9077Z" fill="white"/>
<path d="M14.3524 50.5596C14.3263 50.5596 14.3012 50.5699 14.2828 50.5884C14.2643 50.6069 14.2539 50.632 14.2539 50.6581C14.2539 50.6842 14.2643 50.7093 14.2828 50.7278C14.3012 50.7462 14.3263 50.7566 14.3524 50.7566C14.3786 50.7566 14.4036 50.7462 14.4221 50.7278C14.4406 50.7093 14.451 50.6842 14.451 50.6581C14.451 50.632 14.4406 50.6069 14.4221 50.5884C14.4036 50.5699 14.3786 50.5596 14.3524 50.5596Z" fill="white"/>
<path d="M15.3611 60.6821C15.2932 60.6871 15.2297 60.7176 15.1834 60.7675C15.1371 60.8173 15.1113 60.8829 15.1113 60.9509C15.1113 61.019 15.1371 61.0845 15.1834 61.1344C15.2297 61.1842 15.2932 61.2147 15.3611 61.2197C15.429 61.2147 15.4924 61.1842 15.5388 61.1344C15.5851 61.0845 15.6108 61.019 15.6108 60.9509C15.6108 60.8829 15.5851 60.8173 15.5388 60.7675C15.4924 60.7176 15.429 60.6871 15.3611 60.6821Z" fill="white"/>
<path d="M15.6196 49.6499C15.5485 49.6499 15.4803 49.6781 15.4301 49.7284C15.3798 49.7787 15.3516 49.8469 15.3516 49.918C15.3516 49.9891 15.3798 50.0572 15.4301 50.1075C15.4803 50.1578 15.5485 50.186 15.6196 50.186C15.6907 50.186 15.7589 50.1578 15.8092 50.1075C15.8594 50.0572 15.8877 49.9891 15.8877 49.918C15.8877 49.8469 15.8594 49.7787 15.8092 49.7284C15.7589 49.6781 15.6907 49.6499 15.6196 49.6499Z" fill="white"/>
</g>
</svg>
